<svg xmlns="http://www.w3.org/2000/svg" xmlns:xlink="http://www.w3.org/1999/xlink" viewBox="0 0 533.02 250.74"><defs><style>.cls-1,.cls-12,.cls-15,.cls-16,.cls-20,.cls-24,.cls-25,.cls-26,.cls-28,.cls-29,.cls-5{fill:none;}.cls-2{isolation:isolate;}.cls-3{fill:#041801;}.cls-4{fill:#0c2109;}.cls-12,.cls-5{stroke:#354232;}.cls-12,.cls-15,.cls-16,.cls-20,.cls-24,.cls-25,.cls-26,.cls-28,.cls-29,.cls-5{stroke-miterlimit:10;}.cls-6{fill:#354232;}.cls-7{fill:#dec5ab;}.cls-8{fill:#f8e4cf;}.cls-9{fill:#aa8f77;}.cls-10{fill:#bd3e00;}.cls-11{fill:#d1b093;}.cls-12{stroke-width:0.5px;}.cls-13{fill:#4b5947;}.cls-14{fill:#ea9633;}.cls-15,.cls-16{stroke:#ca791e;}.cls-15,.cls-26{stroke-width:3px;}.cls-17,.cls-18{fill:#ca791e;}.cls-17{opacity:0.5;mix-blend-mode:multiply;}.cls-19{fill:#e8b134;}.cls-20{stroke:#f8e4cf;stroke-width:2px;}.cls-21{fill:#fff;}.cls-22{fill:#3b7977;}.cls-23{clip-path:url(#clip-path);}.cls-24,.cls-25,.cls-28,.cls-29{stroke:#6ca8a5;}.cls-24{stroke-width:5px;}.cls-25{stroke-width:8px;}.cls-26{stroke:#0c2109;}.cls-27{clip-path:url(#clip-path-2);}.cls-28{stroke-width:10px;}.cls-29{stroke-width:18px;}</style><clipPath id="clip-path"><path class="cls-1" d="M184.82,107.91c.66-2.83,9-38.83,9.33-40s1.17-1.61,2.84-1.61h20.66c1.17,0,1.58,1,1.58,2.45V92.49c0,1.34-.75,1.92-2,2.42S187,109,186,109.35,184.53,109.17,184.82,107.91Z"/></clipPath><clipPath id="clip-path-2"><path class="cls-1" d="M63.61,66.91h96.48c4.25,0,3.26,3.56,2.27,6.52s-9.2,31.24-10.19,33.54-3.61,3.94-7.89,4.27-93.38.33-93.38.33Z"/></clipPath></defs><g class="cls-2"><g id="Isolation_Mode" data-name="Isolation Mode"><path class="cls-3" d="M380.43,178.31H426c11.88,0,21.5,16.21,21.5,36.21h-7.89c0,20-9.62,36.22-21.5,36.22h-31c-11.88,0-21.5-16.21-21.5-36.22h-6.72C358.93,194.52,368.56,178.31,380.43,178.31Z"/><path class="cls-3" d="M161.19,178.31h45.58c11.87,0,21.5,16.21,21.5,36.21h-7.89c0,20-9.63,36.22-21.5,36.22h-31c-11.87,0-21.49-16.21-21.49-36.22h-6.72C139.69,194.52,149.31,178.31,161.19,178.31Z"/><path class="cls-3" d="M492.39,178.31h-31c11.88,0,21.5,16.21,21.5,36.21h31C513.89,194.52,504.26,178.31,492.39,178.31Z"/><path class="cls-4" d="M453.52,178.31h31c11.87,0,21.5,16.21,21.5,36.21s-9.63,36.22-21.5,36.22h-31c-11.87,0-21.49-16.21-21.49-36.22S441.65,178.31,453.52,178.31Z"/><path class="cls-5" d="M469,178.31c-11.87,0-21.5,16.21-21.5,36.21s9.63,36.22,21.5,36.22"/><ellipse class="cls-6" cx="485.08" cy="214.52" rx="19.35" ry="33.61"/><ellipse class="cls-7" cx="487.12" cy="214.52" rx="10.32" ry="21.47"/><ellipse class="cls-8" cx="487.93" cy="214.52" rx="7.37" ry="17"/><ellipse class="cls-9" cx="488.33" cy="214.52" rx="3.09" ry="8.01"/><path class="cls-6" d="M446.81,178.31h31c-11.87,0-21.5,16.21-21.5,36.21h-31C425.31,194.52,434.93,178.31,446.81,178.31Z"/><path class="cls-3" d="M329.11,178.31h-31c11.88,0,21.5,16.21,21.5,36.21h31C350.61,194.52,341,178.31,329.11,178.31Z"/><path class="cls-4" d="M290.24,178.31h31c11.87,0,21.5,16.21,21.5,36.21s-9.63,36.22-21.5,36.22h-31c-11.87,0-21.5-16.21-21.5-36.22S278.37,178.31,290.24,178.31Z"/><path class="cls-5" d="M305.73,178.31c-11.87,0-21.5,16.21-21.5,36.21s9.63,36.22,21.5,36.22"/><ellipse class="cls-6" cx="321.8" cy="214.52" rx="19.35" ry="33.61"/><ellipse class="cls-7" cx="323.84" cy="214.52" rx="10.32" ry="21.47"/><ellipse class="cls-8" cx="324.65" cy="214.52" rx="7.37" ry="17"/><ellipse class="cls-9" cx="325.05" cy="214.52" rx="3.09" ry="8.01"/><path class="cls-6" d="M283.52,178.31h31c-11.87,0-21.5,16.21-21.5,36.21H262C262,194.52,271.65,178.31,283.52,178.31Z"/><path class="cls-4" d="M469,179.62H529a4.07,4.07,0,0,1,0,8.14H469a4.07,4.07,0,0,1,0-8.14Z"/><rect class="cls-3" x="451.28" y="176.23" width="37.85" height="16.16" rx="1.58"/><rect class="cls-3" x="438.66" y="176.23" width="7.36" height="16.16" rx="1.58"/><rect class="cls-3" x="352.45" y="177.94" width="3.68" height="37.39"/><rect class="cls-3" x="314.44" y="177.94" width="3.68" height="37.39"/><rect class="cls-3" x="276.43" y="177.94" width="3.68" height="37.39"/><rect class="cls-8" x="254.92" y="190.29" width="128.28" height="3.88" rx="1.58"/><rect class="cls-10" x="360.72" y="190.29" width="7.36" height="3.88"/><rect class="cls-10" x="342.59" y="190.29" width="7.36" height="3.88"/><rect class="cls-10" x="324.45" y="190.29" width="7.36" height="3.88"/><rect class="cls-10" x="306.32" y="190.29" width="7.36" height="3.88"/><rect class="cls-10" x="288.18" y="190.29" width="7.36" height="3.88"/><rect class="cls-10" x="270.05" y="190.29" width="7.36" height="3.88"/><rect class="cls-8" x="254.92" y="213.39" width="128.28" height="3.88" rx="1.58"/><rect class="cls-10" x="360.72" y="213.39" width="7.36" height="3.88"/><rect class="cls-10" x="342.59" y="213.39" width="7.36" height="3.88"/><rect class="cls-10" x="324.45" y="213.39" width="7.36" height="3.88"/><rect class="cls-10" x="306.32" y="213.39" width="7.36" height="3.88"/><rect class="cls-10" x="288.18" y="213.39" width="7.36" height="3.88"/><rect class="cls-10" x="270.05" y="213.39" width="7.36" height="3.88"/><rect class="cls-7" x="105.05" width="407.2" height="173.47" rx="1.58"/><rect class="cls-8" x="105.05" width="173.22" height="173.22" rx="1.58"/><rect class="cls-7" x="112.48" y="7.42" width="158.37" height="158.37" rx="1.44"/><rect class="cls-11" x="287.27" y="7.42" width="216.05" height="158.37" rx="1.58"/><rect class="cls-10" x="262.3" y="1.31" width="14.13" height="4.47" rx="1.58"/><rect class="cls-10" x="280.21" y="1.31" width="14.13" height="4.47" rx="1.58"/><rect class="cls-10" x="496.26" y="1.31" width="14.13" height="4.47" rx="1.58"/><rect class="cls-10" x="107.06" y="1.31" width="14.13" height="4.47" rx="1.58"/><rect class="cls-4" x="99.53" y="170.71" width="418.24" height="9.2" rx="1.58"/><path class="cls-3" d="M47.26,173.44H95.91c12.67,0,22.94,17.3,22.94,38.65h-8.42c0,21.35-10.27,38.65-22.94,38.65H54.43c-12.67,0-22.94-17.3-22.94-38.65H24.32C24.32,190.74,34.59,173.44,47.26,173.44Z"/><path class="cls-3" d="M237.69,173.44H204.63c12.67,0,22.94,17.3,22.94,38.65h33.06C260.63,190.74,250.36,173.44,237.69,173.44Z"/><path class="cls-4" d="M196.21,173.44h33.06c12.67,0,22.94,17.3,22.94,38.65s-10.27,38.65-22.94,38.65H196.21c-12.67,0-22.94-17.3-22.94-38.65S183.54,173.44,196.21,173.44Z"/><path class="cls-5" d="M212.74,173.44c-12.67,0-23,17.3-23,38.65s10.28,38.65,23,38.65"/><ellipse class="cls-6" cx="229.89" cy="212.09" rx="20.65" ry="35.87"/><ellipse class="cls-7" cx="232.07" cy="212.09" rx="11.02" ry="22.92"/><ellipse class="cls-8" cx="232.93" cy="212.09" rx="7.86" ry="18.14"/><ellipse class="cls-9" cx="233.35" cy="212.09" rx="3.3" ry="8.55"/><path class="cls-3" d="M189,173.44H222.1c-12.67,0-22.95,17.3-22.95,38.65H166.1C166.1,190.74,176.37,173.44,189,173.44Z"/><rect class="cls-4" x="217.89" y="170.71" width="3.53" height="17.33"/><rect class="cls-4" x="195.77" y="170.71" width="3.53" height="17.33"/><path class="cls-4" d="M184,187.69h42.74a15.28,15.28,0,0,1,0,30.56H184a15.28,15.28,0,1,1,0-30.56Z"/><path class="cls-12" d="M188.13,218.25a15.28,15.28,0,0,0,0-30.56"/><path class="cls-12" d="M192.41,218.25a15.28,15.28,0,0,0,0-30.56"/><path class="cls-12" d="M196.69,218.25a15.28,15.28,0,0,0,0-30.56"/><path class="cls-12" d="M201,218.25a15.28,15.28,0,0,0,0-30.56"/><path class="cls-12" d="M205.25,218.25a15.28,15.28,0,0,0,0-30.56"/><path class="cls-12" d="M209.53,218.25a15.28,15.28,0,0,0,0-30.56"/><path class="cls-12" d="M213.81,218.25a15.28,15.28,0,0,0,0-30.56"/><path class="cls-12" d="M218.09,218.25a15.28,15.28,0,0,0,0-30.56"/><path class="cls-12" d="M222.37,218.25a15.28,15.28,0,0,0,0-30.56"/><rect class="cls-13" x="187.14" y="185.8" width="48.62" height="4.49" rx="1.58"/><rect class="cls-13" x="187.14" y="216.55" width="61.5" height="4.49" rx="1.58"/><rect class="cls-4" x="4.39" y="199" width="176.41" height="8.64"/><path class="cls-6" d="M8,204.74c-4.33,0-5.91,0-5.38,3.16S6.82,222.35,8,225.51s5.13,7.09,11.44,7.09H171.29c9.54,0,9-2.36,9.51-5.51s2.66-17.88,2.66-19.45-.8-2.9-5.79-2.9Z"/><rect class="cls-4" x="27.2" y="212.1" width="79.95" height="4.44" rx="1.58"/><rect class="cls-8" x="52.04" y="218.79" width="31.28" height="11.71" rx="1.58"/><path class="cls-10" d="M129.79,214.33a3.93,3.93,0,1,0,3.93-3.93A3.92,3.92,0,0,0,129.79,214.33Z"/><path class="cls-10" d="M10,214.33a3.93,3.93,0,1,0,3.93-3.93A3.92,3.92,0,0,0,10,214.33Z"/><path class="cls-14" d="M244.17,54.67H77.27A14.39,14.39,0,0,0,64.13,65.18c-2.37,7.62-14.46,49.94-14.72,51.52s-20.59,13-23.92,16c-8.67,7.88-7.62,21.55-7.62,29.44,0,0-9.46,8.67-12.88,13.14S0,191.6,0,194.76s1.05,7.36,9.46,7.36H182.4c4.21,0,2.37-2.51,3.81-9.73,2.37-11.83,9.13-18.92,20.11-18.92h34.3c2,0,7.49,0,7.49-5.52V61.9C248.11,57.8,246.93,54.67,244.17,54.67Z"/><rect class="cls-15" x="227.37" y="151.64" width="14.98" height="14.98" rx="0.83"/><line class="cls-16" x1="169.11" y1="148.06" x2="190.95" y2="54.67"/><line class="cls-16" x1="223.87" y1="173.47" x2="223.87" y2="54.67"/><path class="cls-17" d="M138.51,132.73c11.43-7,18.14-10.91,20.11-12.09s2.5-6.31,4.6-12.62c1.7-5.12,11.37-40.28,15-53.35h66c2.76,0,3.94,3.13,3.94,7.23V168c0,5.52-5.52,5.52-7.49,5.52h-34.3c-11,0-17.74,7.09-20.11,18.92-1.44,7.22.4,9.73-3.81,9.73H116.49V151C116.49,146.44,127.08,139.69,138.51,132.73Z"/><rect class="cls-18" x="217.36" y="118.55" width="3.45" height="14.18" rx="1.58"/><rect class="cls-14" x="55.3" y="41.77" width="196.9" height="16.04" rx="1.58"/><path class="cls-19" d="M56.88,41.77H182.4v16H56.88a1.57,1.57,0,0,1-1.58-1.57V43.34A1.57,1.57,0,0,1,56.88,41.77Z"/><path class="cls-10" d="M127.21,41.77v3.15a1.58,1.58,0,0,1-1.58,1.58H101.19a1.58,1.58,0,0,1-1.58-1.58V41.77Z"/><path class="cls-19" d="M0,194.76c0-3.16,1.58-15,5-19.45s12.88-13.14,12.88-13.14v40H9.46C1.05,202.12,0,197.91,0,194.76Z"/><rect class="cls-8" x="17.87" y="136.93" width="98.61" height="50.46" rx="11.83"/><rect class="cls-4" x="24.77" y="143.64" width="84.82" height="36.27" rx="9.79"/><line class="cls-20" x1="112.98" y1="154.15" x2="21.38" y2="154.15"/><line class="cls-20" x1="112.98" y1="159.67" x2="21.38" y2="159.67"/><line class="cls-20" x1="112.98" y1="165.19" x2="21.38" y2="165.19"/><line class="cls-20" x1="112.98" y1="170.71" x2="21.38" y2="170.71"/><line class="cls-20" x1="112.98" y1="176.23" x2="21.38" y2="176.23"/><path class="cls-8" d="M53.38,143.81c0,2.35,1.53,4.25,3.42,4.25H77.56c1.89,0,3.42-1.9,3.42-4.25h0c0-2.35-1.53-4.25-3.42-4.25H56.8c-1.89,0-3.42,1.9-3.42,4.25Z"/><path class="cls-4" d="M29.31,195a2.37,2.37,0,0,0,2.11,2.57h71.51a2.37,2.37,0,0,0,2.12-2.57h0a2.37,2.37,0,0,0-2.12-2.56H31.42A2.37,2.37,0,0,0,29.31,195Z"/><path class="cls-19" d="M138.91,159.27c19.71-17,61.1-16.55,72.93,14.2h-5.52c-11,0-17.74,7.09-20.11,18.92-1.44,7.22.4,9.73-3.81,9.73H118.85S119.19,176.23,138.91,159.27Z"/><path class="cls-4" d="M136,194.17h40c2.17,0,4.07-1.19,4.07-4.54s-.32-12.13-6.83-15.33-23.76,1.28-30.75,5.67C131.81,186.67,132.6,194.17,136,194.17Z"/><path class="cls-8" d="M142.89,192h31.58c1.71,0,3.2-.93,3.2-3.57s-.25-9.58-5.38-12.1-18.76,1-24.27,4.48C139.62,186,140.25,192,142.89,192Z"/><circle class="cls-21" cx="166.31" cy="183.69" r="7.91" transform="translate(-38.15 43.69) rotate(-13.44)"/><circle class="cls-10" cx="151.68" cy="185.62" r="4.4"/><path class="cls-10" d="M163.34,197.52a1.48,1.48,0,0,0,1.48,1.48h12.94a1.48,1.48,0,0,0,1.48-1.48h0a1.48,1.48,0,0,0-1.48-1.48H164.82a1.48,1.48,0,0,0-1.48,1.48Z"/><path class="cls-4" d="M3.47,178a30.18,30.18,0,0,1,3.8,2c10.64,6.7,9.86,14.2,6.5,14.2H0C.15,191,1.26,183,3.47,178Z"/><path class="cls-8" d="M2.32,181.16C10.06,186.34,9.41,192,6.83,192H.19A62,62,0,0,1,2.32,181.16Z"/><path class="cls-4" d="M180.89,112.36c.79-3.35,10.65-45.93,11-47.31s1.38-1.91,3.35-1.91h24.45c1.38,0,1.87,1.12,1.87,2.9V94.13c0,1.57-.89,2.26-2.37,2.85s-35.82,16.63-36.93,17.09S180.55,113.85,180.89,112.36Z"/><path class="cls-22" d="M184.82,107.91c.66-2.83,9-38.83,9.33-40s1.17-1.61,2.84-1.61h20.66c1.17,0,1.58,1,1.58,2.45V92.49c0,1.34-.75,1.92-2,2.42S187,109,186,109.35,184.53,109.17,184.82,107.91Z"/><g class="cls-23"><line class="cls-24" x1="237.32" y1="127.46" x2="188.78" y2="48.32"/><line class="cls-25" x1="229.84" y1="128.81" x2="181.3" y2="49.67"/></g><rect class="cls-4" x="193.97" y="82.27" width="16.56" height="29.31" rx="1.58"/><circle class="cls-4" cx="188.96" cy="63.14" r="2.09"/><path class="cls-4" d="M173.49,120.64a2.09,2.09,0,1,0,2.09-2.09A2.09,2.09,0,0,0,173.49,120.64Z"/><path class="cls-26" d="M189,63.14H201.2c1.7,0,1.05,6,1.05,7.82s.12,45.76.12,47.59-1.17,2.09-3,2.09H175.58"/><path class="cls-4" d="M64.91,63.14H165.35c5.1,0,3.91,4.28,2.73,7.82s-11,37.46-12.22,40.22-4.34,4.73-9.46,5.12-97,.4-97,.4Z"/><path class="cls-22" d="M63.61,66.91h96.48c4.25,0,3.26,3.56,2.27,6.52s-9.2,31.24-10.19,33.54-3.61,3.94-7.89,4.27-93.38.33-93.38.33Z"/><g class="cls-27"><line class="cls-28" x1="141.13" y1="125.64" x2="92.59" y2="46.5"/><line class="cls-29" x1="126.17" y1="125.64" x2="77.63" y2="46.5"/></g></g></g></svg>