<svg id="eTqHdV3O8Kf1" xmlns="http://www.w3.org/2000/svg" xmlns:xlink="http://www.w3.org/1999/xlink" viewBox="0 0 295.3 279.2" shape-rendering="geometricPrecision" text-rendering="geometricPrecision">
<style><![CDATA[
#eTqHdV3O8Kf3_to {animation: eTqHdV3O8Kf3_to__to 5000ms linear infinite normal forwards}@keyframes eTqHdV3O8Kf3_to__to { 0% {transform: translate(177.751228px,114.235391px)} 10% {transform: translate(177.751228px,114.235391px);animation-timing-function: cubic-bezier(0.42,0,1,1)} 16% {transform: translate(141.751228px,116.235391px);animation-timing-function: cubic-bezier(0.42,0,1,1)} 90% {transform: translate(141.751228px,116.235391px);animation-timing-function: cubic-bezier(0.42,0,1,1)} 94% {transform: translate(177.751228px,114.235391px)} 100% {transform: translate(177.751228px,114.235391px)}} #eTqHdV3O8Kf3_ts {animation: eTqHdV3O8Kf3_ts__ts 5000ms linear infinite normal forwards}@keyframes eTqHdV3O8Kf3_ts__ts { 0% {transform: scale(0.172229,0.172229)} 10% {transform: scale(0.172229,0.172229);animation-timing-function: cubic-bezier(0.42,0,1,1)} 16% {transform: scale(1,1);animation-timing-function: cubic-bezier(0.42,0,1,1)} 90% {transform: scale(1,1);animation-timing-function: cubic-bezier(0.42,0,1,1)} 94% {transform: scale(0.172229,0.172229)} 100% {transform: scale(0.172229,0.172229)}} #eTqHdV3O8Kf3 {animation: eTqHdV3O8Kf3_c_o 5000ms linear infinite normal forwards}@keyframes eTqHdV3O8Kf3_c_o { 0% {opacity: 0} 10% {opacity: 0;animation-timing-function: cubic-bezier(0.42,0,1,1)} 16% {opacity: 1;animation-timing-function: cubic-bezier(0.42,0,1,1)} 90% {opacity: 1;animation-timing-function: cubic-bezier(0.42,0,1,1)} 94% {opacity: 0} 100% {opacity: 0}} #eTqHdV3O8Kf4_to {animation: eTqHdV3O8Kf4_to__to 5000ms linear infinite normal forwards}@keyframes eTqHdV3O8Kf4_to__to { 0% {transform: translate(149.68237px,270px);animation-timing-function: cubic-bezier(0.42,0,1,1)} 10% {transform: translate(149.68237px,270px);animation-timing-function: cubic-bezier(0.42,0,1,1)} 94% {transform: translate(149.68237px,270px);animation-timing-function: cubic-bezier(0.42,0,1,1)} 100% {transform: translate(149.68237px,270px)}} #eTqHdV3O8Kf4_ts {animation: eTqHdV3O8Kf4_ts__ts 5000ms linear infinite normal forwards}@keyframes eTqHdV3O8Kf4_ts__ts { 0% {transform: scale(0.174734,0.174733);animation-timing-function: cubic-bezier(0.42,0,1,1)} 10% {transform: scale(1,1);animation-timing-function: cubic-bezier(0.42,0,1,1)} 94% {transform: scale(1,1);animation-timing-function: cubic-bezier(0.42,0,1,1)} 100% {transform: scale(0.174734,0.174733)}} #eTqHdV3O8Kf4 {animation: eTqHdV3O8Kf4_c_o 5000ms linear infinite normal forwards}@keyframes eTqHdV3O8Kf4_c_o { 0% {opacity: 0;animation-timing-function: cubic-bezier(0.42,0,1,1)} 10% {opacity: 1;animation-timing-function: cubic-bezier(0.42,0,1,1)} 94% {opacity: 1;animation-timing-function: cubic-bezier(0.42,0,1,1)} 100% {opacity: 0}}
]]></style>
<g><g id="eTqHdV3O8Kf3_to" transform="translate(177.751228,114.235391)"><g id="eTqHdV3O8Kf3_ts" transform="scale(0.172229,0.172229)"><path id="eTqHdV3O8Kf3" d="M142.3,109c-.6-.9-1.1,1.1-1.1,0c0-23.5,0-59.5,0-83c0-.8,0-1.6,0-2.3-.3-3.9-3.2-6.7-7.2-6.7-25.5,0-51,0-76.5,0-4.1,0-7.3,3.1-7.3,7.2c0,15.2,0,30.5,0,45.7c0,3.6,1.9,6.2,5.1,7.1c1.2.3,2.5.4,3.8.4c21.8,0,43.5,0,65.3,0h2.4c0,6.4,0,25.6,0,31.7c0,.5-.1-.4-.2,0h5.4h10.3v-.1ZM126.6,62.7h-61.9v-31.3h61.9v31.3Z" transform="translate(-96.25,-109.379041)" opacity="0" fill="#559cd5"/></g></g><g id="eTqHdV3O8Kf4_to" transform="translate(149.68237,270)"><g id="eTqHdV3O8Kf4_ts" transform="scale(0.174734,0.174733)"><path id="eTqHdV3O8Kf4" d="M292.7,257.7C258,208.2,214.6,150.2,180,100.7c0,0-7.7,7.2-8.3,7.8-22.2,22.2-44.4,44.3-66.5,66.5-.5.5-.8,1.1-1.5,2.1-.7-1-1-1.6-1.5-2.1-5.2-5.2-10.3-10.4-15.5-15.5-4.4-4.4-9.1-4-12.6,1.1-22.2,31.9-44.4,63.8-66.5,95.6-1.1,1.6-2,3.4-3,5.1c0,1.1,0,2.2,0,3.3c1.1,2.5,2.8,4.5,5.4,5.4h279.4c5.8-3.3,6.9-7.2,3.3-12.3Zm-267-2.2c18.7-26.9,37.3-53.6,56-80.5v0c5.4,5.4,10.6,10.6,15.8,15.8c4.3,4.3,8,4.3,12.3,0c22.7-22.6,45.3-45.3,68-67.9.5-.5.9-.9,1.5-1.4c31.4,44.7,62.7,89.3,94.2,134.1h-247.8v-.1Z" transform="translate(-149.68237,-270)" opacity="0" fill="#559cd5"/></g></g></g></svg>
