<svg id="eH1haCcf3VA1" xmlns="http://www.w3.org/2000/svg" xmlns:xlink="http://www.w3.org/1999/xlink" viewBox="0 0 295.3 279.2" shape-rendering="geometricPrecision" text-rendering="geometricPrecision">
<style><![CDATA[
#eH1haCcf3VA2_to {animation: eH1haCcf3VA2_to__to 3000ms linear infinite normal forwards}@keyframes eH1haCcf3VA2_to__to { 0% {transform: translate(148.202488px,141.329025px)} 36.666667% {transform: translate(148.202488px,141.329025px)} 50% {transform: translate(148.202488px,141.329025px)} 66.666667% {transform: translate(148.202488px,141.329025px)} 100% {transform: translate(148.202488px,141.329025px)}} #eH1haCcf3VA2_ts {animation: eH1haCcf3VA2_ts__ts 3000ms linear infinite normal forwards}@keyframes eH1haCcf3VA2_ts__ts { 0% {transform: scale(1,1)} 36.666667% {transform: scale(1,1)} 50% {transform: scale(-0.004132,1)} 66.666667% {transform: scale(1,1)} 90% {transform: scale(1,1)} 100% {transform: scale(0.096716,0.096716)}} #eH1haCcf3VA2 {animation: eH1haCcf3VA2_c_o 3000ms linear infinite normal forwards}@keyframes eH1haCcf3VA2_c_o { 0% {opacity: 1} 90% {opacity: 1} 100% {opacity: 0}} #eH1haCcf3VA4_to {animation: eH1haCcf3VA4_to__to 3000ms linear infinite normal forwards}@keyframes eH1haCcf3VA4_to__to { 0% {transform: translate(154.891953px,91.581127px)} 16.666667% {transform: translate(154.891953px,91.581127px)} 20% {transform: translate(168.891953px,62.581127px)} 100% {transform: translate(168.891953px,62.581127px)}} #eH1haCcf3VA4_ts {animation: eH1haCcf3VA4_ts__ts 3000ms linear infinite normal forwards}@keyframes eH1haCcf3VA4_ts__ts { 0% {transform: scale(0.043318,0.010595)} 16.666667% {transform: scale(0.043318,0.010595)} 20% {transform: scale(1,1)} 100% {transform: scale(1,1)}} #eH1haCcf3VA4 {animation: eH1haCcf3VA4_c_o 3000ms linear infinite normal forwards}@keyframes eH1haCcf3VA4_c_o { 0% {opacity: 0} 16.666667% {opacity: 0} 20% {opacity: 1} 100% {opacity: 1}} #eH1haCcf3VA5_to {animation: eH1haCcf3VA5_to__to 3000ms linear infinite normal forwards}@keyframes eH1haCcf3VA5_to__to { 0% {transform: translate(134.497917px,92.470123px)} 16.666667% {transform: translate(134.497917px,92.470123px)} 20% {transform: translate(124.497917px,62.470123px)} 100% {transform: translate(124.497917px,62.470123px)}} #eH1haCcf3VA5_ts {animation: eH1haCcf3VA5_ts__ts 3000ms linear infinite normal forwards}@keyframes eH1haCcf3VA5_ts__ts { 0% {transform: scale(0.058962,0.068332)} 16.666667% {transform: scale(0.058962,0.068332)} 20% {transform: scale(1,1)} 100% {transform: scale(1,1)}} #eH1haCcf3VA5 {animation: eH1haCcf3VA5_c_o 3000ms linear infinite normal forwards}@keyframes eH1haCcf3VA5_c_o { 0% {opacity: 0} 16.666667% {opacity: 0} 20% {opacity: 1} 100% {opacity: 1}} #eH1haCcf3VA6_to {animation: eH1haCcf3VA6_to__to 3000ms linear infinite normal forwards}@keyframes eH1haCcf3VA6_to__to { 0% {transform: translate(146.687508px,91.699999px)} 16.666667% {transform: translate(146.687508px,91.699999px)} 20% {transform: translate(146.687508px,61.699999px)} 100% {transform: translate(146.687508px,61.699999px)}} #eH1haCcf3VA6_ts {animation: eH1haCcf3VA6_ts__ts 3000ms linear infinite normal forwards}@keyframes eH1haCcf3VA6_ts__ts { 0% {transform: scale(0.085665,-0.053493)} 16.666667% {transform: scale(0.085665,-0.053493)} 20% {transform: scale(1,1)} 100% {transform: scale(1,1)}} #eH1haCcf3VA6 {animation: eH1haCcf3VA6_c_o 3000ms linear infinite normal forwards}@keyframes eH1haCcf3VA6_c_o { 0% {opacity: 0} 16.666667% {opacity: 0} 20% {opacity: 1} 100% {opacity: 1}} #eH1haCcf3VA10_ts {animation: eH1haCcf3VA10_ts__ts 3000ms linear infinite normal forwards}@keyframes eH1haCcf3VA10_ts__ts { 0% {transform: translate(148.202488px,121.243515px) scale(1,1)} 16.666667% {transform: translate(148.202488px,121.243515px) scale(1,1)} 100% {transform: translate(148.202488px,121.243515px) scale(1,1)}} #eH1haCcf3VA12_to {animation: eH1haCcf3VA12_to__to 3000ms linear infinite normal forwards}@keyframes eH1haCcf3VA12_to__to { 0% {transform: translate(148.718529px,239.819503px)} 13.333333% {transform: translate(148.718529px,239.819503px)} 20% {transform: translate(148.202575px,147.917946px)} 100% {transform: translate(148.202575px,147.917946px)}} #eH1haCcf3VA12_ts {animation: eH1haCcf3VA12_ts__ts 3000ms linear infinite normal forwards}@keyframes eH1haCcf3VA12_ts__ts { 0% {transform: scale(4.054141,1)} 13.333333% {transform: scale(4.054141,1)} 20% {transform: scale(11.951809,8.319112)} 100% {transform: scale(11.951809,8.319112)}} #eH1haCcf3VA13_to {animation: eH1haCcf3VA13_to__to 3000ms linear infinite normal forwards}@keyframes eH1haCcf3VA13_to__to { 0% {transform: translate(254.396029px,228.296678px);animation-timing-function: cubic-bezier(0.39,0.575,0.565,1)} 13.333333% {transform: translate(184.352658px,168.487015px);animation-timing-function: cubic-bezier(0.39,0.575,0.565,1)} 16.666667% {transform: translate(201.599992px,168.487015px)} 100% {transform: translate(201.599992px,168.487015px)}} #eH1haCcf3VA13_ts {animation: eH1haCcf3VA13_ts__ts 3000ms linear infinite normal forwards}@keyframes eH1haCcf3VA13_ts__ts { 0% {transform: scale(0.497234,0.497235);animation-timing-function: cubic-bezier(0.39,0.575,0.565,1)} 13.333333% {transform: scale(1,1);animation-timing-function: cubic-bezier(0.39,0.575,0.565,1)} 16.666667% {transform: scale(1,1)} 100% {transform: scale(1,1)}} #eH1haCcf3VA13 {animation: eH1haCcf3VA13_c_o 3000ms linear infinite normal forwards}@keyframes eH1haCcf3VA13_c_o { 0% {opacity: 0;animation-timing-function: cubic-bezier(0.39,0.575,0.565,1)} 13.333333% {opacity: 1;animation-timing-function: cubic-bezier(0.39,0.575,0.565,1)} 16.666667% {opacity: 1} 100% {opacity: 1}} #eH1haCcf3VA14_to {animation: eH1haCcf3VA14_to__to 3000ms linear infinite normal forwards}@keyframes eH1haCcf3VA14_to__to { 0% {transform: translate(35.69094px,226.019244px);animation-timing-function: cubic-bezier(0.39,0.575,0.565,1)} 13.333333% {transform: translate(106.022344px,170.477642px);animation-timing-function: cubic-bezier(0.39,0.575,0.565,1)} 16.666667% {transform: translate(97.133446px,170.092308px)} 100% {transform: translate(97.133446px,170.092308px)}} #eH1haCcf3VA14_ts {animation: eH1haCcf3VA14_ts__ts 3000ms linear infinite normal forwards}@keyframes eH1haCcf3VA14_ts__ts { 0% {transform: scale(0.463546,0.463546);animation-timing-function: cubic-bezier(0.39,0.575,0.565,1)} 13.333333% {transform: scale(1,1);animation-timing-function: cubic-bezier(0.39,0.575,0.565,1)} 16.666667% {transform: scale(1,1)} 100% {transform: scale(1,1)}} #eH1haCcf3VA14 {animation: eH1haCcf3VA14_c_o 3000ms linear infinite normal forwards}@keyframes eH1haCcf3VA14_c_o { 0% {opacity: 0;animation-timing-function: cubic-bezier(0.39,0.575,0.565,1)} 13.333333% {opacity: 1;animation-timing-function: cubic-bezier(0.39,0.575,0.565,1)} 16.666667% {opacity: 1} 100% {opacity: 1}}
]]></style>
<g id="eH1haCcf3VA2_to" transform="translate(148.202488,141.329025)"><g id="eH1haCcf3VA2_ts" transform="scale(1,1)"><g id="eH1haCcf3VA2" transform="translate(-148.202488,-141.329025)"><g><g id="eH1haCcf3VA4_to" transform="translate(154.891953,91.581127)"><g id="eH1haCcf3VA4_ts" transform="scale(0.043318,0.010595)"><path id="eH1haCcf3VA4" d="M161.9,73.8c-2.4-.1-3.8-1-4.5-2.7-.8-1.7-.4-3.6,1.2-5c3.5-3.3,7.1-6.5,10.6-9.7c1.4-1.2,2.7-2.5,4.1-3.7c2-1.8,4.6-1.8,6.3.1s1.6,4.5-.5,6.4c-4.8,4.4-9.6,8.8-14.5,13.2-.9.7-2.1,1.1-2.7,1.4v0Z" transform="translate(-168.891953,-62.581127)" opacity="0" fill="#559cd5"/></g></g><g id="eH1haCcf3VA5_to" transform="translate(134.497917,92.470123)"><g id="eH1haCcf3VA5_ts" transform="scale(0.058962,0.068332)"><path id="eH1haCcf3VA5" d="M136.3,68.7c-.1,2.4-.9,3.8-2.6,4.6-1.8.8-3.4.5-4.8-.8-3.7-3.4-7.5-6.9-11.2-10.3-1.2-1.1-2.4-2.2-3.5-3.3-1.9-1.9-2-4.5-.3-6.3s4.2-1.9,6.2-.1c5,4.6,10,9.1,14.8,13.8.7.6,1.1,1.8,1.4,2.4v0Z" transform="translate(-124.497917,-62.470123)" opacity="0" fill="#559cd5"/></g></g><g id="eH1haCcf3VA6_to" transform="translate(146.687508,91.699999)"><g id="eH1haCcf3VA6_ts" transform="scale(0.085665,-0.053493)"><path id="eH1haCcf3VA6" d="M151,52.2c0,3.2,0,6.4,0,9.5c0,2.8-1.6,4.4-4.3,4.4-2.8,0-4.4-1.5-4.4-4.5c0-6.2,0-12.4.1-18.6c0-.3,0-.6,0-.8.1-2.9,2-4.9,4.4-4.9c2.4.1,4.2,2.3,4.2,5.1.1,3.3.1,6.5,0,9.8.1,0,0,0,0,0v0Z" transform="translate(-146.687508,-51.699999)" opacity="0" fill="#559cd5"/></g></g></g><g mask="url(#eH1haCcf3VA11)"><g><path d="M108.4,260.5c-2,2.4-4.1,4.9-5.9,7c10.3,3.8,20.9,6.2,31.9,7.2c23.7,2.3,46.4-1.3,68.2-11-2.6-2.5-5.5-4.6-7.8-6.1-28.4,11-57,11.9-86.4,2.9Z" transform="translate(.421581 0)" fill="#559cd5"/><g id="eH1haCcf3VA10_ts" transform="translate(148.202488,121.243515) scale(1,1)"><path d="M281.2,153.1c2.6-28.9-3.4-56.2-18.8-80.8C238,33.2,202.6,11.4,156.5,7.7c-23.6-1.9-46.2,2.8-67.4,13.2C36.4,46.7,6.5,103.8,15.3,161.4c3.7,24.3,13.3,46,29,64.9c2.6,3.1,5.4,6,8.2,8.9c1.8-2.5,3.4-5,4.8-7.3-10.6-11-18.9-23.4-24.8-37.4-10.4-24.7-12.8-50.2-7.1-76.3C37,61.8,80.9,22.7,133.6,16.8c56.3-6.3,106.7,25.2,128.3,73c21.5,47.5,10,100-19.2,133-.1-.1-.2-.3-.3-.4.9,4,2.9,6.7,5,8.5.1-.1.1-.1.2-.2c19.6-22.3,31-48.1,33.6-77.6Z" transform="translate(-147.780907,-121.243515)" fill="#559cd5"/></g></g><mask id="eH1haCcf3VA11" mask-type="luminance" x="-150%" y="-150%" height="400%" width="400%"><g id="eH1haCcf3VA12_to" transform="translate(148.718529,239.819503)"><g id="eH1haCcf3VA12_ts" transform="scale(4.054141,1)"><ellipse rx="20.172973" ry="17.780497" transform="translate(0,0)" fill="#d2dbed" stroke-width="0"/></g></g></mask></g><g id="eH1haCcf3VA13_to" transform="translate(254.396029,228.296678)"><g id="eH1haCcf3VA13_ts" transform="scale(0.497234,0.497235)"><path id="eH1haCcf3VA13" d="M242.5,222.4c-2-2.5-3.5-5.3-3.9-8.3-.7-4.9-.9-10-1.2-15c0-.5.4-1.1.8-1.5c7.7-6.4,11.4-14.6,11.4-24.5c0-10.7-.1-21.5.1-32.2.2-8.3-6.1-15-13.9-16.1-.4-.1-.8-.1-1.3-.2c0-.8,0-1.6,0-2.3-.1-6.1.2-12.2-.3-18.2-.7-8.4-8.3-14.1-16.3-12.8-.2,0-.3,0-.7-.1c0-1.2.1-2.4,0-3.6-.5-5.6-2.9-10.1-8.1-12.6-4.8-2.3-9.5-2-14,.9-.6.4-1.2.7-1.6,1.2-1.2,1.7-2.7,1.8-4.7,1.5C181,77,173.3,82.3,171.5,90c-.1.7-.3,1.3-.5,2.1-.5,0-1.1.1-1.6.1-7.6,0-15.9,6.4-15.8,16.1.3,20.8.1,41.6.1,62.4c0,15.8,10.3,29.1,25.5,32.9c1.1.3,2.3.6,3.5.6c1.1.1,1.4.6,1.5,1.7.4,6.4.7,12.8,1.4,19.2c1.3,10.9,4.5,21.3,9.8,30.9.1.2.2.5.5,1-.3.1-.7.3-1,.4c2.3,1.5,5.1,3.6,7.8,6.1.2-.1.3-.1.5-.2c3.8-1.7,4.5-4.1,2.2-7.6-4.4-6.8-7.5-14.2-9.4-22.1-2.6-10.7-3.1-21.5-3.2-32.4c0-3.7-1.5-5.2-5.2-5.2-12.2-.2-22.5-8-24.5-19.8-1.1-6.3-.8-12.8-.4-19.2.4-5.2,3.9-8.4,9-9.6c1.6-.4,3.2-.4,4.8-.4c10.7,0,21.5,0,32.2,0c4.1,0,5.6-1.5,5.6-5.5c0-11.5,0-22.9,0-34.4c0-1.4.3-2.9.8-4.2.9-2.2,2.7-3.2,5-3.2s4,1.1,4.9,3.2c.5,1.2.7,2.5.8,3.7.1,6.1,0,12.3.1,18.4c0,1-.4,1.5-1.2,2.1-4.9,3.2-7.6,7.7-7.5,13.7.1,4.7,0,9.4,0,14.1c0,3,1.7,4.9,4.3,5c2.6,0,4.4-2,4.4-5c0-5,0-9.9,0-14.9c0-3.7,3.6-6.8,7.6-6.8s7.5,3.1,7.5,6.8c0,11.6.1,23.1-.1,34.7-.2,13.2-12.9,23.2-25.9,20.6-10.5-2.1-17.9-10.7-18.3-21.4-.1-1.6-.6-3-1.9-3.9-1.4-1-3-1-4.5-.2-1.6.9-2.3,2.3-2.3,4.2-.1,15.1,13,29.2,28.2,30.3c4.2.3,8.2-.2,12.3-1.4c0,0,0,0,0,0v0c0,0,0,0,0,0c.1.3.2.4.2.5c0,.6.1,1.2.1,1.8.1,5.8.7,11.6,3.5,16.7c2.1,3.8,4.8,7.3,7.4,10.7c1.5,2,4.9,1.6,6.5-.3.4-.5.8-1,1.2-1.5-2-1.7-4-4.4-4.9-8.4Zm-71.6-84v0c-2.9,1.1-5.6,2.2-8.4,3.3c0-.4-.1-.8-.1-1.3c0-10.8,0-21.7,0-32.5c0-4.5,3.9-7.7,8.5-6.9v37.4Zm17.4-1.7c0,.4,0,.9,0,1.5h-8.5c-.1-.5-.1-.9-.1-1.4c0-14.2,0-28.5,0-42.7c0-4.4,3.3-7.6,7.4-7.2.8.1,1.3.2,1.3,1.3-.1,16.1-.1,32.3-.1,48.5Zm19-37.5c-1,2.3-1.5,4.9-1.6,7.4-.2,9.8-.1,19.7-.1,29.5c0,.6,0,1.2,0,2v0h-8.6c0-.6,0-1.2,0-1.8c0-15.7,0-31.4,0-47.1c0-1,.1-2.1.4-3.1.7-2.7,2.8-4.1,5.4-4.1s4.5,1.5,5.3,4.1c.3.8.4,1.8.4,2.6.1,1.6,0,3.2,0,4.9c0,2-.4,3.8-1.2,5.6Z" transform="translate(-201.651871,-168.487015)" opacity="0" fill="#559cd5"/></g></g><g id="eH1haCcf3VA14_to" transform="translate(35.69094,226.019244)"><g id="eH1haCcf3VA14_ts" transform="scale(0.463546,0.463546)"><path id="eH1haCcf3VA14" d="M108.3,260.4v0c3.9-5.8,6.9-11.6,9-17.9c4-11.5,5.1-23.4,5.1-35.5c0-1.4-.7-3.1-.1-4.1.5-.9,2.4-.9,3.6-1.3c5.2-1.9,8.8-5.8,12.1-10c4.3-5.5,6.4-11.8,6.3-18.8-.1-10.5-.2-21,.1-31.5.3-9.2-5.4-15.7-13.9-17.1c0-.5,0-1.1,0-1.7c0-6,.1-12.1,0-18.1-.1-7.1-5.4-13-12.3-13.9-1.5-.2-3.1,0-4.9,0c0-1,0-2,0-2.9-.3-7-4.6-12.7-11-14.1-5.3-1.2-10,.2-13.7,4.2-.6.7-1.1,1.1-2.1.8-9.3-2-17.5,3.5-19.2,12.8c0,.3-.1.5-.2,1-1,0-2,0-3,0-8.2.2-14.2,6.2-14.2,14.5-.1,12.5,0,24.9,0,37.4c0,8.6-.1,17.1,0,25.7.2,13.6,6,24,17.9,30.8.5.3,1,1,1,1.4-.3,10.1-3.2,19.1-11.1,26.3-.1-.1-.3-.3-.4-.4-1.4,2.3-3,4.8-4.8,7.3.9.9,1.8,1.8,2.7,2.7c2,1.9,2.6,1.7,4.8,0c4.5-3.5,8.3-7.6,11.3-12.5c4.9-8.2,6.2-17.1,6.3-26.4c0-2.5-1-4-3.3-5-10.3-4.5-15.6-12.6-15.7-23.8-.2-21,0-41.9,0-62.9c0-5,3.7-7.7,8.7-6.2c0,.5,0,1.1,0,1.6c0,10.7,0,21.5,0,32.2c0,2.8,1.8,4.8,4.3,4.8s4.3-2,4.4-4.7c0-.5,0-1,0-1.5c0-13.1,0-26.2,0-39.2c0-.7,0-1.3.1-2c.5-3.9,5.4-6.9,8.5-5.2c0,.7,0,1.5,0,2.2c0,15,0,30.1,0,45.1c0,.6,0,1.2.1,1.8.3,1.7,1.3,2.8,3,3.3c3,.9,5.6-1.2,5.6-4.6c0-15.2,0-30.4,0-45.6c0-1,.1-2.1.3-3.2.7-2.9,3.1-4.7,5.8-4.6s5,2.3,5.2,5.2c.2,2.2.1,4.5.2,6.7.1,1.7-.2,3.2-1.1,4.7-.8,1.4-1.4,3-1.5,4.6-.3,4.2-.3,8.5-.3,12.7c0,6.5,0,13.1,0,19.6c0,1.8.7,3.2,2.4,4.1c1.5.8,2.9.7,4.3-.2c1.5-1,2-2.5,2-4.3c0-9.6,0-19.2,0-28.8c0-2.4.7-4.6,2.7-6c1.7-1.1,3.6-1.4,5.4-.4c2.1,1.1,3.3,2.8,3.3,5.2c0,6.6,0,13.3,0,19.9c0,.6-.6,1.4-1.1,1.7-4.7,3.1-7.3,7.4-7.4,13.1-.1,5.2,0,10.4,0,15.6c0,.7.1,1.5.4,2.1.7,1.9,2.8,3,4.7,2.6c2.1-.4,3.5-2.1,3.5-4.3c0-5.2,0-10.4,0-15.6c0-4.1,2.9-7.1,6.8-7.2c4,0,7,3,7,7.2c0,11.1,0,22.1,0,33.2c0,5.2-1.8,9.8-5.1,13.9-3.2,3.9-6.8,7.1-12.2,7.5-.4,0-.7.2-1.1.3-3.4,1-4.2,2-4.2,5.6.1,5.3.4,10.6.2,15.9-.6,15.9-4.9,30.5-15.1,43-2.2,2.7-1.2,5.9,2,7.1.7.3,1.4.5,2.1.8c1.8-2.1,3.9-4.6,5.9-7c0,.4-.1.3-.1.3Z" transform="translate(-97.133446,-170.092308)" opacity="0" fill="#559cd5"/></g></g><path d="M228.5,202.9c0,0,0,0,0,0s0,0,0,0v0Z" transform="matrix(1.106676 0 0 1.106676-24.375466-21.64456)" fill="#559cd5"/></g></g></g></svg>
