<svg xmlns="http://www.w3.org/2000/svg" xmlns:xlink="http://www.w3.org/1999/xlink" viewBox="0 0 288 288"><defs><style>.cls-1{fill:none;}.cls-2{opacity:0.2;}.cls-3{clip-path:url(#clip-path);}.cls-4{fill:#fff;}</style><clipPath id="clip-path"><rect class="cls-1" width="288" height="288"/></clipPath></defs><g id="Layer_1" data-name="Layer 1"><g class="cls-2"><g class="cls-3"><path class="cls-4" d="M146,141.82a2,2,0,1,0-2,2A2,2,0,0,0,146,141.82Z"/><path class="cls-4" d="M145.47,127.42a1.48,1.48,0,1,0-1.48,1.47A1.48,1.48,0,0,0,145.47,127.42Z"/><path class="cls-4" d="M159.72,137.37a2,2,0,1,0-2,2A2,2,0,0,0,159.72,137.37Z"/><path class="cls-4" d="M155,153.47a2.52,2.52,0,1,0-2.52,2.51A2.52,2.52,0,0,0,155,153.47Z"/><path class="cls-4" d="M138,153.47a2.48,2.48,0,1,0-2.47,2.47A2.48,2.48,0,0,0,138,153.47Z"/><path class="cls-4" d="M132.25,137.37a2,2,0,1,0-2,1.95A2,2,0,0,0,132.25,137.37Z"/><path class="cls-4" d="M145,113a1,1,0,1,0-1,1A1,1,0,0,0,145,113Z"/><circle class="cls-4" cx="160.92" cy="118.52" r="1.04"/><path class="cls-4" d="M172.86,132.92a1.48,1.48,0,1,0-1.48,1.47A1.48,1.48,0,0,0,172.86,132.92Z"/><circle class="cls-4" cx="171.38" cy="150.72" r="2.52"/><path class="cls-4" d="M164,165.12a3.08,3.08,0,1,0-3.07,3.07A3.07,3.07,0,0,0,164,165.12Z"/><path class="cls-4" d="M147.06,170.62a3.07,3.07,0,1,0-3.07,3.07A3.07,3.07,0,0,0,147.06,170.62Z"/><path class="cls-4" d="M130.06,165.12a3,3,0,1,0-3,3A3,3,0,0,0,130.06,165.12Z"/><path class="cls-4" d="M119,150.72a2.36,2.36,0,1,0-2.36,2.35A2.36,2.36,0,0,0,119,150.72Z"/><path class="cls-4" d="M118,132.92a1.36,1.36,0,1,0-1.36,1.35A1.36,1.36,0,0,0,118,132.92Z"/><circle class="cls-4" cx="127.06" cy="118.52" r="0.96"/><path class="cls-4" d="M144.55,98.62a.56.56,0,1,0-.56.56A.56.56,0,0,0,144.55,98.62Z"/><path class="cls-4" d="M162.12,102.35a.56.56,0,1,0-.56.56A.56.56,0,0,0,162.12,102.35Z"/><path class="cls-4" d="M177.09,112.91a1,1,0,1,0-1,1A1,1,0,0,0,177.09,112.91Z"/><path class="cls-4" d="M186.43,128.47a1.36,1.36,0,1,0-1.35,1.35A1.35,1.35,0,0,0,186.43,128.47Z"/><path class="cls-4" d="M188.83,146.33a1.88,1.88,0,1,0-1.88,1.88A1.88,1.88,0,0,0,188.83,146.33Z"/><path class="cls-4" d="M184.32,163.42a2.92,2.92,0,1,0-2.92,2.91A2.92,2.92,0,0,0,184.32,163.42Z"/><path class="cls-4" d="M172.42,176.77a3,3,0,1,0-3,3A3,3,0,0,0,172.42,176.77Z"/><path class="cls-4" d="M156.6,184.07a3.63,3.63,0,1,0-3.63,3.64A3.63,3.63,0,0,0,156.6,184.07Z"/><circle class="cls-4" cx="135.01" cy="184.07" r="3.55"/><path class="cls-4" d="M121.47,176.77a2.88,2.88,0,1,0-2.87,2.87A2.87,2.87,0,0,0,121.47,176.77Z"/><path class="cls-4" d="M109.25,163.42a2.68,2.68,0,1,0-2.67,2.67A2.67,2.67,0,0,0,109.25,163.42Z"/><circle class="cls-4" cx="101.03" cy="146.33" r="1.72"/><path class="cls-4" d="M104.14,128.47a1.24,1.24,0,1,0-1.24,1.24A1.23,1.23,0,0,0,104.14,128.47Z"/><path class="cls-4" d="M112.76,112.91a.88.88,0,1,0-.87.88A.88.88,0,0,0,112.76,112.91Z"/><path class="cls-4" d="M127,102.35a.56.56,0,1,0-.56.56A.56.56,0,0,0,127,102.35Z"/><path class="cls-4" d="M144.15,84.22a.16.16,0,1,0-.16.16A.16.16,0,0,0,144.15,84.22Z"/><path class="cls-4" d="M162,87a.2.2,0,1,0-.2.2A.2.2,0,0,0,162,87Z"/><path class="cls-4" d="M178.41,95.22a.57.57,0,0,0-.56-.56.56.56,0,0,0,0,1.12A.57.57,0,0,0,178.41,95.22Z"/><path class="cls-4" d="M191.51,108a.92.92,0,1,0-.92.92A.92.92,0,0,0,191.51,108Z"/><path class="cls-4" d="M200.05,124a1.28,1.28,0,1,0-1.28,1.28A1.28,1.28,0,0,0,200.05,124Z"/><path class="cls-4" d="M203.35,141.82a1.76,1.76,0,1,0-1.76,1.75A1.76,1.76,0,0,0,203.35,141.82Z"/><path class="cls-4" d="M201,159.62a2.24,2.24,0,1,0-2.24,2.23A2.24,2.24,0,0,0,201,159.62Z"/><path class="cls-4" d="M193.5,175.67a2.92,2.92,0,1,0-2.91,2.92A2.91,2.91,0,0,0,193.5,175.67Z"/><path class="cls-4" d="M181.44,188.42a3.6,3.6,0,1,0-3.59,3.59A3.6,3.6,0,0,0,181.44,188.42Z"/><path class="cls-4" d="M166,196.6a4.23,4.23,0,1,0-4.23,4.23A4.23,4.23,0,0,0,166,196.6Z"/><path class="cls-4" d="M148.18,199.42a4.19,4.19,0,1,0-4.19,4.19A4.19,4.19,0,0,0,148.18,199.42Z"/><path class="cls-4" d="M130.3,196.6a4.11,4.11,0,1,0-4.11,4.11A4.12,4.12,0,0,0,130.3,196.6Z"/><path class="cls-4" d="M113.53,188.42a3.4,3.4,0,1,0-3.4,3.39A3.4,3.4,0,0,0,113.53,188.42Z"/><circle class="cls-4" cx="97.39" cy="175.67" r="2.68"/><path class="cls-4" d="M91.21,159.62a2,2,0,1,0-2,2A2,2,0,0,0,91.21,159.62Z"/><path class="cls-4" d="M87.91,141.82a1.52,1.52,0,1,0-1.52,1.51A1.52,1.52,0,0,0,87.91,141.82Z"/><path class="cls-4" d="M90.29,124a1.08,1.08,0,1,0-1.08,1.08A1.08,1.08,0,0,0,90.29,124Z"/><path class="cls-4" d="M98.15,108a.76.76,0,1,0-.76.76A.76.76,0,0,0,98.15,108Z"/><path class="cls-4" d="M110.61,95.22a.47.47,0,0,0-.48-.48.48.48,0,0,0-.48.48.49.49,0,0,0,.48.48A.48.48,0,0,0,110.61,95.22Z"/><path class="cls-4" d="M126.35,87a.16.16,0,1,0-.32,0,.16.16,0,1,0,.32,0Z"/><path class="cls-4" d="M178.84,78.72a.16.16,0,0,0-.16-.16.16.16,0,0,0,0,.32A.16.16,0,0,0,178.84,78.72Z"/><path class="cls-4" d="M193.4,89.33a.13.13,0,0,0-.12-.12.12.12,0,0,0-.12.12.12.12,0,0,0,.12.12A.12.12,0,0,0,193.4,89.33Z"/><path class="cls-4" d="M205.18,103.24a.4.4,0,1,0-.4.4A.4.4,0,0,0,205.18,103.24Z"/><path class="cls-4" d="M213.62,119.57a1.16,1.16,0,1,0-1.15,1.16A1.15,1.15,0,0,0,213.62,119.57Z"/><path class="cls-4" d="M217.44,137.3a1.6,1.6,0,1,0-1.59,1.59A1.59,1.59,0,0,0,217.44,137.3Z"/><path class="cls-4" d="M216.75,155.31a2,2,0,1,0-2,2A2,2,0,0,0,216.75,155.31Z"/><path class="cls-4" d="M211.89,172.47a2.76,2.76,0,1,0-2.75,2.76A2.75,2.75,0,0,0,211.89,172.47Z"/><path class="cls-4" d="M202.74,187.71a3.28,3.28,0,1,0-3.27,3.28A3.27,3.27,0,0,0,202.74,187.71Z"/><path class="cls-4" d="M190.34,200.07a4,4,0,1,0-4,4A4,4,0,0,0,190.34,200.07Z"/><path class="cls-4" d="M175.21,208.76a4.72,4.72,0,1,0-4.72,4.71A4.71,4.71,0,0,0,175.21,208.76Z"/><path class="cls-4" d="M157.81,213.25A4.8,4.8,0,1,0,153,218,4.79,4.79,0,0,0,157.81,213.25Z"/><path class="cls-4" d="M139.68,213.25A4.72,4.72,0,1,0,135,218,4.71,4.71,0,0,0,139.68,213.25Z"/><path class="cls-4" d="M122,208.76a4.48,4.48,0,1,0-4.48,4.47A4.48,4.48,0,0,0,122,208.76Z"/><path class="cls-4" d="M105.38,200.07a3.71,3.71,0,1,0-3.71,3.71A3.72,3.72,0,0,0,105.38,200.07Z"/><path class="cls-4" d="M91.43,187.71a2.92,2.92,0,1,0-2.92,2.92A2.91,2.91,0,0,0,91.43,187.71Z"/><path class="cls-4" d="M81,172.47a2.16,2.16,0,1,0-2.16,2.16A2.16,2.16,0,0,0,81,172.47Z"/><path class="cls-4" d="M75,155.31a1.76,1.76,0,1,0-1.75,1.75A1.75,1.75,0,0,0,75,155.31Z"/><path class="cls-4" d="M73.45,137.3a1.32,1.32,0,1,0-1.32,1.31A1.32,1.32,0,0,0,73.45,137.3Z"/><path class="cls-4" d="M76.39,119.57a.88.88,0,1,0-.88.88A.87.87,0,0,0,76.39,119.57Z"/><path class="cls-4" d="M83.48,103.24a.28.28,0,0,0-.28-.28.27.27,0,0,0-.28.28.28.28,0,0,0,.28.28A.29.29,0,0,0,83.48,103.24Z"/><path class="cls-4" d="M109.38,78.72a.08.08,0,0,0-.08-.08.09.09,0,0,0-.08.08.08.08,0,0,0,.08.08A.07.07,0,0,0,109.38,78.72Z"/><path class="cls-4" d="M208.28,84a.09.09,0,0,0-.08-.08.08.08,0,0,0-.08.08.07.07,0,0,0,.08.08A.08.08,0,0,0,208.28,84Z"/><path class="cls-4" d="M219.09,98.62a.27.27,0,0,0-.28-.28.28.28,0,0,0-.28.28.29.29,0,0,0,.28.28A.28.28,0,0,0,219.09,98.62Z"/><path class="cls-4" d="M226.72,115.12a.56.56,0,1,0-.56.56A.56.56,0,0,0,226.72,115.12Z"/><path class="cls-4" d="M230.87,132.79a1,1,0,1,0-1,1A1,1,0,0,0,230.87,132.79Z"/><circle class="cls-4" cx="229.92" cy="150.85" r="1.84"/><path class="cls-4" d="M228.44,168.52a2.28,2.28,0,1,0-2.28,2.27A2.28,2.28,0,0,0,228.44,168.52Z"/><path class="cls-4" d="M221.85,185a3,3,0,1,0-3,3A3,3,0,0,0,221.85,185Z"/><path class="cls-4" d="M212,199.63a3.8,3.8,0,1,0-3.79,3.79A3.79,3.79,0,0,0,212,199.63Z"/><path class="cls-4" d="M199.33,211.72a4.56,4.56,0,1,0-4.56,4.55A4.56,4.56,0,0,0,199.33,211.72Z"/><path class="cls-4" d="M184.44,220.75a5.31,5.31,0,1,0-5.31,5.31A5.31,5.31,0,0,0,184.44,220.75Z"/><path class="cls-4" d="M167.38,226.33a5.43,5.43,0,1,0-5.43,5.43A5.43,5.43,0,0,0,167.38,226.33Z"/><path class="cls-4" d="M149.38,228.22a5.39,5.39,0,1,0-5.39,5.39A5.39,5.39,0,0,0,149.38,228.22Z"/><path class="cls-4" d="M131.26,226.33a5.23,5.23,0,1,0-5.23,5.23A5.23,5.23,0,0,0,131.26,226.33Z"/><path class="cls-4" d="M113.56,220.75a4.71,4.71,0,1,0-4.71,4.71A4.71,4.71,0,0,0,113.56,220.75Z"/><path class="cls-4" d="M97.08,211.72a3.88,3.88,0,1,0-3.87,3.87A3.88,3.88,0,0,0,97.08,211.72Z"/><path class="cls-4" d="M82.86,199.63a3.08,3.08,0,1,0-3.08,3.07A3.07,3.07,0,0,0,82.86,199.63Z"/><path class="cls-4" d="M71.8,185a2.64,2.64,0,1,0-2.63,2.63A2.64,2.64,0,0,0,71.8,185Z"/><path class="cls-4" d="M63.7,168.52a1.88,1.88,0,1,0-1.88,1.87A1.88,1.88,0,0,0,63.7,168.52Z"/><path class="cls-4" d="M59.54,150.85a1.48,1.48,0,1,0-1.48,1.48A1.48,1.48,0,0,0,59.54,150.85Z"/><circle class="cls-4" cx="58.06" cy="132.79" r="0.68"/><path class="cls-4" d="M62.14,115.12a.32.32,0,0,0-.32-.32.32.32,0,0,0-.32.32.32.32,0,0,0,.32.32A.33.33,0,0,0,62.14,115.12Z"/><path class="cls-4" d="M69.32,98.62a.16.16,0,0,0-.15-.16.16.16,0,0,0,0,.32A.16.16,0,0,0,69.32,98.62Z"/><path class="cls-4" d="M233,94.05a.2.2,0,1,0-.2.2A.2.2,0,0,0,233,94.05Z"/><path class="cls-4" d="M240.22,110.67a.36.36,0,0,0-.36-.36.36.36,0,1,0,0,.72A.36.36,0,0,0,240.22,110.67Z"/><path class="cls-4" d="M244.64,128.29a.76.76,0,1,0-1.52,0,.76.76,0,0,0,1.52,0Z"/><path class="cls-4" d="M245.85,146.34a1.16,1.16,0,1,0-1.16,1.16A1.16,1.16,0,0,0,245.85,146.34Z"/><path class="cls-4" d="M244.26,164.25a2,2,0,1,0-2,2A2,2,0,0,0,244.26,164.25Z"/><path class="cls-4" d="M239.39,181.43a2.72,2.72,0,1,0-2.71,2.72A2.71,2.71,0,0,0,239.39,181.43Z"/><path class="cls-4" d="M231.31,197.35a3.2,3.2,0,1,0-3.2,3.19A3.2,3.2,0,0,0,231.31,197.35Z"/><path class="cls-4" d="M220.84,211.48a4,4,0,1,0-4,4A4,4,0,0,0,220.84,211.48Z"/><path class="cls-4" d="M208,223.37a4.79,4.79,0,1,0-4.79,4.79A4.8,4.8,0,0,0,208,223.37Z"/><path class="cls-4" d="M192.8,232.63a5.08,5.08,0,1,0-5.07,5.08A5.07,5.07,0,0,0,192.8,232.63Z"/><path class="cls-4" d="M176.72,239a5.91,5.91,0,1,0-5.91,5.91A5.92,5.92,0,0,0,176.72,239Z"/><path class="cls-4" d="M159.05,242.21a6,6,0,1,0-6,6A6,6,0,0,0,159.05,242.21Z"/><circle class="cls-4" cx="134.95" cy="242.21" r="5.83"/><path class="cls-4" d="M122.68,239a5.51,5.51,0,1,0-5.51,5.51A5.51,5.51,0,0,0,122.68,239Z"/><path class="cls-4" d="M105,232.63a4.72,4.72,0,1,0-4.72,4.72A4.71,4.71,0,0,0,105,232.63Z"/><path class="cls-4" d="M89.05,223.37a4.31,4.31,0,1,0-4.31,4.31A4.31,4.31,0,0,0,89.05,223.37Z"/><path class="cls-4" d="M74.65,211.48A3.52,3.52,0,1,0,71.13,215,3.52,3.52,0,0,0,74.65,211.48Z"/><path class="cls-4" d="M62.54,197.35A2.68,2.68,0,1,0,59.86,200,2.68,2.68,0,0,0,62.54,197.35Z"/><path class="cls-4" d="M53.26,181.43a2,2,0,1,0-2,2A2,2,0,0,0,53.26,181.43Z"/><path class="cls-4" d="M47.31,164.25a1.6,1.6,0,1,0-1.59,1.59A1.59,1.59,0,0,0,47.31,164.25Z"/><path class="cls-4" d="M44.13,146.34a.84.84,0,1,0-.84.84A.85.85,0,0,0,44.13,146.34Z"/><path class="cls-4" d="M44.58,128.29a.47.47,0,0,0-.48-.48.48.48,0,0,0-.48.48.49.49,0,0,0,.48.48A.48.48,0,0,0,44.58,128.29Z"/><path class="cls-4" d="M48.28,110.67a.16.16,0,0,0-.16-.16.16.16,0,1,0,0,.32A.16.16,0,0,0,48.28,110.67Z"/><path class="cls-4" d="M253.75,106.22a.2.2,0,1,0-.2.2A.2.2,0,0,0,253.75,106.22Z"/><path class="cls-4" d="M258.33,123.8a.56.56,0,1,0-.56.55A.56.56,0,0,0,258.33,123.8Z"/><path class="cls-4" d="M260.11,141.82a.92.92,0,1,0-.92.91A.92.92,0,0,0,260.11,141.82Z"/><path class="cls-4" d="M259.05,159.84a1.28,1.28,0,0,0-2.56,0,1.28,1.28,0,0,0,2.56,0Z"/><path class="cls-4" d="M255.59,177.42a2,2,0,1,0-2,2A2,2,0,0,0,255.59,177.42Z"/><path class="cls-4" d="M249.47,194.12a2.84,2.84,0,1,0-2.84,2.83A2.84,2.84,0,0,0,249.47,194.12Z"/><path class="cls-4" d="M240.78,209.53a3.6,3.6,0,1,0-3.59,3.59A3.59,3.59,0,0,0,240.78,209.53Z"/><path class="cls-4" d="M229.48,223.28a4,4,0,1,0-4,4A4,4,0,0,0,229.48,223.28Z"/><path class="cls-4" d="M216.53,235a4.83,4.83,0,1,0-4.83,4.83A4.84,4.84,0,0,0,216.53,235Z"/><path class="cls-4" d="M201.56,244.46a5.27,5.27,0,1,0-5.27,5.27A5.27,5.27,0,0,0,201.56,244.46Z"/><path class="cls-4" d="M186.06,251.38a6.47,6.47,0,1,0-6.47,6.47A6.47,6.47,0,0,0,186.06,251.38Z"/><path class="cls-4" d="M168.68,255.6a6.67,6.67,0,1,0-6.67,6.67A6.67,6.67,0,0,0,168.68,255.6Z"/><circle class="cls-4" cx="143.99" cy="257.02" r="6.63"/><path class="cls-4" d="M132.36,255.6A6.39,6.39,0,1,0,126,262,6.39,6.39,0,0,0,132.36,255.6Z"/><path class="cls-4" d="M113.9,251.38a5.51,5.51,0,1,0-5.51,5.51A5.51,5.51,0,0,0,113.9,251.38Z"/><path class="cls-4" d="M96.4,244.46a4.71,4.71,0,1,0-4.71,4.71A4.71,4.71,0,0,0,96.4,244.46Z"/><path class="cls-4" d="M80.51,235a4.24,4.24,0,1,0-4.23,4.23A4.24,4.24,0,0,0,80.51,235Z"/><path class="cls-4" d="M66,223.28a3.43,3.43,0,1,0-3.43,3.43A3.43,3.43,0,0,0,66,223.28Z"/><path class="cls-4" d="M53.47,209.53a2.68,2.68,0,1,0-2.68,2.67A2.68,2.68,0,0,0,53.47,209.53Z"/><path class="cls-4" d="M43.66,194.12a2.32,2.32,0,1,0-2.31,2.31A2.32,2.32,0,0,0,43.66,194.12Z"/><path class="cls-4" d="M36,177.42A1.6,1.6,0,1,0,34.43,179,1.59,1.59,0,0,0,36,177.42Z"/><path class="cls-4" d="M31.09,159.84a.88.88,0,1,0-.88.88A.88.88,0,0,0,31.09,159.84Z"/><path class="cls-4" d="M29.35,141.82a.56.56,0,1,0-.56.56A.56.56,0,0,0,29.35,141.82Z"/><path class="cls-4" d="M30.45,123.8a.24.24,0,1,0-.24.23A.24.24,0,0,0,30.45,123.8Z"/><path class="cls-4" d="M271.94,119.31a.32.32,0,1,0-.64,0,.32.32,0,1,0,.64,0Z"/><path class="cls-4" d="M274.15,137.29a.64.64,0,1,0-1.28,0,.64.64,0,1,0,1.28,0Z"/><path class="cls-4" d="M273.88,155.36a1,1,0,1,0-1,1A1,1,0,0,0,273.88,155.36Z"/><path class="cls-4" d="M271.1,173.17a1.36,1.36,0,1,0-1.36,1.36A1.36,1.36,0,0,0,271.1,173.17Z"/><path class="cls-4" d="M266.19,190.37a2,2,0,1,0-2,2A2,2,0,0,0,266.19,190.37Z"/><path class="cls-4" d="M259,206.62a2.8,2.8,0,1,0-2.79,2.79A2.79,2.79,0,0,0,259,206.62Z"/><path class="cls-4" d="M249.67,221.61a3.56,3.56,0,1,0-3.55,3.55A3.55,3.55,0,0,0,249.67,221.61Z"/><path class="cls-4" d="M238.41,235a4.4,4.4,0,1,0-4.39,4.4A4.4,4.4,0,0,0,238.41,235Z"/><path class="cls-4" d="M225,246.67a4.84,4.84,0,1,0-4.83,4.83A4.84,4.84,0,0,0,225,246.67Z"/><path class="cls-4" d="M210.54,256.25a5.71,5.71,0,1,0-5.71,5.71A5.7,5.7,0,0,0,210.54,256.25Z"/><path class="cls-4" d="M194.9,263.6a6.59,6.59,0,1,0-6.58,6.59A6.59,6.59,0,0,0,194.9,263.6Z"/><path class="cls-4" d="M177.92,268.58a7,7,0,1,0-7,7A7,7,0,0,0,177.92,268.58Z"/><circle class="cls-4" cx="153.03" cy="271.1" r="7.27" transform="translate(-7.07 4.11) rotate(-1.51)"/><path class="cls-4" d="M141.82,271.1A6.87,6.87,0,1,0,135,278,6.88,6.88,0,0,0,141.82,271.1Z"/><path class="cls-4" d="M123.47,268.58A6.43,6.43,0,1,0,117,275,6.42,6.42,0,0,0,123.47,268.58Z"/><path class="cls-4" d="M105.53,263.6a5.87,5.87,0,1,0-5.87,5.87A5.87,5.87,0,0,0,105.53,263.6Z"/><path class="cls-4" d="M88.22,256.25a5.07,5.07,0,1,0-5.07,5.07A5.07,5.07,0,0,0,88.22,256.25Z"/><path class="cls-4" d="M72.05,246.67a4.24,4.24,0,1,0-4.24,4.23A4.24,4.24,0,0,0,72.05,246.67Z"/><path class="cls-4" d="M57.72,235A3.76,3.76,0,1,0,54,238.8,3.75,3.75,0,0,0,57.72,235Z"/><path class="cls-4" d="M44.82,221.61a3,3,0,1,0-3,2.95A3,3,0,0,0,44.82,221.61Z"/><path class="cls-4" d="M34,206.62a2.2,2.2,0,1,0-2.2,2.19A2.19,2.19,0,0,0,34,206.62Z"/><path class="cls-4" d="M25.42,190.37A1.6,1.6,0,1,0,23.83,192,1.59,1.59,0,0,0,25.42,190.37Z"/><path class="cls-4" d="M19.12,173.17a.88.88,0,1,0-.88.88A.88.88,0,0,0,19.12,173.17Z"/><path class="cls-4" d="M15.7,155.36a.6.6,0,0,0-1.2,0,.6.6,0,0,0,1.2,0Z"/><path class="cls-4" d="M14.75,137.29a.29.29,0,0,0-.28-.28.28.28,0,0,0-.28.28.27.27,0,0,0,.28.28A.28.28,0,0,0,14.75,137.29Z"/><path class="cls-4" d="M16.4,119.31a0,0,0,0,0-.08,0,0,0,0,0,0,.08,0A0,0,0,0,0,16.4,119.31Z"/><circle class="cls-4" cx="287.71" cy="132.77" r="0.08"/><circle class="cls-4" cx="287.71" cy="150.86" r="0.68"/><path class="cls-4" d="M286.44,168.8a1,1,0,1,0-1,1A1,1,0,0,0,286.44,168.8Z"/><path class="cls-4" d="M282.66,186.31a1.72,1.72,0,1,0-1.72,1.72A1.72,1.72,0,0,0,282.66,186.31Z"/><path class="cls-4" d="M276.32,203.13a2,2,0,1,0-2,2A2,2,0,0,0,276.32,203.13Z"/><path class="cls-4" d="M268.37,219a2.8,2.8,0,1,0-2.8,2.79A2.8,2.8,0,0,0,268.37,219Z"/><path class="cls-4" d="M258.06,233.61a3.12,3.12,0,1,0-3.12,3.11A3.12,3.12,0,0,0,258.06,233.61Z"/><path class="cls-4" d="M246.44,246.79a3.88,3.88,0,1,0-3.88,3.87A3.88,3.88,0,0,0,246.44,246.79Z"/><path class="cls-4" d="M233.34,258.31a4.71,4.71,0,1,0-4.71,4.72A4.71,4.71,0,0,0,233.34,258.31Z"/><path class="cls-4" d="M218.87,268a5.51,5.51,0,1,0-5.51,5.51A5.51,5.51,0,0,0,218.87,268Z"/><path class="cls-4" d="M203,275.7a6,6,0,1,0-6,6A6,6,0,0,0,203,275.7Z"/><path class="cls-4" d="M187.27,281.29a7.47,7.47,0,1,0-7.47,7.47A7.47,7.47,0,0,0,187.27,281.29Z"/><path class="cls-4" d="M169.9,284.68a7.87,7.87,0,1,0-7.86,7.87A7.87,7.87,0,0,0,169.9,284.68Z"/><path class="cls-4" d="M151.74,285.82a7.75,7.75,0,1,0-7.75,7.74A7.75,7.75,0,0,0,151.74,285.82Z"/><path class="cls-4" d="M133.21,284.68a7.27,7.27,0,1,0-7.27,7.27A7.27,7.27,0,0,0,133.21,284.68Z"/><path class="cls-4" d="M114.25,281.29a6.07,6.07,0,1,0-6.07,6.07A6.07,6.07,0,0,0,114.25,281.29Z"/><path class="cls-4" d="M96.29,275.7A5.31,5.31,0,1,0,91,281,5.31,5.31,0,0,0,96.29,275.7Z"/><path class="cls-4" d="M79.37,268a4.75,4.75,0,1,0-4.75,4.75A4.76,4.76,0,0,0,79.37,268Z"/><path class="cls-4" d="M63.34,258.31a4,4,0,1,0-4,4A4,4,0,0,0,63.34,258.31Z"/><path class="cls-4" d="M48.65,246.79A3.24,3.24,0,1,0,45.42,250,3.24,3.24,0,0,0,48.65,246.79Z"/><path class="cls-4" d="M35.55,233.61A2.52,2.52,0,1,0,33,236.12,2.51,2.51,0,0,0,35.55,233.61Z"/><path class="cls-4" d="M24.16,219a1.76,1.76,0,1,0-1.75,1.75A1.75,1.75,0,0,0,24.16,219Z"/><path class="cls-4" d="M15.17,203.13a1.48,1.48,0,1,0-1.48,1.48A1.48,1.48,0,0,0,15.17,203.13Z"/><path class="cls-4" d="M7.88,186.31a.84.84,0,1,0-.84.84A.84.84,0,0,0,7.88,186.31Z"/><path class="cls-4" d="M3.1,168.8a.56.56,0,1,0-.56.56A.56.56,0,0,0,3.1,168.8Z"/><path class="cls-4" d="M.55,150.86a.27.27,0,0,0-.28-.28.28.28,0,0,0-.28.28.29.29,0,0,0,.28.28A.28.28,0,0,0,.55,150.86Z"/><circle class="cls-4" cx="284.08" cy="215.74" r="1.92"/><path class="cls-4" d="M277.42,231.23a2.68,2.68,0,1,0-2.68,2.67A2.68,2.68,0,0,0,277.42,231.23Z"/><path class="cls-4" d="M267.09,245.55a3.39,3.39,0,1,0-3.39,3.39A3.39,3.39,0,0,0,267.09,245.55Z"/><path class="cls-4" d="M255.25,258.52a4.16,4.16,0,1,0-4.15,4.15A4.15,4.15,0,0,0,255.25,258.52Z"/><path class="cls-4" d="M242.05,270a5,5,0,1,0-5,4.95A5,5,0,0,0,242.05,270Z"/><path class="cls-4" d="M227.55,279.74a5.67,5.67,0,1,0-5.67,5.67A5.67,5.67,0,0,0,227.55,279.74Z"/><path class="cls-4" d="M211.92,287.72a6.27,6.27,0,1,0-6.27,6.27A6.27,6.27,0,0,0,211.92,287.72Z"/><path class="cls-4" d="M195.48,293.8a6.87,6.87,0,1,0-6.86,6.87A6.87,6.87,0,0,0,195.48,293.8Z"/><path class="cls-4" d="M105.43,293.8a6.07,6.07,0,1,0-6.07,6.07A6.07,6.07,0,0,0,105.43,293.8Z"/><path class="cls-4" d="M87.84,287.72a5.51,5.51,0,1,0-5.51,5.51A5.51,5.51,0,0,0,87.84,287.72Z"/><path class="cls-4" d="M71,279.74a4.87,4.87,0,1,0-4.87,4.87A4.87,4.87,0,0,0,71,279.74Z"/><path class="cls-4" d="M54.52,270a3.64,3.64,0,1,0-3.64,3.63A3.64,3.64,0,0,0,54.52,270Z"/><path class="cls-4" d="M39.8,258.52a2.92,2.92,0,1,0-2.92,2.91A2.92,2.92,0,0,0,39.8,258.52Z"/><path class="cls-4" d="M27,245.55a2.72,2.72,0,1,0-2.71,2.71A2.71,2.71,0,0,0,27,245.55Z"/><path class="cls-4" d="M15.27,231.23a2,2,0,1,0-2,2A2,2,0,0,0,15.27,231.23Z"/><path class="cls-4" d="M5.25,215.74A1.36,1.36,0,1,0,3.9,217.1,1.35,1.35,0,0,0,5.25,215.74Z"/><path class="cls-4" d="M286.18,243.39a2.4,2.4,0,1,0-2.39,2.39A2.39,2.39,0,0,0,286.18,243.39Z"/><path class="cls-4" d="M275.48,257.44a3.08,3.08,0,1,0-3.07,3.08A3.07,3.07,0,0,0,275.48,257.44Z"/><path class="cls-4" d="M263.41,270.23a3.8,3.8,0,1,0-3.79,3.8A3.79,3.79,0,0,0,263.41,270.23Z"/><path class="cls-4" d="M250,281.61a4.47,4.47,0,1,0-4.47,4.48A4.47,4.47,0,0,0,250,281.61Z"/><path class="cls-4" d="M235.46,291.47a5.07,5.07,0,1,0-5.07,5.07A5.08,5.08,0,0,0,235.46,291.47Z"/><circle class="cls-4" cx="57.59" cy="291.47" r="4.31"/><path class="cls-4" d="M46.17,281.61a3.75,3.75,0,1,0-3.75,3.76A3.75,3.75,0,0,0,46.17,281.61Z"/><path class="cls-4" d="M31.44,270.23a3.08,3.08,0,1,0-3.08,3.08A3.07,3.07,0,0,0,31.44,270.23Z"/><path class="cls-4" d="M18,257.44a2.4,2.4,0,1,0-2.4,2.4A2.39,2.39,0,0,0,18,257.44Z"/><path class="cls-4" d="M6,243.39a1.76,1.76,0,1,0-1.76,1.75A1.76,1.76,0,0,0,6,243.39Z"/><circle class="cls-4" cx="281.07" cy="269.3" r="3.27"/><path class="cls-4" d="M271.44,281.94a3.32,3.32,0,1,0-3.31,3.31A3.32,3.32,0,0,0,271.44,281.94Z"/><path class="cls-4" d="M22.49,281.94a2.64,2.64,0,1,0-2.64,2.63A2.64,2.64,0,0,0,22.49,281.94Z"/><path class="cls-4" d="M9,269.3a2,2,0,1,0-2,2A2,2,0,0,0,9,269.3Z"/><path class="cls-4" d="M292.5,281.14a2.8,2.8,0,1,0-2.79,2.79A2.79,2.79,0,0,0,292.5,281.14Z"/><path class="cls-4" d="M.35,281.14a2.08,2.08,0,0,0-2.08-2.08,2.08,2.08,0,0,0-2.07,2.08,2.07,2.07,0,0,0,2.07,2.07A2.08,2.08,0,0,0,.35,281.14Z"/></g></g></g></svg>