<?xml version="1.0" encoding="UTF-8"?><svg id="Layer_1" xmlns="http://www.w3.org/2000/svg" viewBox="0 0 1920 493.68"><rect x="134.45" y="312.68" width="1631.93" height="7.49" style="fill:#243877;"/><path d="M332.99,279.81h-37.62c-2.8,0-5.06-2.27-5.06-5.06V100.23c0-2.8,2.27-5.06,5.06-5.06h37.62c2.8,0,5.06,2.27,5.06,5.06v174.52c0,2.8-2.27,5.06-5.06,5.06Z" style="fill:#28417f;"/><path d="M538.53,274.75c0,2.8-2.27,5.06-5.06,5.06h-33.98c-7.91,0-10.29-1.32-14.77-7.65l-66.74-95.49h-1.58v98.08c0,2.8-2.27,5.06-5.06,5.06h-37.62c-2.8,0-5.06-2.27-5.06-5.06V100.23c0-2.8,2.27-5.06,5.06-5.06h33.19c10.29,0,10.02,1.05,12.93,5.01,1.58,2.64,60.93,85.47,69.64,98.92h1.32V100.23c0-2.8,2.27-5.06,5.06-5.06h37.62c2.8,0,5.06,2.27,5.06,5.06v174.52Z" style="fill:#28417f;"/><path d="M717.32,134.73h-47.64c-2.8,0-5.06,2.27-5.06,5.06v134.95c0,2.8-2.27,5.06-5.06,5.06h-37.62c-2.8,0-5.06-2.27-5.06-5.06V139.8c0-2.8-2.27-5.06-5.06-5.06h-47.91c-2.8,0-5.06-2.27-5.06-5.06v-29.44c0-2.8,2.27-5.06,5.06-5.06h153.42c2.8,0,5.06,2.27,5.06,5.06v29.44c0,2.8-2.27,5.06-5.06,5.06Z" style="fill:#28417f;"/><path d="M832.01,237.87h-58.33c-2.25,0-4.24,1.49-4.86,3.66l-10.02,34.63c-.63,2.17-2.61,3.66-4.86,3.66h-41.5c-3.43,0-5.87-3.32-4.83-6.58,9.83-30.95,51.11-160.93,54.36-170.68,2.11-7.12,2.9-7.38,12.4-7.38h56.98c9.5,0,10.29,.26,12.4,7.38,3.02,9.76,44.27,139.73,54.1,170.68,1.04,3.26-1.41,6.58-4.83,6.58h-41.24c-2.25,0-4.24-1.49-4.86-3.66l-10.02-34.63c-.63-2.17-2.61-3.66-4.86-3.66Zm-45.15-39.83h31.7c3.36,0,5.79-3.21,4.87-6.45l-15.85-55.82c-.62-2.18-2.61-3.68-4.87-3.68h0c-2.26,0-4.25,1.5-4.87,3.68l-15.85,55.82c-.92,3.23,1.51,6.45,4.87,6.45Z" style="fill:#28417f;"/><path d="M1056.67,130.8c-.04,2.77-2.29,4.99-5.06,4.99h-78.63c-9.76,0-11.61,.53-11.61,9.23v3.43c0,5.01,2.9,6.33,10.02,7.65,0,0,53.02,9.76,59.09,10.82,31.65,6.07,37.98,18.2,37.98,44.05v22.16c0,32.71-14.77,48.27-61.46,48.01-29.45,0-74.06-2.89-88.61-3.88-2.68-.18-4.74-2.43-4.7-5.12l.39-28.21c.04-2.77,2.29-4.99,5.06-4.99h81.79c14.77,0,19.78-2.64,19.78-13.72v-7.91c0-3.95-.79-7.65-6.86-8.7-6.33-1.32-46.43-8.44-50.65-9.23-34.56-6.07-50.91-8.44-50.91-41.41v-16.88c0-32.97,15.83-47.48,62.52-47.48,28.82,0,64.9,2.76,77.61,3.82,2.65,.22,4.66,2.45,4.63,5.12l-.39,28.28Z" style="fill:#28417f;"/><path d="M1269.47,95.17h129.94c2.8,0,5.06,2.27,5.06,5.06v28.91c0,2.8-2.27,5.06-5.06,5.06h-82.2c-2.8,0-5.06,2.27-5.06,5.06v22.06c0,2.8,2.27,5.06,5.06,5.06h68.22c2.8,0,5.06,2.27,5.06,5.06v29.97c0,2.8-2.27,5.06-5.06,5.06h-68.22c-2.8,0-5.06,2.27-5.06,5.06v21.79c0,2.8,2.27,5.06,5.06,5.06h81.93c2.8,0,5.06,2.27,5.06,5.06v31.29c0,2.8-2.27,5.06-5.06,5.06h-129.68c-2.8,0-5.06-2.27-5.06-5.06V100.23c0-2.8,2.27-5.06,5.06-5.06Z" style="fill:#52b3e5;"/><path d="M1571.52,130c-.04,2.77-2.29,4.99-5.06,4.99h-70.71c-13.72,0-19.52,6.07-19.52,17.94v67.79c0,11.61,5.8,18.99,19.52,18.99h70.71c2.77,0,5.02,2.22,5.06,4.99l.39,28.21c.04,2.69-2.01,4.94-4.7,5.12-13.24,.91-51.84,3.35-86.77,3.35s-53.28-24-53.28-51.44v-86.26c0-27.43,17.68-50.12,53.28-50.12s73.77,1.89,86.7,2.62c2.71,.15,4.8,2.41,4.76,5.12l-.39,28.68Z" style="fill:#52b3e5;"/><path d="M1601.31,95.17h37.62c2.8,0,5.06,2.27,5.06,5.06v59.51c0,2.8,2.27,5.06,5.06,5.06h63.47c2.8,0,5.06-2.27,5.06-5.06v-59.51c0-2.8,2.27-5.06,5.06-5.06h37.62c2.8,0,5.06,2.27,5.06,5.06v174.52c0,2.8-2.27,5.06-5.06,5.06h-37.62c-2.8,0-5.06-2.27-5.06-5.06v-64.53c0-2.8-2.27-5.06-5.06-5.06h-63.47c-2.8,0-5.06,2.27-5.06,5.06v64.53c0,2.8-2.27,5.06-5.06,5.06h-37.62c-2.8,0-5.06-2.27-5.06-5.06V100.23c0-2.8,2.27-5.06,5.06-5.06Z" style="fill:#52b3e5;"/><g><path d="M167.43,429.8h-7.74v-58.1h-11.22v-8.53h30.19v8.53h-11.22v58.1Z" style="fill:#52b3e5;"/><path d="M226.1,399.88h-16.85v29.92h-7.74v-66.67h7.74v28.3h16.85v-28.3h7.74v66.67h-7.74v-29.92Z" style="fill:#52b3e5;"/><path d="M264.26,421.32h18.82v8.48h-26.39v-66.62l26.39-.04v8.48h-18.82v20.94h19.07v8.53h-19.07v20.24Z" style="fill:#52b3e5;"/><path d="M350.96,405.84h-6.54v24h-7.64v-66.71h14.18c4.4,0,8.13,1.45,11.08,4.43,2.99,3.02,4.57,6.95,4.57,11.71v10.39c0,4.76-1.55,8.65-4.57,11.71-2.99,2.98-6.72,4.47-11.08,4.47Zm5.63-32.28c-1.41-1.28-3.24-1.94-5.63-1.94h-6.54v25.78h6.54c2.36,0,4.22-.74,5.63-1.99,1.58-1.41,2.36-3.27,2.36-5.75v-10.39c0-2.48-.77-4.3-2.36-5.71Z" style="fill:#52b3e5;"/><path d="M403.69,430.63c-4.15,0-7.78-1.7-10.77-5.09-2.99-3.39-4.5-7.57-4.5-12.46v-33.27c0-4.84,1.51-9.02,4.5-12.42,2.99-3.39,6.61-5.09,10.77-5.09s7.81,1.7,10.8,5.09c2.99,3.39,4.5,7.57,4.5,12.42v33.27c0,4.88-1.51,9.06-4.5,12.46-2.99,3.39-6.65,5.09-10.8,5.09Zm5.42-57.19c-1.51-1.78-3.27-2.65-5.42-2.65s-3.87,.87-5.38,2.65c-1.51,1.82-2.25,3.89-2.25,6.37v33.27c0,2.52,.74,4.59,2.25,6.42,1.51,1.78,3.24,2.65,5.38,2.65s3.91-.87,5.42-2.65c1.51-1.82,2.25-3.89,2.25-6.42v-33.27c0-2.48-.74-4.55-2.25-6.37Z" style="fill:#52b3e5;"/><path d="M472.99,429.8l-7.04-41.59-7.07,41.59h-8.16l-11.33-66.67h8.02l7.39,43.08,7.32-43.08h7.67l7.35,43.08,7.32-43.08h8.06l-11.29,66.67h-8.23Z" style="fill:#52b3e5;"/><path d="M520.47,421.32h18.82v8.48h-26.39v-66.62l26.39-.04v8.48h-18.82v20.94h19.07v8.53h-19.07v20.24Z" style="fill:#52b3e5;"/><path d="M584.92,420.28v-13.08c0-.62-.07-1.08-.18-1.57-.21-.83-.46-1.41-.7-1.82-.81-1.2-2.39-2.07-5.03-2.07h-9.15v28.06h-7.71v-66.71h14.32c4.43,0,8.2,1.45,11.15,4.43,3.03,3.06,4.61,6.95,4.61,11.71v6.29c0,4.34-1.27,8.03-3.8,10.92,2.74,2.52,4.15,6.17,4.15,10.76v13.08c0,3.14,.42,5.25,3.03,9.52h-8.16c-2.15-1.9-2.53-5.5-2.53-9.52Zm-2.78-46.76c-1.44-1.24-3.27-1.95-5.67-1.95h-6.62v21.73h6.62c2.32,0,4.19-.75,5.67-2.03,1.58-1.37,2.36-3.23,2.36-5.75v-6.29c0-2.48-.77-4.3-2.36-5.71Z" style="fill:#52b3e5;"/><path d="M662.61,430.63c-4.15,0-7.78-1.7-10.77-5.09-2.99-3.39-4.5-7.57-4.5-12.46v-33.27c0-4.84,1.51-9.02,4.5-12.42,2.99-3.39,6.61-5.09,10.77-5.09s7.81,1.7,10.8,5.09c2.99,3.39,4.5,7.57,4.5,12.42v33.27c0,4.88-1.51,9.06-4.5,12.46-2.99,3.39-6.65,5.09-10.8,5.09Zm5.42-57.19c-1.51-1.78-3.27-2.65-5.42-2.65s-3.87,.87-5.38,2.65c-1.51,1.82-2.25,3.89-2.25,6.37v33.27c0,2.52,.74,4.59,2.25,6.42,1.51,1.78,3.24,2.65,5.38,2.65s3.91-.87,5.42-2.65c1.51-1.82,2.25-3.89,2.25-6.42v-33.27c0-2.48-.74-4.55-2.25-6.37Z" style="fill:#52b3e5;"/><path d="M708.33,429.8h-7.57v-66.62l26.39-.04v8.48h-18.82v22.14h18.82v8.53h-18.82v27.52Z" style="fill:#52b3e5;"/><path d="M788.42,429.8h-7.57v-66.62l26.39-.04v8.48h-18.82v22.14h18.82v8.53h-18.82v27.52Z" style="fill:#52b3e5;"/><path d="M828.79,363.14h7.67v66.67h-7.67v-66.67Z" style="fill:#52b3e5;"/><path d="M865.73,383.87v45.93h-7.71v-66.67h8.06l17.84,45.97v-45.97h7.71v66.67h-8.09l-17.8-45.93Z" style="fill:#52b3e5;"/><path d="M933.44,429.8h-7.74v-58.1h-11.22v-8.53h30.19v8.53h-11.22v58.1Z" style="fill:#52b3e5;"/><path d="M975.08,421.32h18.83v8.48h-26.39v-66.62l26.39-.04v8.48h-18.83v20.94h19.07v8.53h-19.07v20.24Z" style="fill:#52b3e5;"/><path d="M1032.03,430.63c-4.15,0-7.78-1.7-10.77-5.09-2.99-3.39-4.5-7.57-4.5-12.46v-33.27c0-4.84,1.51-9.02,4.5-12.42,2.99-3.39,6.62-5.09,10.77-5.09s7.85,1.7,10.84,5.09c2.99,3.39,4.5,7.57,4.5,12.42v9.68h-7.67v-9.68c0-2.44-.74-4.55-2.25-6.37-1.48-1.78-3.24-2.65-5.42-2.65s-3.87,.87-5.38,2.65c-1.48,1.78-2.22,3.89-2.22,6.37v33.27c0,2.52,.74,4.63,2.22,6.42,1.51,1.78,3.24,2.65,5.38,2.65s3.94-.87,5.42-2.65c1.51-1.82,2.25-3.93,2.25-6.42v-9.56h7.67v9.56c0,4.88-1.51,9.06-4.5,12.46-2.99,3.39-6.65,5.09-10.84,5.09Z" style="fill:#52b3e5;"/><path d="M1094.82,399.88h-16.85v29.92h-7.74v-66.67h7.74v28.3h16.85v-28.3h7.74v66.67h-7.74v-29.92Z" style="fill:#52b3e5;"/><path d="M1154.96,363.14h7.67v66.67h-7.67v-66.67Z" style="fill:#52b3e5;"/><path d="M1191.89,383.87v45.93h-7.71v-66.67h8.06l17.84,45.97v-45.97h7.71v66.67h-8.09l-17.8-45.93Z" style="fill:#52b3e5;"/><path d="M1290.62,429.8h-7.78v-18.17l-14.15-48.5h8.16l9.89,33.39,9.85-33.39h8.2l-14.18,48.5v18.17Z" style="fill:#52b3e5;"/><path d="M1340.15,430.63c-4.15,0-7.78-1.7-10.77-5.09-2.99-3.39-4.5-7.57-4.5-12.46v-33.27c0-4.84,1.51-9.02,4.5-12.42,2.99-3.39,6.62-5.09,10.77-5.09s7.81,1.7,10.8,5.09c2.99,3.39,4.5,7.57,4.5,12.42v33.27c0,4.88-1.51,9.06-4.5,12.46-2.99,3.39-6.65,5.09-10.8,5.09Zm5.42-57.19c-1.51-1.78-3.27-2.65-5.42-2.65s-3.87,.87-5.38,2.65c-1.51,1.82-2.25,3.89-2.25,6.37v33.27c0,2.52,.74,4.59,2.25,6.42,1.51,1.78,3.24,2.65,5.38,2.65s3.91-.87,5.42-2.65c1.51-1.82,2.25-3.89,2.25-6.42v-33.27c0-2.48-.74-4.55-2.25-6.37Z" style="fill:#52b3e5;"/><path d="M1393.58,430.63c-4.15,0-7.78-1.7-10.77-5.09-2.99-3.39-4.5-7.57-4.5-12.41v-49.95h7.64v49.95c0,2.48,.74,4.55,2.25,6.37,1.51,1.78,3.24,2.65,5.38,2.65s3.91-.87,5.42-2.65c1.51-1.82,2.25-3.89,2.25-6.37v-49.95h7.64v49.95c0,4.84-1.51,9.02-4.5,12.41-2.99,3.39-6.65,5.09-10.8,5.09Z" style="fill:#52b3e5;"/><path d="M1454.5,420.28v-13.08c0-.62-.07-1.08-.18-1.57-.21-.83-.46-1.41-.7-1.82-.81-1.2-2.39-2.07-5.03-2.07h-9.15v28.06h-7.71v-66.71h14.32c4.43,0,8.2,1.45,11.15,4.43,3.03,3.06,4.61,6.95,4.61,11.71v6.29c0,4.34-1.27,8.03-3.8,10.92,2.75,2.52,4.15,6.17,4.15,10.76v13.08c0,3.14,.42,5.25,3.03,9.52h-8.16c-2.15-1.9-2.53-5.5-2.53-9.52Zm-2.78-46.76c-1.44-1.24-3.27-1.95-5.67-1.95h-6.61v21.73h6.61c2.32,0,4.19-.75,5.67-2.03,1.58-1.37,2.36-3.23,2.36-5.75v-6.29c0-2.48-.77-4.3-2.36-5.71Z" style="fill:#52b3e5;"/><path d="M1541.52,399.88h-16.85v29.92h-7.74v-66.67h7.74v28.3h16.85v-28.3h7.74v66.67h-7.74v-29.92Z" style="fill:#52b3e5;"/><path d="M1592.27,411.59h-11.44l-3.38,18.21h-7.85l12.53-66.71h8.9l12.56,66.71h-7.85l-3.48-18.21Zm-9.78-8.48h8.16l-4.05-21.39-4.12,21.39Z" style="fill:#52b3e5;"/><path d="M1631.67,383.87v45.93h-7.71v-66.67h8.06l17.84,45.97v-45.97h7.71v66.67h-8.09l-17.8-45.93Z" style="fill:#52b3e5;"/><path d="M1694.6,429.8h-14.18v-66.67h14.18c4.36,0,8.13,1.45,11.08,4.43,3.03,3.06,4.57,6.99,4.57,11.71v34.35c0,4.72-1.55,8.65-4.57,11.75-2.99,3.02-6.72,4.43-11.08,4.43Zm5.63-56.24c-1.44-1.28-3.27-1.94-5.63-1.94h-6.54v49.7h6.54c2.36,0,4.19-.66,5.63-1.99,1.58-1.41,2.36-3.23,2.36-5.71v-34.35c0-2.52-.77-4.34-2.36-5.71Z" style="fill:#52b3e5;"/><path d="M1753.52,378.74c0-2.23-.63-4.06-1.97-5.63-1.37-1.61-3.03-2.4-4.93-2.4s-3.55,.79-4.89,2.4c-1.37,1.61-2.04,3.48-2,5.59,.04,2.65,.63,4.68,1.62,6.29,.67,1.12,1.58,2.19,2.75,3.23,.98,.91,2.6,2.19,4.79,3.77,1.97,1.45,4.01,2.86,5.84,4.59,5.63,5.38,7.78,12.37,6.23,20.61-.74,3.97-2.43,7.24-5.1,9.77-2.67,2.48-5.77,3.68-9.22,3.68-3.91,0-7.39-1.57-10.2-4.76-2.85-3.19-4.33-7.08-4.33-11.67v-5.96h7.64v5.96c0,2.23,.63,4.05,2,5.63,1.34,1.57,2.92,2.36,4.89,2.36,1.65,0,3.1-.58,4.36-1.82,1.3-1.28,2.08-2.85,2.43-4.84,.95-5.13-.25-9.23-3.77-12.62-.91-.87-2.57-2.15-5-3.89l-1.3-.99-1.37-.95c-1.13-.79-2.04-1.61-2.82-2.36-1.65-1.53-3.03-3.19-4.12-4.92-2.04-3.23-2.99-7.12-2.99-13.41h.18c.46-3.68,1.94-6.83,4.33-9.48,2.81-3.06,6.23-4.59,10.06-4.59s7.39,1.57,10.2,4.72c2.81,3.19,4.33,7.08,4.33,11.63v5.96h-7.64v-5.88Z" style="fill:#52b3e5;"/></g><path d="M152.37,213.35c0-20.69-.01-41.38,0-62.07,0-7.56,1.9-9.46,9.47-9.48,9.97-.03,19.94,.02,29.92-.04,6.52-.03,8.8-2.39,8.8-8.92,0-10.12-.02-20.24,0-30.36,.02-6.25,2.35-8.59,8.63-8.61,10.42-.04,20.84-.04,31.26,0,5.97,.02,8.34,2.43,8.35,8.42,.02,10.27,.01,20.54-.01,30.81-.02,6.45-2.36,8.75-8.97,8.77-10.27,.04-20.54,0-30.81,.03-6.07,.02-8.37,2.31-8.38,8.3-.02,10.27-.02,20.54,0,30.81,.02,6.18,2.37,8.5,8.71,8.52,10.12,.03,20.24,0,30.36,0,6.77,0,9.08,2.32,9.09,9.11,.01,10.12,0,20.24,0,30.36,0,6.08-2.47,8.53-8.71,8.55-10.27,.04-20.54-.02-30.81,.02-6.34,.02-8.62,2.29-8.63,8.55-.02,10.27,.01,20.54-.02,30.81-.02,5.94-2.45,8.39-8.38,8.41-10.42,.05-20.84,.05-31.26,0-6.36-.03-8.6-2.28-8.6-8.58-.02-21.14,0-42.27-.01-63.41Z" style="fill:#28417f;"/><path d="M1215.9,244.39c-.05-5.88-2.36-8.07-8.29-8.08-10.17-.03-20.35,.02-30.52-.03-5.89-.03-8.17-2.33-8.18-8.16-.02-9.74-.02-19.47,0-29.21,0-7.39,1.92-9.34,9.25-9.36,10.03-.03,20.06,.03,30.08-.05,5.38-.04,7.64-2.33,7.67-7.77,.06-10.32,.06-20.64-.02-30.95-.03-4.37-3.59-7.89-7.96-7.91-10.03-.05-20.06,.01-30.08-.01-6.87-.02-9.04-2.33-9.01-9.28,.05-9.59,.06-19.18,.06-28.77,0-6.44-2.25-8.75-8.55-8.77-5.06-.01-10.11,0-15.17,0-5.06,0-10.11-.02-15.17,0-6.3,.02-8.55,2.33-8.55,8.77,0,3.29,0,18.06,0,36.37-6.29,0-12.18-.03-19.13,0-4.37,.02-7.93,3.54-7.96,7.91-.08,10.32-.08,20.64-.01,30.95,.03,5.44,2.3,7.73,7.67,7.77,7.06,.05,13.02,.04,19.43,.04,0,21.07,0,38.72,0,42.07,0,3.52,2.85,6.37,6.37,6.37h26.03v.08c2.06,0,4.13,0,6.19,0,6.54,.01,8.66,2.08,8.69,8.54,.04,9.74-.02,19.47,.02,29.21,.03,7.85,3.02,9.58,12.36,8.81,8.08-.67,16.2-.6,24.29,.03,7.46,.58,10.45-1.46,10.5-8.06,.08-10.17,.08-20.35,0-30.52Z" style="fill:#52b3e5;"/></svg>