<svg xmlns="http://www.w3.org/2000/svg" viewBox="0 0 280.96 143.04"><defs><style>.cls-1{fill:#fafdff;}</style></defs><g id="Isolation_Mode" data-name="Isolation Mode"><path class="cls-1" d="M33.8,72c0,5.24-5.3,21-6.89,26.92C25.5,104.35,19.26,107,14,107H0L9.42,71.26l-4.89-6H24.32C28.5,65.25,33.8,67,33.8,72M19.49,97.76C20.08,95.11,26,74.08,26,72.91c0-1.42-2.24-1.71-3.36-1.71h-2a4.34,4.34,0,0,0-4.18,3.19L10.06,97.66a2.68,2.68,0,0,0,2.58,3.39h.85c2.41,0,5.3-.7,6-3.29"/><path class="cls-1" d="M54.06,84.62c0,2-5.77,23.68-6.71,27.15L42,106.35a81.59,81.59,0,0,1-8.72.65c-2,0-4.3-.65-4.3-3,0-3,1.48-6.48,2.3-9.42.88-3.42,3.65-3.65,6.65-3.65L33.86,85.8c1.24-3,2.12-4.3,5.77-4.3H49.7c2.06,0,4.36.77,4.36,3.12M37.37,97.44l-.63,2.27a1.35,1.35,0,0,0,1.3,1.7H41.9a1.34,1.34,0,0,0,1.29-1l.71-2.68a1.34,1.34,0,0,0-1.3-1.68H39.19A1.88,1.88,0,0,0,37.37,97.44Zm2.94-9.65-.39,1.44a1.34,1.34,0,0,0,1.29,1.7h3.45a1.36,1.36,0,0,0,1.3-1l.37-1.44A1.35,1.35,0,0,0,45,86.8H41.6A1.34,1.34,0,0,0,40.31,87.79Z"/><path class="cls-1" d="M68.9,86.86H64.28a1.44,1.44,0,0,0-1.39,1h0a1.44,1.44,0,0,0,.61,1.62c2.87,1.84,9.23,5.42,9.23,8.34,0,4.36-2.18,9.07-6.89,9.07H51.65l5.94-5.41h6.25a1.46,1.46,0,0,0,1.4-1.08l.14-.54a1.43,1.43,0,0,0-.64-1.61c-2.88-1.75-9.21-5.46-9.21-8.43,0-4.36,2.06-8.37,6.77-8.37H75Z"/><path class="cls-1" d="M99.11,84.51c0,1.88-7.36,29.62-8.19,33.44l-4.29-12.3,3.82-14.81a3.09,3.09,0,0,0-3-3.86h0a3.09,3.09,0,0,0-3,2.29l-4.74,17.67H72.9L83.62,66l5.18,6.83-2.41,9.07c2.77-.18,5.59-.48,8.36-.48,2,0,4.36.59,4.36,3.07"/><path class="cls-1" d="M150.17,84.51c0,1.65-5.07,19.55-5.89,22.43h-7.07L141.6,90.6A2.88,2.88,0,0,0,138.82,87h-.46a2.89,2.89,0,0,0-2.78,2.13l-4.73,17.83H124l4.34-16.35A2.87,2.87,0,0,0,125.53,87h-.48a2.89,2.89,0,0,0-2.78,2.13l-4.73,17.83h-7l5.77-21.61-3.18-3.83h11.19l-.23.42c2.76-.18,5.65-.48,8.36-.48a6,6,0,0,1,3.18.65c3.3-.23,6.83-.65,10.19-.65,2,0,4.3.59,4.3,3.07"/><path class="cls-1" d="M172.78,84.62c0,2-5.77,23.68-6.71,27.15l-5.36-5.42A81.59,81.59,0,0,1,152,107c-2,0-4.3-.65-4.3-3,0-3,1.47-6.48,2.3-9.42.88-3.42,3.65-3.65,6.65-3.65l-4.06-5.13c1.24-3,2.12-4.3,5.77-4.3h10.07c2.06,0,4.36.77,4.36,3.12M156.16,97.16l-.64,2.33a1.52,1.52,0,0,0,1.46,1.92h3.5a1.53,1.53,0,0,0,1.47-1.13l.61-2.33a1.51,1.51,0,0,0-1.46-1.9h-3.48A1.51,1.51,0,0,0,156.16,97.16ZM159,87.92l-.3,1.09a1.52,1.52,0,0,0,1.47,1.92h3.08a1.52,1.52,0,0,0,1.47-1.14L165,88.7a1.52,1.52,0,0,0-1.47-1.9h-3.07A1.52,1.52,0,0,0,159,87.92Z"/><path class="cls-1" d="M187.62,86.86H183a1.44,1.44,0,0,0-1.39,1h0a1.44,1.44,0,0,0,.61,1.62c2.87,1.84,9.23,5.42,9.23,8.34,0,4.36-2.18,9.07-6.89,9.07h-14.2l5.95-5.41h6.25a1.46,1.46,0,0,0,1.4-1.08l.14-.54a1.43,1.43,0,0,0-.64-1.61c-2.88-1.75-9.21-5.46-9.21-8.43,0-4.36,2.06-8.37,6.77-8.37h12.72Z"/><path class="cls-1" d="M204.93,86.86,202.09,97.6a3.13,3.13,0,0,0,3,3.93h0l8.42,5.41H197.81c-2.06,0-4.24-.7-4.24-3.18,0-2.23,3.59-14,4.24-16.9h-8.42l6.94-5.36h3.07l2.23-8.59,5.42,6.24-.65,2.35H217l-7.19,5.36Z"/><path class="cls-1" d="M237.5,84.62c0,2.83-1.89,7.19-2.59,10l-2.48,1.59h-9a2.72,2.72,0,0,0-2.63,2h0a2.71,2.71,0,0,0,2.63,3.39h2.14l4.3,5.36h-13c-2.06,0-4.18-.7-4.18-3.18,0-2.12,3.88-15.84,4.71-18.61.64-2.7,2.94-3.65,5.47-3.65h10.19c2.06,0,4.42.77,4.42,3.12m-8.18,5,.14-.5a1.82,1.82,0,0,0-1.75-2.29h-2.47a1.8,1.8,0,0,0-1.75,1.36l-.13.51a1.81,1.81,0,0,0,1.75,2.26h2.46A1.81,1.81,0,0,0,229.32,89.59Z"/><path class="cls-1" d="M260.88,84.51c0,1.59-.95,3.41-1.3,5.06l-7.77,3,.66-2.47a2.38,2.38,0,0,0-2.3-3h0a2.39,2.39,0,0,0-2.31,1.77L243,106.94h-6.65l5.18-20.78-3.71-4.66h12l-.11.36c2.12-.12,4.47-.42,6.77-.42,2,0,4.36.59,4.36,3.07"/><path class="cls-1" d="M274.83,86.86h-4.61a1.46,1.46,0,0,0-1.4,1h0a1.46,1.46,0,0,0,.62,1.62c2.87,1.84,9.22,5.42,9.22,8.34,0,4.36-2.18,9.07-6.89,9.07H257.58l5.95-5.41h6.25a1.46,1.46,0,0,0,1.4-1.08l.14-.54a1.45,1.45,0,0,0-.65-1.61c-2.88-1.75-9.2-5.46-9.2-8.43,0-4.36,2.06-8.37,6.77-8.37H281Z"/><path class="cls-1" d="M34.79,114.26h13l-1.49,5.61-.76-2.41H43.91a1.8,1.8,0,0,0-1.74,1.34l-4.75,17.93-5.71,5.65,6.06-22.65A1.81,1.81,0,0,0,36,117.46h0l-2.79,2.6Z"/><path class="cls-1" d="M54,124.63a15.08,15.08,0,0,1-.69,2.72L49.08,129l.36-1.33A1.28,1.28,0,0,0,48.2,126h0A1.28,1.28,0,0,0,47,127l-2.6,9.73H40.78l2.79-11.19-2-2.5H48l-.07.19c1.15-.06,2.41-.22,3.65-.22C52.7,123,54,123.29,54,124.63Z"/><path class="cls-1" d="M62.74,123h3.78l-3.59,13.47-4.21,2,.41-2.09a24,24,0,0,1-4.47.34c-1.08,0-2.31-.34-2.31-1.61,0-1,2.66-10.49,3.1-12.11h3.71l-2.23,8.58a1.7,1.7,0,0,0,1.65,2.13h0a1.71,1.71,0,0,0,1.65-1.26Z"/><path class="cls-1" d="M78.43,124.69a18.47,18.47,0,0,1-1,3.93L74.15,127h0a.9.9,0,0,0-.86-1.14H71.93a.91.91,0,0,0-.87.68l-1.59,6.09a.9.9,0,0,0,.87,1.13H71.7a.89.89,0,0,0,.87-.7l.16-.67,4.28-2c-.7,2.54-.73,6.31-4.15,6.31H67.47c-1.18,0-2.22-.44-2.22-1.8s2-8.28,2.53-9.93c.32-1.45,1.59-2,3-2h5.39C77.2,123,78.43,123.42,78.43,124.69Z"/><path class="cls-1" d="M87.85,123h3.64l-.31,1.2-6,5.17,6,13.66-6-4.82L83,133.29a.49.49,0,0,0-.93.07l-.9,3.34H77.32l5.9-22.12,2.79,3.9L84.26,125a.5.5,0,0,0,.81.5Z"/><path class="cls-1" d="M111.3,123h3.87l-7.45,13.47L104.36,139v-7.57a.42.42,0,0,0-.8-.2l-2.81,5.45H97.64V123H101v5.24a.43.43,0,0,0,.81.19l2.71-5.43h3.17v5.26a.42.42,0,0,0,.8.2Z"/><path class="cls-1" d="M126,124.69c0,1.08-3.11,12.74-3.62,14.61l-2.88-2.91c-1.49.15-3.11.34-4.69.34-1.08,0-2.32-.34-2.32-1.61,0-1.62.8-3.49,1.24-5.07.48-1.84,2-2,3.58-2l-2.19-2.76c.67-1.61,1.15-2.31,3.11-2.31h5.42C124.74,123,126,123.42,126,124.69Zm-9,6.93-.21.76a1.07,1.07,0,0,0,1,1.34h1.37a1.07,1.07,0,0,0,1-.79l.19-.76a1.06,1.06,0,0,0-1-1.33H118A1.07,1.07,0,0,0,117,131.62Zm1.53-5,0,.09a1.07,1.07,0,0,0,1,1.34h1.14a1.06,1.06,0,0,0,1-.8l0-.09a1.06,1.06,0,0,0-1-1.33h-1.14A1,1,0,0,0,118.51,126.65Z"/><path class="cls-1" d="M134,125.89h-2.49a.77.77,0,0,0-.75.57h0a.77.77,0,0,0,.33.87c1.54,1,5,2.92,5,4.49,0,2.35-1.18,4.88-3.71,4.88h-7.64l3.2-2.91h3.21a1,1,0,0,0,.95-.73h0a1,1,0,0,0-.44-1.09c-1.6-1-4.83-2.9-4.83-4.46,0-2.35,1.11-4.5,3.65-4.5h6.84Z"/><path class="cls-1" d="M150.29,124.63c0,1-4,15.94-4.41,18L143.57,136l2.1-8.13a1.53,1.53,0,0,0-1.48-1.91h-.27a1.52,1.52,0,0,0-1.48,1.13l-2.58,9.61h-3.68l5.77-22,2.79,3.68-1.3,4.88c1.49-.09,3-.25,4.5-.25C149,123,150.29,123.29,150.29,124.63Z"/><path class="cls-1" d="M169.87,124.69c0,1.08-3.1,12.74-3.61,14.61l-2.88-2.91c-1.49.15-3.11.34-4.69.34-1.08,0-2.32-.34-2.32-1.61,0-1.62.79-3.49,1.24-5.07.47-1.84,2-2,3.58-2L159,125.32c.67-1.61,1.14-2.31,3.11-2.31h5.42C168.64,123,169.87,123.42,169.87,124.69Zm-8.93,6.71-.37,1.36a.75.75,0,0,0,.73,1h2a.75.75,0,0,0,.73-.56l.36-1.37a.75.75,0,0,0-.73-.95h-2A.76.76,0,0,0,160.94,131.4Zm1.52-5-.19.7a.76.76,0,0,0,.74,1h1.78a.76.76,0,0,0,.73-.57l.18-.7a.76.76,0,0,0-.73-1H163.2A.76.76,0,0,0,162.46,126.42Z"/><path class="cls-1" d="M182.87,124.63c0,1.14-2.73,10.36-3.14,12.07h-3.8l2.32-8.65a1.66,1.66,0,0,0-1.6-2.09h-.08a1.66,1.66,0,0,0-1.6,1.24l-2.5,9.5h-3.58l2.85-11.5L170,123h6.12v.22c1.45-.09,3-.25,4.5-.25C181.73,123,182.87,123.29,182.87,124.63Z"/><path class="cls-1" d="M194,117.67l4.39-3a.08.08,0,0,1,.12.09l-5.82,21.85a.08.08,0,0,1-.08.06H189a.08.08,0,0,1-.08-.1h0a.08.08,0,0,0-.09-.1,24.44,24.44,0,0,1-3,.23c-1.62,0-3.46-.79-3.46-2.66,0-1.14,1.65-6.43,2-7.86,1-3.59,5.32-3.21,8.09-3.2a.09.09,0,0,0,.07-.06l1.38-5.24A.05.05,0,0,1,194,117.67Zm-6.22,16,.94,0a1.25,1.25,0,0,0,1.23-.91l1.45-5.34a1.24,1.24,0,0,0-1.19-1.56h-.91a1.24,1.24,0,0,0-1.19.91l-1.48,5.31A1.23,1.23,0,0,0,187.77,133.67Z"/><path class="cls-1" d="M211.11,136.7h-6.56l5.64-21.14H214l-4.55,17a3.13,3.13,0,0,0,.6,2.81Z"/><path class="cls-1" d="M221.44,123h3.77l-3.58,13.47-4.21,2,.41-2.09a24,24,0,0,1-4.47.34c-1.08,0-2.31-.34-2.31-1.61,0-1,2.66-10.49,3.1-12.11h3.71l-2.33,9a1.41,1.41,0,0,0,1.36,1.76h.62a1.41,1.41,0,0,0,1.36-1Z"/><path class="cls-1" d="M237.35,124.63c0,.88-2,7.6-2.31,8.87-.57,2.09-3,3.2-5,3.2h-6.88l6-22.5,2.51,5-1.11,4A34.61,34.61,0,0,1,235,123C236.09,123,237.35,123.29,237.35,124.63Zm-6,8.27,1.42-5.19a1.32,1.32,0,0,0-1.27-1.66h-.75a1.33,1.33,0,0,0-1.28,1l-1.35,5.1a1.31,1.31,0,0,0,1.27,1.66h.47C230.54,133.79,231.11,133.63,231.33,132.9Z"/><path class="cls-1" d="M249.65,124.69c0,1.52-1,3.87-1.39,5.36l-1.33.85h-4.87a1.46,1.46,0,0,0-1.41,1.09h0a1.46,1.46,0,0,0,1.41,1.83h1.16l2.31,2.88h-7c-1.11,0-2.25-.38-2.25-1.71,0-1.14,2.09-8.53,2.53-10a2.7,2.7,0,0,1,2.95-2h5.48C248.38,123,249.65,123.42,249.65,124.69Zm-4.45,2.84.2-.73a.74.74,0,0,0-.71-.94h-1.81a.76.76,0,0,0-.73.56l-.18.73a.74.74,0,0,0,.72.93h1.8A.73.73,0,0,0,245.2,127.53Z"/><path class="cls-1" d="M137.16,57.84v7.3c9.32,0,22.26-6.19,28-19.33a32.62,32.62,0,0,0-6.82-36.25L151.61,18,137.19,0V49.38h7.51V22.12L145,22l6.59,8.21,6.4-7.92c7.06,13.39-1.42,33.63-20.83,35.55"/><path class="cls-1" d="M133.45,65.25V57.8a25.21,25.21,0,0,1-18.84-10.95,24.42,24.42,0,0,1-4.4-15.2c.43-11.94,8.88-19.88,15.61-22.21V49.36h7.58V.09c-13.46.09-30,11.74-30.72,31.34a32.6,32.6,0,0,0,30.77,33.82"/><path class="cls-1" d="M99.72,77.86a7.69,7.69,0,0,1,2.94-.73,7.88,7.88,0,0,1-2.94-.72A7.83,7.83,0,0,1,99,73.48a7.83,7.83,0,0,1-.72,2.93,7.83,7.83,0,0,1-2.93.72,7.64,7.64,0,0,1,2.93.73A7.78,7.78,0,0,1,99,80.79a7.78,7.78,0,0,1,.72-2.93"/><path class="cls-1" d="M96.12,58.32a12.63,12.63,0,0,1,4.74-1.17A12.64,12.64,0,0,1,96.12,56,12.5,12.5,0,0,1,95,51.24,12.5,12.5,0,0,1,93.78,56,12.69,12.69,0,0,1,89,57.15a12.68,12.68,0,0,1,4.74,1.17A12.5,12.5,0,0,1,95,63.07a12.5,12.5,0,0,1,1.17-4.75"/><path class="cls-1" d="M66,70.29a15.2,15.2,0,0,1,5.81-1.44A15.39,15.39,0,0,1,66,67.42a15.39,15.39,0,0,1-1.43-5.81,15.39,15.39,0,0,1-1.43,5.81,15.44,15.44,0,0,1-5.82,1.43,15.25,15.25,0,0,1,5.82,1.44,15.39,15.39,0,0,1,1.43,5.81A15.39,15.39,0,0,1,66,70.29"/></g></svg>