<?xml version="1.0" encoding="UTF-8"?><svg id="Layer_1" xmlns="http://www.w3.org/2000/svg" viewBox="0 0 131 125"><path d="M29.36,66.51c-2.67,0-5.02,0-7.37,0-1.6,0-1.96-.37-1.97-1.96-.01-1.75,0-3.5,0-5.26,0-1.16,.52-1.7,1.73-1.68,2.31,.05,4.62,.05,6.92,0,1.01-.02,1.5,.46,1.72,1.35,.29,1.14,.56,2.29,.93,3.8,.34-.81,.55-1.26,.72-1.73,2.07-5.78,4.21-11.53,6.15-17.36,1.15-3.46,3.91-5.89,8.28-5.86,13.85,.11,27.7,.1,41.55,0,3.86-.03,6.8,2.06,8.03,5.66,2,5.85,4.12,11.65,6.2,17.48,.17,.47,.36,.93,.81,1.41,.27-1.08,.58-2.15,.81-3.23,.23-1.1,.8-1.57,1.96-1.54,2.26,.07,4.53,.05,6.8,0,1.25-.02,1.67,.62,1.67,1.74,0,1.8,.02,3.59,0,5.39-.02,1.35-.42,1.75-1.78,1.76-2.42,.02-4.85,0-7.56,0,.56,.8,.94,1.39,1.36,1.95,5.63,7.61,4.89,5.65,4.93,14.82,.02,3.93,0,7.86,.02,11.8,.01,2.38-.7,4.43-2.5,6.08-.32,.3-.51,.87-.54,1.33-.07,1.28,0,2.56-.04,3.84-.06,1.75-1.11,2.75-2.84,2.76-3.08,0-6.16,0-9.23,0-1.65,0-2.69-1.01-2.78-2.68-.03-.51-.01-1.03-.01-1.54,0-.51,0-1.01,0-1.63H40.99c0,.9,.01,1.81,0,2.73-.03,2.17-.99,3.12-3.12,3.12-2.95,0-5.9,0-8.85,0-1.82,0-2.83-1-2.9-2.83-.02-.43-.02-.86,0-1.28,.05-1.82,.17-3.54-1.51-4.97-1.26-1.07-1.54-2.82-1.54-4.49,0-6.03,0-12.05,.02-18.08,0-1.73,.67-3.24,1.68-4.61,1.24-1.69,2.5-3.36,3.74-5.04,.24-.33,.46-.68,.86-1.28Zm70.98-2.71c-.16-.57-.24-.9-.35-1.22-2.18-6.19-4.36-12.38-6.56-18.57-.97-2.72-2.3-3.66-5.17-3.66-14.07,0-28.13,0-42.2,0-2.87,0-4.21,.94-5.17,3.65-2.2,6.18-4.38,12.38-6.56,18.57-.12,.35-.19,.72-.33,1.22h1.78c16.2,0,32.41,0,48.61,0,.43,0,.97-.14,1.26,.06,.49,.34,1.04,.87,1.15,1.4,.16,.77-.42,1.24-1.25,1.24-.68,0-1.37,0-2.05,0-16.46,0-32.92,0-49.38,.03-.59,0-1.39,.27-1.72,.7-1.9,2.47-3.79,4.96-5.48,7.58-.65,1.01-1.05,2.37-1.08,3.57-.12,4.83-.04,9.66-.04,14.49,0,.42,.04,.83,.06,1.28,.24,.05,.4,.1,.56,.1,8.21,0,16.42,0,24.62,.03,.84,0,.98-.39,.98-1.1-.02-3.16-.02-6.33,0-9.49,.04-4.3,3.2-7.58,7.46-7.64,5.09-.07,10.18-.07,15.26,0,4.41,.06,7.48,3.26,7.52,7.7,.03,3.03,.06,6.07-.01,9.1-.03,1.13,.3,1.45,1.44,1.44,7.82-.05,15.65-.02,23.47-.03,.41,0,.82-.04,1.35-.07,0-.53,0-.95,0-1.37,0-4.79-.02-9.58,.02-14.36,.01-1.48-.41-2.76-1.27-3.93-1.74-2.38-3.48-4.76-5.17-7.17-.44-.63-.92-.88-1.69-.86-2.91,.04-5.81,.05-8.72-.02-.44-.01-1.15-.4-1.25-.76-.14-.47,.07-1.18,.38-1.6,.2-.28,.85-.3,1.3-.31,2.69-.03,5.37-.01,8.22-.01ZM26.09,97.09c.76,2.28,2.2,3.28,4.62,3.28,24.32,0,48.64,.01,72.95-.03,.9,0,1.85-.31,2.68-.68,1.04-.47,1.6-1.4,1.93-2.57H26.09Zm53.42-12.3c-.67,0-1.17,0-1.67,0-6.75,0-13.49,0-20.24,0q-3.05,0-2.81,3.03c0,.07,.08,.14,.15,.25h24.57v-3.29Zm-24.7,9.32h24.67v-3.12h-24.67v3.12Zm.47-12.13h23.74c-.34-1.82-1.62-3.03-3.41-3.14-1.45-.09-2.9-.08-4.35-.08-4.14,0-8.28-.01-12.42,.07-1.9,.04-3.19,1.27-3.55,3.15Zm-26.36,24.35h9.24v-3.08h-9.24v3.08Zm76.47-3.11h-9.24v3.08h9.24v-3.08ZM22.77,63.68h5.99c-.21-1-.34-1.89-.6-2.74-.09-.28-.48-.65-.75-.66-1.52-.06-3.05-.03-4.63-.03v3.43Zm88.78-3.43c-1.63,0-3.12-.03-4.61,.02-.26,0-.67,.29-.74,.52-.27,.93-.42,1.89-.64,2.91h5.99v-3.46Z" style="fill:#ffad23;"/><path d="M67.5,12c.76-.04,1.08,.49,1.16,1.34,.24,2.56,1.38,4.57,3.78,5.65,.83,.37,1.84,.34,2.69,.69,.47,.2,1.1,.81,1.08,1.21-.02,.41-.69,1.08-1.15,1.14-4.04,.55-5.77,2.17-6.34,6.24-.12,.86-.41,1.4-1.28,1.4-.86,0-1.41-.34-1.49-1.34-.32-3.79-2.44-5.86-6.16-6.29-.47-.05-1.11-.6-1.26-1.06-.25-.76,.23-1.27,1.09-1.35,1.88-.18,3.72-.69,4.81-2.3,.76-1.12,1.16-2.52,1.52-3.84,.23-.83,.39-1.48,1.56-1.5Zm-2.68,8.73c.9,.99,1.72,1.89,2.43,2.68,.86-.85,1.74-1.73,2.67-2.65-.79-.85-1.68-1.8-2.6-2.8-.95,1.05-1.82,2.02-2.51,2.77Z" style="fill:#ffad23;"/><path d="M33.47,39.55c-.22,.17-.6,.67-1.05,.76-3.29,.61-4.47,1.71-5.01,5.01-.14,.86-.52,1.18-1.34,1.16-.77-.02-1.11-.34-1.22-1.14-.45-3.21-1.75-4.45-4.97-5.05-.43-.08-1.08-.76-1.04-1.1,.05-.47,.58-1.05,1.05-1.27,.75-.35,1.7-.29,2.44-.67,1.6-.81,2.42-2.23,2.54-4.02,.06-.79,.22-1.45,1.2-1.48,.95-.03,1.19,.53,1.33,1.36,.5,3.15,1.48,4.12,4.76,4.71,.84,.15,1.36,.43,1.32,1.73Zm-7.13-2c-.7,.59-1.29,1.1-1.8,1.53,.58,.71,1.09,1.31,1.63,1.97,.62-.7,1.11-1.25,1.63-1.84-.54-.61-1.01-1.14-1.46-1.66Z" style="fill:#ffad23;"/><path d="M108.61,46.48c-.81,.03-1.25-.3-1.36-1.16-.38-3.12-1.78-4.57-4.85-4.95-.82-.1-1.14-.49-1.14-1.23,0-.72,.26-1.21,1.09-1.29,.67-.06,1.38-.15,1.99-.41,1.8-.77,2.82-2.14,2.92-4.13,.04-.85,.27-1.52,1.29-1.56,.97-.03,1.22,.65,1.34,1.4,.53,3.11,1.48,4.14,4.49,4.66,.83,.14,1.47,.26,1.46,1.34-.01,1.13-.73,1.14-1.54,1.23-2.41,.28-4.13,2.1-4.37,4.6-.08,.85-.28,1.53-1.33,1.49Zm-.13-5.5c.61-.58,1.19-1.13,1.76-1.67-.65-.65-1.2-1.2-1.81-1.81-.53,.58-1.03,1.14-1.56,1.73,.52,.58,1.01,1.1,1.6,1.75Z" style="fill:#ffad23;"/><path d="M67.16,61.93c-9.1,0-18.21,0-27.31,0-2.68,0-3.02-.49-2.11-3.05,1.67-4.7,3.35-9.39,5.03-14.09,.74-2.08,1.16-2.38,3.49-2.38,8.85,0,17.69,0,26.54,0,5.09,0,10.17,0,15.26,0,2.36,0,2.75,.28,3.54,2.5,1.72,4.82,3.43,9.64,5.14,14.46,.68,1.92,.21,2.56-1.88,2.56-9.23,0-18.46,0-27.69,0Zm-26.76-2.93h53.38c-.03-.25-.02-.39-.06-.5-1.53-4.25-3.04-8.51-4.63-12.74-.14-.36-.8-.75-1.22-.75-13.81-.04-27.62-.03-41.43-.05-.78,0-1.14,.31-1.37,1.01-.51,1.54-1.07,3.06-1.62,4.58-.99,2.76-1.99,5.51-3.05,8.44Z" style="fill:#ffad23;"/><path d="M94.23,79.12c3.02,0,5.51,.58,7.62,2.32,2.33,1.92,2.39,4.83,.17,6.89-3.47,3.21-10.43,3.47-14.17,.54-3.06-2.4-2.77-6.26,.6-8.23,1.9-1.11,3.95-1.53,5.78-1.52Zm.28,9.03c2.24-.02,3.89-.47,5.21-1.43,1.55-1.13,1.57-2.51,.03-3.62-2.4-1.73-7.88-1.68-10.23,.11-1.36,1.03-1.46,2.14-.22,3.3,1.46,1.38,3.31,1.64,5.22,1.64Z" style="fill:#ffad23;"/><path d="M40.2,90.9c-3.13,.05-5.46-.68-7.48-2.24-2.76-2.13-2.73-5.33,.02-7.44,3.74-2.88,10.42-2.83,14,.12,2.41,1.98,2.49,5.16,.13,7.2-2.07,1.79-4.57,2.38-6.68,2.37Zm.06-2.74c1.15,.02,2.92-.36,4.46-1.49,1.55-1.14,1.55-2.37,.03-3.5-2.45-1.82-7.91-1.79-10.32,.06-1.28,.98-1.37,2.12-.22,3.23,1.49,1.44,3.37,1.69,6.05,1.69Z" style="fill:#ffad23;"/><path d="M39.71,74.54c1.49,0,2.99,.01,4.48,0,.92-.01,1.32,.48,1.36,1.33,.04,.85-.44,1.29-1.24,1.3-3.07,.02-6.14,.02-9.22,0-.85,0-1.35-.43-1.29-1.37,.06-.91,.57-1.26,1.43-1.25,1.49,.01,2.99,0,4.48,0Z" style="fill:#ffad23;"/><path d="M94.73,74.54c1.45,0,2.9,0,4.35,0,.86,0,1.38,.33,1.44,1.24,.07,.93-.43,1.37-1.28,1.38-3.07,.03-6.14,.03-9.22,0-.79,0-1.29-.43-1.25-1.29,.03-.85,.42-1.35,1.34-1.34,1.54,.02,3.07,0,4.61,0Z" style="fill:#ffad23;"/></svg>