<?xml version="1.0" encoding="UTF-8"?><svg id="Layer_1" xmlns="http://www.w3.org/2000/svg" viewBox="0 0 131 125"><path d="M89.31,17.84c-1.13,0-2.27,.04-3.4-.01-1.19-.05-2.36-.15-2.83-1.58-.58-1.75,.32-3.33,2.14-3.37,3.62-.09,7.25-.07,10.87-.02,1.43,.02,2.48,1.08,2.51,2.57,.06,3.47,.08,6.94-.01,10.41-.05,1.93-1.02,2.8-2.59,2.72-1.58-.08-2.32-1-2.36-2.95-.02-1.14,0-2.28,0-3.42-.16-.06-.32-.12-.48-.18-.43,.36-.9,.69-1.3,1.08-8.42,8.47-16.83,16.95-25.24,25.42-2.37,2.38-3.33,2.36-5.66-.06-2.2-2.28-4.44-4.52-6.57-6.85-.99-1.08-1.65-1.1-2.69-.02-5.8,5.97-11.64,11.89-17.53,17.76-.73,.72-1.87,1.34-2.86,1.41-1.9,.14-2.96-1.91-1.97-3.57,.33-.56,.81-1.05,1.27-1.52,6.49-6.51,12.98-13.01,19.47-19.51,2.43-2.43,3.46-2.44,5.84-.05,2.31,2.31,4.62,4.62,6.88,6.97,.73,.76,1.29,.78,2.03,.03,8.07-8.09,16.16-16.17,24.24-24.26,.14-.14,.22-.32,.33-.49-.03-.18-.06-.36-.09-.53Z" style="fill:#0070c0;"/><path d="M96.44,80.68c-3.83,0-7.66-.04-11.49,.02-1.28,.02-1.81-.3-1.81-1.7,0-4.52-.05-4.52,4.43-4.52,6.79,0,13.58,.03,20.37-.03,1.36-.01,1.84,.4,1.71,1.74-.1,1.01-.07,2.04,0,3.06,.07,1.07-.35,1.45-1.42,1.43-3.93-.04-7.86-.02-11.79-.02Z" style="fill:#0070c0;"/><path d="M63.84,80.68c-3.77,0-7.54,0-11.32,0-1.93,0-2.06-.13-2.04-2.11,0-.61,.08-1.22,.14-1.82,.16-1.56,1.15-2.24,2.59-2.24,7.03-.03,14.07-.03,21.1,0,1.68,0,2.39,.71,2.66,2.33,.02,.1,.03,.2,.05,.3,.47,3.37,.31,3.55-3.09,3.55-3.36,0-6.73,0-10.09,0Z" style="fill:#0070c0;"/><path d="M63.81,86.43c3.88,0,7.76,.05,11.64-.03,1.3-.03,1.68,.46,1.71,1.68,.11,4.25,.14,4.25-4.04,4.25-6.94,0-13.89-.04-20.83,.03-1.46,.02-1.83-.5-1.83-1.86,0-4.08-.03-4.08,4.01-4.08,3.11,0,6.23,0,9.34,0Z" style="fill:#0070c0;"/><path d="M96.35,86.43c3.88,0,7.76,.04,11.64-.02,1.22-.02,1.7,.28,1.68,1.61-.04,4.32,0,4.32-4.3,4.32-6.79,0-13.58-.03-20.36,.03-1.35,.01-1.88-.29-1.86-1.77,.06-4.16,0-4.17,4.18-4.17,3.01,0,6.02,0,9.03,0Z" style="fill:#0070c0;"/><path d="M96.33,68.73c-3.82,0-7.65-.04-11.47,.02-1.22,.02-1.71-.32-1.72-1.62-.02-4.35-.06-4.35,4.31-4.35,6.73,0,13.46,0,20.19,0,2,0,2,0,2,2.06q0,3.89-3.82,3.89c-3.16,0-6.32,0-9.48,0Z" style="fill:#0070c0;"/><path d="M63.74,98.35c3.87,0,7.75,.05,11.62-.03,1.37-.03,1.86,.51,1.78,1.77-.05,.76-.09,1.52-.19,2.28-.18,1.33-1,1.92-2.31,1.92-7.24,0-14.47,0-21.71,0-1.24,0-2.02-.57-2.24-1.82-.05-.3-.14-.6-.17-.9-.34-3.02-.18-3.21,2.84-3.21,3.46,0,6.93,0,10.39,0Z" style="fill:#0070c0;"/><path d="M31.16,98.35c3.87,0,7.75,.04,11.62-.02,1.22-.02,1.7,.29,1.7,1.61,0,4.21-.1,4.35-4.34,4.35-6.37,0-12.74,0-19.11,0-2.23,0-3.03-.76-3.03-3.03,0-3.37-.39-2.87,2.77-2.89,3.46-.03,6.93,0,10.39,0Z" style="fill:#0070c0;"/><path d="M96.39,98.35c3.92,0,7.85,.03,11.77-.02,1.12-.02,1.63,.31,1.48,1.47-.05,.4,0,.81,0,1.22-.05,2.56-.75,3.26-3.28,3.26-6.78,0-13.55,0-20.33,0-2.28,0-2.82-.5-2.83-2.76-.02-3.82-.37-3.13,3.12-3.17,3.36-.04,6.73,0,10.09,0Z" style="fill:#0070c0;"/><path d="M31.25,92.34c-3.93,0-7.86-.03-11.78,.02-1.11,.02-1.63-.3-1.49-1.47,.07-.6-.02-1.23,.05-1.83,.22-1.87,1.02-2.61,2.9-2.62,6.94-.01,13.88-.01,20.82,0,1.95,0,2.67,.71,2.69,2.68,.04,3.94,.33,3.16-3.08,3.21-3.37,.05-6.73,.01-10.1,.01Z" style="fill:#0070c0;"/><path d="M96.29,56.92c-3.83,0-7.65-.04-11.48,.02-1.27,.02-1.66-.44-1.66-1.7,0-4.17,.18-4.39,4.39-4.39,6.22,0,12.45,0,18.67,0,2.74,0,4.63,3.08,3.3,5.48-.21,.37-1.04,.56-1.58,.56-3.88,.05-7.75,.03-11.63,.03Z" style="fill:#0070c0;"/></svg>