<?xml version="1.0" encoding="UTF-8"?><svg id="Layer_1" xmlns="http://www.w3.org/2000/svg" viewBox="0 0 131 125"><path d="M65.01,100.49c-16.22,0-32.45,0-48.67,0-2.98,0-3.54-.57-3.54-3.59,0-6.47,.03-12.94-.02-19.41-.01-1.55,.52-2.63,1.76-3.55,4.78-3.54,9.49-7.17,14.28-10.69,1.11-.82,1.72-1.74,1.49-3.08-.55-3.22,.87-5.17,3.48-7.05,9.83-7.09,19.5-14.41,29.18-21.71,1.51-1.14,2.66-1.17,4.19-.02,10.24,7.72,20.53,15.37,30.84,23.01,1.28,.95,2.05,2.01,1.82,3.66-.06,.4,.04,.82-.02,1.22-.29,2.02,.57,3.33,2.22,4.51,4.59,3.3,9.04,6.8,13.59,10.15,1.26,.92,1.77,1.98,1.76,3.53-.06,6.58-.02,13.17-.03,19.76,0,2.68-.61,3.27-3.31,3.27-16.34,0-32.68,0-49.02,0Zm30.82-23.61c0-5.77-.04-11.54,.03-17.31,.01-1.3-.4-2.14-1.44-2.92-9.33-6.98-18.65-14-27.92-21.06-1.13-.86-1.92-.67-2.93,.1-9.3,7.04-18.6,14.06-27.94,21.04-1,.75-1.37,1.57-1.36,2.8,.04,11.65,.04,23.31,0,34.96,0,1.51,.47,2.07,2,2.06,6.71-.05,13.42-.01,20.13-.03,2.02,0,2.26-.27,2.27-2.37,.01-3.61,.07-7.23-.02-10.84-.04-1.78,.85-2.45,2.41-2.48,2.62-.05,5.25-.07,7.88,0,1.95,.06,2.52,.74,2.53,2.75,.02,3.55,.05,7.11-.01,10.66-.03,1.63,.56,2.32,2.24,2.3,6.71-.05,13.42-.04,20.13,0,1.47,0,2.07-.44,2.05-2.01-.08-5.88-.03-11.77-.03-17.66Zm4.25-9.63c-.13,.92-.26,1.42-.26,1.91-.01,8.45,0,16.9-.02,25.35,0,1.41,.55,2.03,1.96,2.02,3.33-.03,6.65-.04,9.98,0,1.33,.02,1.88-.5,1.87-1.86-.04-5.25,.05-10.49-.08-15.73-.02-.94-.65-2.14-1.39-2.74-3.29-2.69-6.72-5.22-10.11-7.79-.49-.37-1.06-.64-1.95-1.17Zm-69.96-.06c-.6,.3-.88,.39-1.1,.56-3.84,2.92-7.71,5.83-11.49,8.83-.48,.38-.77,1.28-.78,1.95-.08,5.47-.05,10.93-.11,16.4-.01,1.25,.54,1.62,1.69,1.61,3.2-.03,6.41,0,9.61-.01,2.18,0,2.37-.21,2.38-2.42,0-8.26,0-16.52,0-24.78,0-.61-.1-1.22-.19-2.14Zm37.69,23.64c0-1.28-.07-2.57,.02-3.84,.1-1.5-.52-2.18-2-2.14-.52,.01-1.05,0-1.57,0-1.33,0-2.03,.54-1.98,2.01,.08,2.21,.02,4.42,.02,6.63,0,3.05,.03,3.08,3.15,3.04,.35,0,.81,.12,1.03-.06,.51-.41,1.21-.92,1.28-1.47,.18-1.37,.06-2.79,.07-4.18Z" style="fill:#e54217;"/><path d="M65.08,18.61c.87,.55,1.64,.95,2.32,1.46,8.3,6.23,16.58,12.49,24.87,18.73,7.59,5.71,15.19,11.42,22.78,17.13,.47,.35,.92,.72,1.38,1.08,.9,.71,1.26,1.6,.54,2.58-.73,.99-1.81,1.1-2.8,.44-1.6-1.07-3.12-2.25-4.66-3.41-14.15-10.67-28.31-21.33-42.41-32.07-1.54-1.18-2.56-1.13-4.09,.03-15.46,11.74-30.98,23.4-46.48,35.08-.95,.71-1.91,1.51-3.04,.27-1.07-1.16-.9-2.1,.7-3.31,4.51-3.41,9.04-6.8,13.56-10.2,11.69-8.79,23.39-17.59,35.09-26.38,.68-.51,1.43-.91,2.25-1.43Z" style="fill:#e54217;"/></svg>