<svg id="etUsBflIM0n1" xmlns="http://www.w3.org/2000/svg" xmlns:xlink="http://www.w3.org/1999/xlink" viewBox="0 0 295.32 279.22" shape-rendering="geometricPrecision" text-rendering="geometricPrecision">
<style><![CDATA[
#etUsBflIM0n2_to {animation: etUsBflIM0n2_to__to 5000ms linear infinite normal forwards}@keyframes etUsBflIM0n2_to__to { 0% {transform: translate(147.660009px,139.609999px)} 92% {transform: translate(147.660009px,139.609999px)} 100% {transform: translate(147.660009px,139.609999px)}} #etUsBflIM0n2_ts {animation: etUsBflIM0n2_ts__ts 5000ms linear infinite normal forwards}@keyframes etUsBflIM0n2_ts__ts { 0% {transform: scale(1.207603,1.207602)} 18% {transform: scale(1.207603,1.207602);animation-timing-function: cubic-bezier(0.47,0,0.745,0.715)} 22% {transform: scale(1.329841,1.32984);animation-timing-function: cubic-bezier(0.47,0,0.745,0.715)} 26% {transform: scale(1.207603,1.207602)} 92% {transform: scale(1.207603,1.207602)} 100% {transform: scale(0.276974,0.276973)}} #etUsBflIM0n2 {animation: etUsBflIM0n2_c_o 5000ms linear infinite normal forwards}@keyframes etUsBflIM0n2_c_o { 0% {opacity: 1} 92% {opacity: 1} 100% {opacity: 0}} #etUsBflIM0n4_to {animation: etUsBflIM0n4_to__to 5000ms linear infinite normal forwards}@keyframes etUsBflIM0n4_to__to { 0% {transform: translate(137.066673px,164.285217px);animation-timing-function: cubic-bezier(0.55,0.055,0.675,0.19)} 10% {transform: translate(137.066673px,164.285217px)} 100% {transform: translate(137.066673px,164.285217px)}} #etUsBflIM0n4_ts {animation: etUsBflIM0n4_ts__ts 5000ms linear infinite normal forwards}@keyframes etUsBflIM0n4_ts__ts { 0% {transform: scale(0.070643,0.070643);animation-timing-function: cubic-bezier(0.55,0.055,0.675,0.19)} 10% {transform: scale(1,1)} 100% {transform: scale(1,1)}} #etUsBflIM0n4 {animation: etUsBflIM0n4_c_o 5000ms linear infinite normal forwards}@keyframes etUsBflIM0n4_c_o { 0% {opacity: 0;animation-timing-function: cubic-bezier(0.55,0.055,0.675,0.19)} 10% {opacity: 1} 100% {opacity: 1}} #etUsBflIM0n6_to {animation: etUsBflIM0n6_to__to 5000ms linear infinite normal forwards}@keyframes etUsBflIM0n6_to__to { 0% {transform: translate(135.919926px,110.375001px)} 12% {transform: translate(135.919926px,110.375001px)} 16% {transform: translate(117.386745px,53.669998px)} 100% {transform: translate(117.386745px,53.669998px)}} #etUsBflIM0n6_ts {animation: etUsBflIM0n6_ts__ts 5000ms linear infinite normal forwards}@keyframes etUsBflIM0n6_ts__ts { 0% {transform: scale(0.420985,0.420985)} 12% {transform: scale(0.420985,0.420985)} 16% {transform: scale(1,1)} 100% {transform: scale(1,1)}} #etUsBflIM0n6 {animation: etUsBflIM0n6_c_o 5000ms linear infinite normal forwards}@keyframes etUsBflIM0n6_c_o { 0% {opacity: 0} 12% {opacity: 0} 16% {opacity: 1} 100% {opacity: 1}} #etUsBflIM0n7_to {animation: etUsBflIM0n7_to__to 5000ms linear infinite normal forwards}@keyframes etUsBflIM0n7_to__to { 0% {transform: translate(110.190811px,111.280006px)} 10% {transform: translate(110.190811px,111.280006px)} 14% {transform: translate(91.190811px,91.280006px)} 100% {transform: translate(91.190811px,91.280006px)}} #etUsBflIM0n7_ts {animation: etUsBflIM0n7_ts__ts 5000ms linear infinite normal forwards}@keyframes etUsBflIM0n7_ts__ts { 0% {transform: scale(0.172061,0.172061)} 10% {transform: scale(0.172061,0.172061)} 14% {transform: scale(1,1)} 100% {transform: scale(1,1)}} #etUsBflIM0n7 {animation: etUsBflIM0n7_c_o 5000ms linear infinite normal forwards}@keyframes etUsBflIM0n7_c_o { 0% {opacity: 0} 10% {opacity: 0} 14% {opacity: 1} 100% {opacity: 1}} #etUsBflIM0n8_to {animation: etUsBflIM0n8_to__to 5000ms linear infinite normal forwards}@keyframes etUsBflIM0n8_to__to { 0% {transform: translate(161.154831px,100.375004px)} 14% {transform: translate(161.154831px,100.375004px)} 18% {transform: translate(161.154831px,70.375004px)} 100% {transform: translate(161.154831px,70.375004px)}} #etUsBflIM0n8_ts {animation: etUsBflIM0n8_ts__ts 5000ms linear infinite normal forwards}@keyframes etUsBflIM0n8_ts__ts { 0% {transform: scale(0.210091,0.210091)} 14% {transform: scale(0.210091,0.210091)} 18% {transform: scale(1,1)} 100% {transform: scale(1,1)}} #etUsBflIM0n8 {animation: etUsBflIM0n8_c_o 5000ms linear infinite normal forwards}@keyframes etUsBflIM0n8_c_o { 0% {opacity: 0} 14% {opacity: 0} 18% {opacity: 1} 100% {opacity: 1}} #etUsBflIM0n9_ts {animation: etUsBflIM0n9_ts__ts 5000ms linear infinite normal forwards}@keyframes etUsBflIM0n9_ts__ts { 0% {transform: translate(132.315002px,99.140003px) scale(0.371104,0.371104)} 18% {transform: translate(132.315002px,99.140003px) scale(0.371104,0.371104);animation-timing-function: cubic-bezier(0.42,0,0.58,1)} 20% {transform: translate(132.315002px,99.140003px) scale(1.978723,1.978723);animation-timing-function: cubic-bezier(0.42,0,0.58,1)} 22% {transform: translate(132.315002px,99.140003px) scale(1,1)} 100% {transform: translate(132.315002px,99.140003px) scale(1,1)}} #etUsBflIM0n9 {animation: etUsBflIM0n9_c_o 5000ms linear infinite normal forwards}@keyframes etUsBflIM0n9_c_o { 0% {opacity: 0} 18% {opacity: 0;animation-timing-function: cubic-bezier(0.42,0,0.58,1)} 20% {opacity: 1} 100% {opacity: 1}} #etUsBflIM0n10_ts {animation: etUsBflIM0n10_ts__ts 5000ms linear infinite normal forwards}@keyframes etUsBflIM0n10_ts__ts { 0% {transform: translate(96.084999px,59.839998px) scale(0.445755,0.445755)} 18% {transform: translate(96.084999px,59.839998px) scale(0.445755,0.445755);animation-timing-function: cubic-bezier(0.42,0,0.58,1)} 20% {transform: translate(96.084999px,59.839998px) scale(2.202171,2.202168);animation-timing-function: cubic-bezier(0.42,0,0.58,1)} 22% {transform: translate(96.084999px,59.839998px) scale(1,1)} 100% {transform: translate(96.084999px,59.839998px) scale(1,1)}} #etUsBflIM0n10 {animation: etUsBflIM0n10_c_o 5000ms linear infinite normal forwards}@keyframes etUsBflIM0n10_c_o { 0% {opacity: 0} 18% {opacity: 0;animation-timing-function: cubic-bezier(0.42,0,0.58,1)} 20% {opacity: 1} 100% {opacity: 1}} #etUsBflIM0n11_ts {animation: etUsBflIM0n11_ts__ts 5000ms linear infinite normal forwards}@keyframes etUsBflIM0n11_ts__ts { 0% {transform: translate(141.679993px,55.494999px) scale(-0.279999,-0.279999)} 18% {transform: translate(141.679993px,55.494999px) scale(-0.279999,-0.279999);animation-timing-function: cubic-bezier(0.42,0,0.58,1)} 20% {transform: translate(141.679993px,55.494999px) scale(1.844968,1.844968);animation-timing-function: cubic-bezier(0.42,0,0.58,1)} 22% {transform: translate(141.679993px,55.494999px) scale(1,1)} 100% {transform: translate(141.679993px,55.494999px) scale(1,1)}} #etUsBflIM0n11 {animation: etUsBflIM0n11_c_o 5000ms linear infinite normal forwards}@keyframes etUsBflIM0n11_c_o { 0% {opacity: 0} 18% {opacity: 0;animation-timing-function: cubic-bezier(0.42,0,0.58,1)} 20% {opacity: 1} 100% {opacity: 1}}
]]></style>
<g id="etUsBflIM0n2_to" transform="translate(147.660009,139.609999)"><g id="etUsBflIM0n2_ts" transform="scale(1.207603,1.207602)"><g id="etUsBflIM0n2" transform="translate(-137.066681,-132.17469)"><g><g id="etUsBflIM0n4_to" transform="translate(137.066673,164.285217)"><g id="etUsBflIM0n4_ts" transform="scale(0.070643,0.070643)"><g id="etUsBflIM0n4" transform="translate(-137.066673,-164.285217)" opacity="0"><path d="M170.6,137.21c7.82,3.26,11.57,9.04,10.05,18.06c7.86,2.35,11.75,7.62,10.73,15.88c12.81,6.76,14.43,16.01,4.83,26.53-5.06,5.55-9.96,11.26-15.2,16.62-21.6,22.08-56.42,24.42-78.36,5.28-12.66-11.04-17.98-25.69-18.07-41.91-.06-11.92-3.08-22.21-9.82-31.87-1.95-2.79-3.17-6.87-2.98-10.26.6-10.6,12.89-16.24,20.98-9.37c5.08,4.32,9,10.17,12.88,15.72c4.51,6.44,6.83,7.41,13.36,2.9c5.06-3.49,9.98-7.31,14.41-11.56c10.83-10.39,21.38-21.08,31.96-31.73c6.66-6.7,15.24-7.33,21.25-1.35c5.9,5.86,5.58,14.36-.84,20.95-4.89,5.02-9.85,9.97-14.76,14.97-.2.2-.22.57-.43,1.15l.01-.01Zm-58.21,81.22c19.63,14.87,51.92,7.8,69.71-14.93-6.61-2.74-10.41-7.57-10.36-14.72-10.06-2.42-12.76-5.83-13.83-17.04-13.42-5.54-15.44-16.03-5.09-26.41c9.3-9.33,18.63-18.62,27.92-27.96c4.39-4.42,4.9-9.29,1.45-12.69-3.62-3.57-8.13-2.95-12.62,1.59-9.14,9.25-18.14,18.64-27.55,27.61-8.41,8.01-16.76,16.25-27.09,19.97-.97,5.19-1.41,9.84-2.86,14.14-.59,1.76-3.85,4.23-5.09,3.83-3.47-1.11-1.67-3.94-.59-6.17c2.68-5.56,1.98-10.56-2.03-15.3-2.03-2.4-3.48-5.27-5.41-7.77-2.94-3.81-5.87-7.66-9.18-11.13-2.38-2.49-5.5-3-8.61-.82-3.21,2.25-3.85,5.4-2.72,8.85.61,1.85,1.84,3.53,2.97,5.17c6.1,8.9,9.5,18.48,9.17,29.53-.29,9.74,1.57,19.27,6.17,28.05c5.35,10.22,17.78,12.8,26.66,5.44c2.16-1.79,3.75-4.28,5.94-6.03c1.3-1.04,3.26-1.24,4.93-1.82-.05,1.9.64,4.34-.28,5.61-5.16,7.12-11.73,12.27-21.59,12.97l-.02.03Zm56.25-75.19c-6.26-.09-15.96,9.62-15.95,14.35.01,5.47,6.15,9.69,10.41,6.86c3.44-2.28,6.99-4.87,9.35-8.15c1.55-2.15,1.98-6.07,1.17-8.66-.67-2.14-3.87-3.49-4.98-4.4Zm2.22,39.25c1.82-.38,2.69-.29,3.08-.68c3.7-3.76,7.68-7.34,10.74-11.57.9-1.24-.16-5.3-1.6-6.47-1.67-1.35-5.34-2.03-7.11-1.07-3.71,2-7.21,4.89-9.86,8.17-1.28,1.58-1.28,5.24-.36,7.29.92,2.03,3.71,3.22,5.11,4.33Zm12.86,14.74c6.79.18,13.46-8.95,11.84-14-1.84-5.75-6.89-6.93-11.22-2.6-1.64,1.64-3.86,3.07-4.68,5.06-.91,2.21-1.33,5.29-.47,7.37.86,2.06,3.57,3.35,4.53,4.18v-.01Z" fill="#52b3e5"/></g></g></g><g id="etUsBflIM0n6_to" transform="translate(135.919926,110.375001)"><g id="etUsBflIM0n6_ts" transform="scale(0.420985,0.420985)"><path id="etUsBflIM0n6" d="M114.21,31.82c.72,1.64,1.68,3.23,2.13,4.94c2.82,10.94,5.65,21.88,8.13,32.91.39,1.74-1,3.89-1.57,5.85-1.46-1.43-3.76-2.62-4.23-4.31-3.03-11.05-5.77-22.19-8.33-33.37-.42-1.84.54-4,.87-6.02c1,0,2,0,3,0Z" transform="translate(-117.386745,-53.669998)" opacity="0" fill="#52b3e5"/></g></g><g id="etUsBflIM0n7_to" transform="translate(110.190811,111.280006)"><g id="etUsBflIM0n7_ts" transform="scale(0.172061,0.172061)"><path id="etUsBflIM0n7" d="M104.75,107.82c-1.126803.084742-2.64-1.85-3.66-2.86-8.23-8.2-16.51-16.37-24.54-24.77-1.16-1.21-3.095182-4.22-1.6-5.45c2.564818-1.651011,4.58.07,5.8,1.23c8.52,8.14,16.82,16.52,25.02,24.99c1.06,1.1,2.211269,2.39,2.371269,4c.040161,2.101368-1.751269,2.86-3.401269,2.86h.01Z" transform="translate(-91.190811,-91.280006)" opacity="0" fill="#52b3e5"/></g></g><g id="etUsBflIM0n8_to" transform="translate(161.154831,100.375004)"><g id="etUsBflIM0n8_ts" transform="scale(0.210091,0.210091)"><path id="etUsBflIM0n8" d="M164.22,70.58c0,5.66.25,11.34-.15,16.97-.13,1.8-1.98,3.48-3.05,5.22-.99-1.63-2.79-3.24-2.82-4.89-.25-11.65-.25-23.3,0-34.95.03-1.67,1.79-3.3,2.75-4.95c1.09,1.71,3,3.36,3.12,5.13.4,5.8.15,11.64.15,17.47Z" transform="translate(-161.154831,-70.375004)" opacity="0" fill="#52b3e5"/></g></g><g id="etUsBflIM0n9_ts" transform="translate(132.315002,99.140003) scale(0.371104,0.371104)"><path id="etUsBflIM0n9" d="M127.34,106.65c-.81-2.76-1.81-6.13-2.78-9.43c2.14-1.5,5.1-3.58,7.96-5.59c2.12,1.65,4.98,3.86,7.55,5.85-.88,2.82-1.96,6.31-2.84,9.16h-9.89v.01Z" transform="translate(-132.315002,-99.140003)" opacity="0" fill="#52b3e5"/></g><g id="etUsBflIM0n10_ts" transform="translate(96.084999,59.839998) scale(0.445755,0.445755)"><path id="etUsBflIM0n10" d="M94.56,54.01c2.31.61,4.8,1.27,7,1.86v7.42c-1.93.67-4.38,1.53-6.81,2.38-1.09-1.56-2.55-3.65-4.14-5.92c1.01-1.47,2.48-3.6,3.95-5.74Z" transform="translate(-96.084999,-59.839998)" opacity="0" fill="#52b3e5"/></g><g id="etUsBflIM0n11_ts" transform="translate(141.679993,55.494999) scale(-0.279999,-0.279999)"><path id="etUsBflIM0n11" d="M135.93,56.59c.78-2.19,1.61-4.49,2.36-6.61h7.25c.57,2.17,1.24,4.69,1.89,7.18-1.72,1.09-3.89,2.46-6.09,3.85-1.45-1.18-3.44-2.82-5.41-4.43v.01Z" transform="translate(-141.679993,-55.494999)" opacity="0" fill="#52b3e5"/></g></g></g></g></g></svg>
