<svg id="eU0OGgVrmhp1" xmlns="http://www.w3.org/2000/svg" xmlns:xlink="http://www.w3.org/1999/xlink" viewBox="0 0 295.3 279.2" shape-rendering="geometricPrecision" text-rendering="geometricPrecision">
<style><![CDATA[
#eU0OGgVrmhp3_tr {animation: eU0OGgVrmhp3_tr__tr 4000ms linear infinite normal forwards}@keyframes eU0OGgVrmhp3_tr__tr { 0% {transform: translate(143.100002px,50.840298px) rotate(0deg);animation-timing-function: cubic-bezier(0.47,0,0.745,0.715)} 25% {transform: translate(143.100002px,50.840298px) rotate(-23.866185deg);animation-timing-function: cubic-bezier(0.47,0,0.745,0.715)} 75% {transform: translate(143.100002px,50.840298px) rotate(20.986358deg);animation-timing-function: cubic-bezier(0.47,0,0.745,0.715)} 100% {transform: translate(143.100002px,50.840298px) rotate(-0.756888deg)}} #eU0OGgVrmhp5_ts {animation: eU0OGgVrmhp5_ts__ts 4000ms linear infinite normal forwards}@keyframes eU0OGgVrmhp5_ts__ts { 0% {transform: translate(156.587311px,179.749992px) scale(0.06036,0.06036);animation-timing-function: cubic-bezier(0.47,0,0.745,0.715)} 10% {transform: translate(156.587311px,179.749992px) scale(0.76411,0.76411);animation-timing-function: cubic-bezier(0.47,0,0.745,0.715)} 90% {transform: translate(156.587311px,179.749992px) scale(0.76411,0.76411);animation-timing-function: cubic-bezier(0.47,0,0.745,0.715)} 100% {transform: translate(156.587311px,179.749992px) scale(0.06036,0.06036)}} #eU0OGgVrmhp6_ts {animation: eU0OGgVrmhp6_ts__ts 4000ms linear infinite normal forwards}@keyframes eU0OGgVrmhp6_ts__ts { 0% {transform: translate(118.747833px,179.866196px) scale(0.06036,0.06036);animation-timing-function: cubic-bezier(0.47,0,0.745,0.715)} 10% {transform: translate(118.747833px,179.866196px) scale(0.76411,0.76411);animation-timing-function: cubic-bezier(0.47,0,0.745,0.715)} 90% {transform: translate(118.747833px,179.866196px) scale(0.76411,0.76411);animation-timing-function: cubic-bezier(0.47,0,0.745,0.715)} 100% {transform: translate(118.747833px,179.866196px) scale(0.06036,0.06036)}}
]]></style>
<g><g id="eU0OGgVrmhp3_tr" transform="translate(143.100002,50.840298) rotate(0)"><g transform="translate(-143.100002,-50.840298)"><path d="M152.3,86.6c7.5-1.8,11.8,2.8,16.2,7.3c5.9,5.9,11.9,11.7,17.9,17.5c2.3,2.2,3.4,4.8,3.4,8c0,33.4,0,66.7,0,100c0,6.2-4.3,10.5-10.6,10.5-24,0-48.1,0-72.1,0-6.4,0-10.7-4.3-10.7-10.7c0-33.3,0-66.5,0-99.8c0-3.2,1.1-5.8,3.4-8c7.5-7.3,15-14.8,22.6-22c1.8-1.7,4.4-2.5,6.8-3.9-1.5-6.2-1.7-12.8-.2-19.5.9-4.1,2.2-7.9,5-11.2c4.9-5.7,13.1-5.2,17.1,1.2c3.1,5,3.3,10.6,2.9,16.2-.3,4.7-1.1,9.2-1.7,14.4v0Zm-9.2,6.6c-4.8,0-9.3-.1-13.9.1-1,0-2,.9-2.8,1.7-7.2,6.9-14.3,13.8-21.3,20.9-1.1,1.1-1.8,2.9-1.8,4.4-.1,32.7-.1,65.4-.1,98.1c0,3.7,1.1,4.8,4.7,4.8c23.5,0,46.9,0,70.4,0c3.6,0,4.7-1.1,4.7-4.8c0-32.6,0-65.2,0-97.8c0-2-.6-3.5-2-4.9-7-6.7-14-13.4-20.8-20.4-2.8-2.8-6-2.3-9-1.9-.9.1-1.5,3-2.2,4.6-.1.1,0,.3.1.6.5.4,1.1.8,1.7,1.2c5.1,3.7,6.9,10.2,4.5,16-2.4,5.7-8.4,8.9-14.7,7.8-5.9-1.1-10.4-6.3-10.7-12.4-.2-6.4,3.6-11.9,9.8-13.3c2.8-.7,3.1-2.3,3.4-4.7v0Zm4.5-22.4c-.4-2.8-.7-5.9-1.3-9-.4-1.9-1.4-3.7-3.7-4s-3.5,1.3-4.5,3.1c-.7,1.3-1.4,2.8-1.8,4.2-1.7,5.4-1.9,11-1,16.6.5,3.1,2.4,4.7,5.6,4.7.7,0,1.5-.1,2.2,0c1.6.2,2.2-.5,2.4-2c.6-4.4,1.3-8.8,2.1-13.6Zm1.9,39.3c-.1-.3-.2-1.2-.5-2-1.1-2.8-1.5-4-4.3-3-1.3.5-2.9.7-4.2.4-1.5-.3-2.8,1.2-3.3,2.4-1.1,2.4-.6,5.2,1.3,7.2c2,2,4.4,2.4,6.9,1.5s4.1-3.3,4.1-6.5Z" fill="#52b3e5"/><g id="eU0OGgVrmhp5_ts" transform="translate(156.587311,179.749992) scale(0.06036,0.06036)"><path d="M177.5,179.9c-.1,5.8-.8,11.7-3.3,17.1-3.5,7.5-9.3,11.8-17.7,11.8-8.2,0-14.1-4.2-17.2-11.6-4.9-11.6-4.8-23.4.1-34.9c3.1-7.4,9-11.6,17.2-11.6c8.4,0,14,4.3,17.5,11.6c2.7,5.5,3.3,11.4,3.4,17.6v0Zm-13.6-.5c0-2.9.3-5.9-.1-8.7-.5-4.1-1.4-8.1-2.5-12-.6-2.1-2.2-3.5-4.7-3.6-2.5,0-3.9,1.6-4.7,3.6-.7,1.7-1.3,3.5-1.6,5.3-1.6,10-1.6,20-.3,29.9.3,2.7,1.2,5.4,2.4,7.8c1.8,3.4,6,3.4,8.1.1.9-1.3,1.6-2.9,1.9-4.4.9-5.9,1.8-17.9,1.5-18Z" transform="translate(-156.587311,-179.749992)" fill="#52b3e5"/></g><g id="eU0OGgVrmhp6_ts" transform="translate(118.747833,179.866196) scale(0.06036,0.06036)"><path d="M116.3,159.3c2.8-.4,4.3.8,4.6,3.4c1,.1,2.1.3,3.2.4c4.2.7,4.6,1.2,3.6,5.9-1.1-.4-2.2-.9-3.3-1.2s-2.2-.4-3.6-.7c0,3.5-.1,6.7.1,9.9c0,.5.8,1,1.4,1.4c1.6.9,3.4,1.6,4.9,2.7c4.8,3.4,4.7,9.3-.4,12.4-1.7,1-3.7,1.6-6,2.5-1.1,1,1.9,4.7-2.4,4.5-3.6-.1-1-3.1-2.5-4.4-1.6-.3-3.6-.5-5.4-1-4-1-4.3-1.7-3.1-5.9c2.8.9,5.7,1.8,9.1,2.8c0-3.6.1-6.6-.1-9.7c0-.5-.7-1.1-1.3-1.5-1.3-.8-2.8-1.3-4.1-2.1-5.3-3.2-5.6-9.5-.6-13.2.8-.6,1.6-1.2,2.5-1.4c2.6-.6,4.2-1.8,3.4-4.8v0Zm-.2,16.3v-7.9c-2.2.7-3.2,2-3.2,4c.1,2,1.2,3.2,3.2,3.9Zm4.7,15.5c2-.6,3.4-1.4,3.5-3.4.1-2.3-1.5-3.3-3.5-4.4v7.8Z" transform="translate(-118.747833,-179.866196)" fill="#52b3e5"/></g></g></g></g></svg>
