<svg id="eS5gsvWzimt1" xmlns="http://www.w3.org/2000/svg" xmlns:xlink="http://www.w3.org/1999/xlink" viewBox="0 0 295.32 279.22" shape-rendering="geometricPrecision" text-rendering="geometricPrecision">
<style><![CDATA[
#eS5gsvWzimt2_ts {animation: eS5gsvWzimt2_ts__ts 5000ms linear infinite normal forwards}@keyframes eS5gsvWzimt2_ts__ts { 0% {transform: translate(149.437508px,139.587944px) scale(0.205336,0.205336)} 4% {transform: translate(149.437508px,139.587944px) scale(1.331473,1.331474)} 96% {transform: translate(149.437508px,139.587944px) scale(1.331473,1.331474)} 100% {transform: translate(149.437508px,139.587944px) scale(0.205336,0.205336)}} #eS5gsvWzimt2 {animation: eS5gsvWzimt2_c_o 5000ms linear infinite normal forwards}@keyframes eS5gsvWzimt2_c_o { 0% {opacity: 0} 4% {opacity: 1} 96% {opacity: 1} 100% {opacity: 0}} #eS5gsvWzimt6_ts {animation: eS5gsvWzimt6_ts__ts 5000ms linear infinite normal forwards}@keyframes eS5gsvWzimt6_ts__ts { 0% {transform: translate(185.185097px,150.329605px) scale(1,1)} 6% {transform: translate(185.185097px,150.329605px) scale(1,1)} 8% {transform: translate(185.185097px,150.329605px) scale(0.263938,0.263938)} 10% {transform: translate(185.185097px,150.329605px) scale(1,1)} 40% {transform: translate(185.185097px,150.329605px) scale(1,1)} 42% {transform: translate(185.185097px,150.329605px) scale(0.263938,0.263938)} 44% {transform: translate(185.185097px,150.329605px) scale(1,1)} 100% {transform: translate(185.185097px,150.329605px) scale(1,1)}} #eS5gsvWzimt7_ts {animation: eS5gsvWzimt7_ts__ts 5000ms linear infinite normal forwards}@keyframes eS5gsvWzimt7_ts__ts { 0% {transform: translate(114.08506px,150.329903px) scale(1,1)} 6% {transform: translate(114.08506px,150.329903px) scale(1,1)} 8% {transform: translate(114.08506px,150.329903px) scale(0.263938,0.263938)} 10% {transform: translate(114.08506px,150.329903px) scale(1,1)} 40% {transform: translate(114.08506px,150.329903px) scale(1,1)} 42% {transform: translate(114.08506px,150.329903px) scale(0.263938,0.263938)} 44% {transform: translate(114.08506px,150.329903px) scale(1,1)} 100% {transform: translate(114.08506px,150.329903px) scale(1,1)}} #eS5gsvWzimt8_ts {animation: eS5gsvWzimt8_ts__ts 5000ms linear infinite normal forwards}@keyframes eS5gsvWzimt8_ts__ts { 0% {transform: translate(149.437504px,72.840808px) scale(0.522555,0.522555)} 10% {transform: translate(149.437504px,72.840808px) scale(0.522555,0.522555)} 20% {transform: translate(149.437504px,72.840808px) scale(1.050563,1.050563)} 30% {transform: translate(149.437504px,72.840808px) scale(0.522555,0.522555)} 62.2% {transform: translate(149.437504px,72.840808px) scale(0.522555,0.522555)} 72.2% {transform: translate(149.437504px,72.840808px) scale(1.050563,1.050563)} 78% {transform: translate(149.437504px,72.840808px) scale(0.522555,0.522555)} 100% {transform: translate(149.437504px,72.840808px) scale(0.522555,0.522555)}} #eS5gsvWzimt9_ts {animation: eS5gsvWzimt9_ts__ts 5000ms linear infinite normal forwards}@keyframes eS5gsvWzimt9_ts__ts { 0% {transform: translate(150.062632px,186.033637px) scale(1,1);animation-timing-function: cubic-bezier(0.47,0,0.745,0.715)} 2% {transform: translate(150.062632px,186.033637px) scale(1.966667,1);animation-timing-function: cubic-bezier(0.47,0,0.745,0.715)} 4% {transform: translate(150.062632px,186.033637px) scale(1.966667,0.472798);animation-timing-function: cubic-bezier(0.47,0,0.745,0.715)} 6% {transform: translate(150.062632px,186.033637px) scale(0.855038,0.472798);animation-timing-function: cubic-bezier(0.47,0,0.745,0.715)} 8% {transform: translate(150.062632px,186.033637px) scale(1.55006,0.472798);animation-timing-function: cubic-bezier(0.47,0,0.745,0.715)} 10% {transform: translate(150.062632px,186.033637px) scale(2.262865,0.367562);animation-timing-function: cubic-bezier(0.47,0,0.745,0.715)} 12% {transform: translate(150.062632px,186.033637px) scale(2.262865,0.825117);animation-timing-function: cubic-bezier(0.47,0,0.745,0.715)} 14% {transform: translate(150.062632px,186.033637px) scale(0.953259,0.825117);animation-timing-function: cubic-bezier(0.47,0,0.745,0.715)} 16% {transform: translate(150.062632px,186.033637px) scale(0.560377,0.437719);animation-timing-function: cubic-bezier(0.47,0,0.745,0.715)} 18% {transform: translate(150.062632px,186.033637px) scale(1.55006,0.437719);animation-timing-function: cubic-bezier(0.47,0,0.745,0.715)} 20% {transform: translate(150.062632px,186.033637px) scale(0.986,0.437719)} 22% {transform: translate(150.062632px,186.033637px) scale(1.55006,0.437719);animation-timing-function: cubic-bezier(0.47,0,0.745,0.715)} 24% {transform: translate(150.062632px,186.033637px) scale(0.986,0.437719);animation-timing-function: cubic-bezier(0.47,0,0.745,0.715)} 26% {transform: translate(150.062632px,186.033637px) scale(1,1);animation-timing-function: cubic-bezier(0.47,0,0.745,0.715)} 28% {transform: translate(150.062632px,186.033637px) scale(1.966667,1);animation-timing-function: cubic-bezier(0.47,0,0.745,0.715)} 30% {transform: translate(150.062632px,186.033637px) scale(1.966667,0.15709);animation-timing-function: cubic-bezier(0.47,0,0.745,0.715)} 32% {transform: translate(150.062632px,186.033637px) scale(0.855038,0.472798);animation-timing-function: cubic-bezier(0.47,0,0.745,0.715)} 34% {transform: translate(150.062632px,186.033637px) scale(1.55006,0.472798);animation-timing-function: cubic-bezier(0.47,0,0.745,0.715)} 36% {transform: translate(150.062632px,186.033637px) scale(1.55006,0.998985);animation-timing-function: cubic-bezier(0.47,0,0.745,0.715)} 38% {transform: translate(150.062632px,186.033637px) scale(2.262865,0.998985);animation-timing-function: cubic-bezier(0.47,0,0.745,0.715)} 40% {transform: translate(150.062632px,186.033637px) scale(2.262865,0.367562);animation-timing-function: cubic-bezier(0.47,0,0.745,0.715)} 42% {transform: translate(150.062632px,186.033637px) scale(2.262865,0.825117);animation-timing-function: cubic-bezier(0.47,0,0.745,0.715)} 44% {transform: translate(150.062632px,186.033637px) scale(0.953259,0.825117);animation-timing-function: cubic-bezier(0.47,0,0.745,0.715)} 46% {transform: translate(150.062632px,186.033637px) scale(0.560377,0.437719);animation-timing-function: cubic-bezier(0.47,0,0.745,0.715)} 48% {transform: translate(150.062632px,186.033637px) scale(1.55006,0.437719);animation-timing-function: cubic-bezier(0.47,0,0.745,0.715)} 50% {transform: translate(150.062632px,186.033637px) scale(2.262865,0.367562);animation-timing-function: cubic-bezier(0.47,0,0.745,0.715)} 52% {transform: translate(150.062632px,186.033637px) scale(2.262865,0.825117);animation-timing-function: cubic-bezier(0.47,0,0.745,0.715)} 54% {transform: translate(150.062632px,186.033637px) scale(0.953259,0.825117);animation-timing-function: cubic-bezier(0.47,0,0.745,0.715)} 56% {transform: translate(150.062632px,186.033637px) scale(0.560377,0.437719);animation-timing-function: cubic-bezier(0.47,0,0.745,0.715)} 58% {transform: translate(150.062632px,186.033637px) scale(1.55006,0.437719);animation-timing-function: cubic-bezier(0.47,0,0.745,0.715)} 60% {transform: translate(150.062632px,186.033637px) scale(0.986,0.437719)} 64% {transform: translate(150.062632px,186.033637px) scale(0.560377,0.437719);animation-timing-function: cubic-bezier(0.47,0,0.745,0.715)} 66% {transform: translate(150.062632px,186.033637px) scale(1.55006,0.437719);animation-timing-function: cubic-bezier(0.47,0,0.745,0.715)} 68% {transform: translate(150.062632px,186.033637px) scale(2.262865,0.367562);animation-timing-function: cubic-bezier(0.47,0,0.745,0.715)} 70% {transform: translate(150.062632px,186.033637px) scale(2.262865,0.825117);animation-timing-function: cubic-bezier(0.47,0,0.745,0.715)} 72% {transform: translate(150.062632px,186.033637px) scale(0.953259,0.825117);animation-timing-function: cubic-bezier(0.47,0,0.745,0.715)} 74% {transform: translate(150.062632px,186.033637px) scale(0.560377,0.437719);animation-timing-function: cubic-bezier(0.47,0,0.745,0.715)} 76% {transform: translate(150.062632px,186.033637px) scale(1.55006,0.437719);animation-timing-function: cubic-bezier(0.47,0,0.745,0.715)} 78% {transform: translate(150.062632px,186.033637px) scale(0.986,0.437719)} 80% {transform: translate(150.062632px,186.033637px) scale(0.560377,0.437719);animation-timing-function: cubic-bezier(0.47,0,0.745,0.715)} 82% {transform: translate(150.062632px,186.033637px) scale(1.55006,0.437719);animation-timing-function: cubic-bezier(0.47,0,0.745,0.715)} 84% {transform: translate(150.062632px,186.033637px) scale(2.262865,0.367562);animation-timing-function: cubic-bezier(0.47,0,0.745,0.715)} 86% {transform: translate(150.062632px,186.033637px) scale(2.262865,0.825117);animation-timing-function: cubic-bezier(0.47,0,0.745,0.715)} 88% {transform: translate(150.062632px,186.033637px) scale(0.953259,0.825117);animation-timing-function: cubic-bezier(0.47,0,0.745,0.715)} 90% {transform: translate(150.062632px,186.033637px) scale(0.560377,0.437719);animation-timing-function: cubic-bezier(0.47,0,0.745,0.715)} 92% {transform: translate(150.062632px,186.033637px) scale(1.55006,0.437719);animation-timing-function: cubic-bezier(0.47,0,0.745,0.715)} 94% {transform: translate(150.062632px,186.033637px) scale(0.986,0.437719)} 96% {transform: translate(150.062632px,186.033637px) scale(0.560377,0.437719);animation-timing-function: cubic-bezier(0.47,0,0.745,0.715)} 98% {transform: translate(150.062632px,186.033637px) scale(1.55006,0.437719);animation-timing-function: cubic-bezier(0.47,0,0.745,0.715)} 100% {transform: translate(150.062632px,186.033637px) scale(0.986,0.437719)}}
]]></style>
<g id="eS5gsvWzimt2_ts" transform="translate(149.437508,139.587944) scale(0.205336,0.205336)"><g id="eS5gsvWzimt2" transform="translate(-149.437508,-139.587944)" opacity="0"><g><g><path d="M44.32,144.9c.38-.93.7-1.9,1.15-2.8c2.19-4.43,5.76-6.87,10.72-7.02c4.02-.12,8.06-.03,12.23-.03.15-2.12.19-4.15.45-6.15c1.83-14.2,13.42-24.48,27.8-24.55c15.19-.07,30.37-.02,45.56-.02.81,0,1.61,0,2.57,0c.04-.82.09-1.49.1-2.15c0-3.76-.12-7.53.05-11.28.12-2.62-.4-4.27-3-5.78-5.33-3.09-7.33-9.76-5.39-15.61s7.58-9.76,13.66-9.48c6.24.29,11.43,4.64,12.86,10.78c1.4,5.98-1.33,12.2-6.86,15.07-1.55.8-1.91,1.71-1.87,3.3.1,4.97.04,9.95.04,15.15.99,0,1.79,0,2.59,0c15.19,0,30.37-.05,45.56.02c13.61.06,24.81,9.17,27.55,22.45.54,2.59.56,5.28.85,8.25.77,0,1.7-.02,2.62,0c3.89.11,7.85-.19,11.65.45c5.49.94,9.27,5.9,9.3,11.47.06,10.87.06,21.74,0,32.61-.04,6.67-5.31,11.91-12.02,12.04-3.88.08-7.77.01-11.21.01-1.07,3.84-1.64,7.55-3.12,10.85-4.13,9.2-11.38,14.61-21.37,16.3-.39.07-.75.25-1.13.38h-112.07c-.31-.12-.6-.3-.92-.35-12-1.89-20.97-10.3-23.49-22.09-.35-1.64-.5-3.32-.76-5.08-4.08,0-8.04.1-11.99-.02-5.28-.16-9.02-2.75-11.21-7.55-.33-.73-.6-1.49-.9-2.23c0-12.31,0-24.62,0-36.93v-.01Zm105.42,67.34c17.37,0,34.75,0,52.12,0c12.94,0,21.92-8.97,21.92-21.91.01-19.07.01-38.14,0-57.21c0-12.92-8.99-21.89-21.94-21.89-34.82-.01-69.63-.01-104.45,0-12.94,0-21.92,8.98-21.93,21.91-.01,19.07-.01,38.14,0,57.21c0,12.92,9,21.88,21.94,21.89c17.44.01,34.88,0,52.33,0h.01ZM68.46,184.73v-42.83c-3.92,0-7.74-.03-11.55,0-3.69.04-5.69,2.04-5.72,5.72-.04,4.44-.01,8.88-.01,13.32c0,6.08-.03,12.16.02,18.24.02,3.07,1.89,5.4,4.65,5.5c4.15.14,8.31.04,12.61.04v.01Zm162.36-42.81v42.82c4.1,0,8.06.08,12.01-.03c2.66-.07,4.76-2.22,4.77-4.95.06-10.93.06-21.86,0-32.79-.02-2.85-2.09-4.94-4.92-5.02-3.89-.11-7.79-.03-11.87-.03h.01Z" fill="#52b3e5"/><g id="eS5gsvWzimt6_ts" transform="translate(185.185097,150.329605) scale(1,1)"><path d="M185.28,165.9c-8.66.03-15.71-6.96-15.68-15.57.03-8.5,6.99-15.48,15.53-15.57c8.46-.09,15.59,6.94,15.64,15.42.05,8.71-6.82,15.69-15.49,15.72Zm8.65-15.64c-.05-4.84-3.93-8.66-8.77-8.64-4.91.02-8.74,3.97-8.67,8.94.07,4.79,4.11,8.69,8.86,8.56c4.85-.13,8.63-4.04,8.58-8.86Z" transform="translate(-185.185097,-150.329605)" fill="#52b3e5"/></g><g id="eS5gsvWzimt7_ts" transform="translate(114.08506,150.329903) scale(1,1)"><path d="M114.04,165.9c-8.59,0-15.52-6.9-15.54-15.46-.02-8.65,7.01-15.72,15.59-15.68c8.51.04,15.54,7.04,15.58,15.52.04,8.61-6.97,15.62-15.63,15.62Zm8.74-15.35c.07-4.88-3.68-8.82-8.47-8.92-4.95-.11-8.91,3.73-8.96,8.65-.04,4.83,3.75,8.73,8.58,8.85c4.76.11,8.78-3.79,8.85-8.58Z" transform="translate(-114.08506,-150.329903)" fill="#52b3e5"/></g></g></g><g id="eS5gsvWzimt8_ts" transform="translate(149.437504,72.840808) scale(0.522555,0.522555)"><ellipse rx="24.542637" ry="24.542637" transform="translate(0,0)" fill="#52b3e5" stroke-width="0"/></g><g id="eS5gsvWzimt9_ts" transform="translate(150.062632,186.033637) scale(1,1)"><ellipse rx="12.604258" ry="11.763974" transform="translate(0,0)" fill="#52b3e5" stroke-width="0"/></g></g></g></svg>
