<svg id="em5xYcFlutq1" xmlns="http://www.w3.org/2000/svg" xmlns:xlink="http://www.w3.org/1999/xlink" viewBox="0 0 295.3 279.2" shape-rendering="geometricPrecision" text-rendering="geometricPrecision">
<style><![CDATA[
#em5xYcFlutq2_to {animation: em5xYcFlutq2_to__to 5000ms linear infinite normal forwards}@keyframes em5xYcFlutq2_to__to { 0% {transform: translate(147.735558px,144.300003px)} 94% {transform: translate(147.735558px,144.300003px);animation-timing-function: cubic-bezier(0,0,0.58,1)} 100% {transform: translate(109.26445px,144.300003px)}} #em5xYcFlutq2 {animation: em5xYcFlutq2_c_o 5000ms linear infinite normal forwards}@keyframes em5xYcFlutq2_c_o { 0% {opacity: 1} 94% {opacity: 1;animation-timing-function: cubic-bezier(0,0,0.58,1)} 100% {opacity: 0}} #em5xYcFlutq3_to {animation: em5xYcFlutq3_to__to 5000ms linear infinite normal forwards}@keyframes em5xYcFlutq3_to__to { 0% {transform: translate(94.840408px,204.748949px);animation-timing-function: cubic-bezier(0,0,0.58,1)} 10% {transform: translate(166.686661px,202.431633px)} 100% {transform: translate(166.686661px,202.431633px)}} #em5xYcFlutq3_ts {animation: em5xYcFlutq3_ts__ts 5000ms linear infinite normal forwards}@keyframes em5xYcFlutq3_ts__ts { 0% {transform: scale(1,1);animation-timing-function: cubic-bezier(0,0,0.58,1)} 10% {transform: scale(1,1)} 100% {transform: scale(1,1)}} #em5xYcFlutq3 {animation: em5xYcFlutq3_c_o 5000ms linear infinite normal forwards}@keyframes em5xYcFlutq3_c_o { 0% {opacity: 0;animation-timing-function: cubic-bezier(0,0,0.58,1)} 10% {opacity: 1} 100% {opacity: 1}} #em5xYcFlutq5_to {animation: em5xYcFlutq5_to__to 5000ms linear infinite normal forwards}@keyframes em5xYcFlutq5_to__to { 0% {transform: translate(157.361973px,88.806808px)} 20% {transform: translate(157.361973px,88.806808px);animation-timing-function: cubic-bezier(0,0,0.58,1)} 30% {transform: translate(87.361973px,88.806808px)} 100% {transform: translate(87.361973px,88.806808px)}} #em5xYcFlutq5_ts {animation: em5xYcFlutq5_ts__ts 5000ms linear infinite normal forwards}@keyframes em5xYcFlutq5_ts__ts { 0% {transform: scale(0.274668,0.274668)} 20% {transform: scale(0.274668,0.274668);animation-timing-function: cubic-bezier(0,0,0.58,1)} 30% {transform: scale(1,1)} 100% {transform: scale(1,1)}} #em5xYcFlutq5 {animation: em5xYcFlutq5_c_o 5000ms linear infinite normal forwards}@keyframes em5xYcFlutq5_c_o { 0% {opacity: 0} 20% {opacity: 0;animation-timing-function: cubic-bezier(0,0,0.58,1)} 30% {opacity: 1} 100% {opacity: 1}} #em5xYcFlutq8_to {animation: em5xYcFlutq8_to__to 5000ms linear infinite normal forwards}@keyframes em5xYcFlutq8_to__to { 0% {transform: translate(162.611691px,232.041702px)} 10% {transform: translate(162.611691px,232.041702px);animation-timing-function: cubic-bezier(0,0,0.58,1)} 20% {transform: translate(162.611691px,232.041702px)} 100% {transform: translate(162.611691px,232.041702px)}} #em5xYcFlutq8_ts {animation: em5xYcFlutq8_ts__ts 5000ms linear infinite normal forwards}@keyframes em5xYcFlutq8_ts__ts { 0% {transform: scale(0.186464,0.186462)} 10% {transform: scale(0.186464,0.186462);animation-timing-function: cubic-bezier(0,0,0.58,1)} 20% {transform: scale(1,1)} 100% {transform: scale(1,1)}} #em5xYcFlutq8 {animation: em5xYcFlutq8_c_o 5000ms linear infinite normal forwards}@keyframes em5xYcFlutq8_c_o { 0% {opacity: 0} 10% {opacity: 0;animation-timing-function: cubic-bezier(0,0,0.58,1)} 20% {opacity: 1} 100% {opacity: 1}}
]]></style>
<g id="em5xYcFlutq2_to" transform="translate(147.735558,144.300003)"><g id="em5xYcFlutq2" transform="translate(-147.735557,-144.300003)"><g id="em5xYcFlutq3_to" transform="translate(94.840408,204.748949)"><g id="em5xYcFlutq3_ts" transform="scale(1,1)"><path id="em5xYcFlutq3" d="M256.8,159.8v-15.3c0-1.5,0-5.5-4-6.9-3.8-1.3-6.2,1.5-7.3,2.7-1.2,1.4-2.5,2.8-3.7,4.3-1.9,2.2-3.9,4.5-5.9,6.7-2.7,2.9-4.4,6.4-5.4,10.5-.3,1.5-.7,3.1-1,4.7-1.2,5.6-2.4,11-4.2,16.2-2.2,25-21.8,20.6-22.5,20.8-.5.1-21.7-3.4-42.5,14.9c0,0-4.1,3.7-5.2,4.9-15.7,15.5-30.5,14.2-31.4,13.3c0,0,0,0,0,0s-6,.2-12,.9c-.1,0-.3,0-.4,0-5.6.2-14.1,1.2-21,7.6-3.3,3.1-6.6,6.4-9.7,9.6l-1.7,1.7c-1.1,1-3.5,3.5-2.1,7.1c1.4,3.7,5,3.8,6.7,3.9c1.1,0,2.2,0,3.3,0l141.1.2h5.3c2.1,0,4.2,0,6.3,0h.1c1.9,0,3.8,0,5.7,0c6.9-.1,11.7-4.7,11.7-11.3-.2-32.2-.2-64.4-.2-96.5Z" transform="translate(-166.686661,-202.431633)" opacity="0" fill="#52b3e5"/></g></g><g mask="url(#em5xYcFlutq6)"><g id="em5xYcFlutq5_to" transform="translate(157.361973,88.806808)"><g id="em5xYcFlutq5_ts" transform="scale(0.274668,0.274668)"><path id="em5xYcFlutq5" d="M130.2,147c.4-3.3,1.6-6.6,1.3-10.3v0c-1.2.6-2.3,1-3.3,1.5-7.4,3.6-15.1,5.9-23.5,6-7.7,0-15.2-1.1-22.3-4.1-16.9-7.3-28.2-19.8-32.7-37.6C45.2,84.6,48.5,68,60.4,53.7C78.1,32.3,108,27,131.2,40.9c3,1.8,3,1.8,3.6-1.8.2-1.2.6-2.5,1.1-3.6.8-1.8.2-2.8-1.4-3.5-4.6-1.9-9.2-4.1-13.9-5.6-8.7-2.7-17.7-2.9-26.8-1.7-37.2,5.2-62.3,41.9-53.6,78.6c4.2,17.5,13.9,31.2,29.2,40.6c18.5,11.2,38.1,12.6,58.3,4.8.9-.4,2.3-.4,2.5-1.7Z" transform="translate(-87.361973,-88.806808)" opacity="0" fill="#52b3e5"/></g></g><mask id="em5xYcFlutq6" mask-type="luminance" x="-150%" y="-150%" height="400%" width="400%"><rect width="122.263445" height="140.768369" rx="0" ry="0" transform="translate(13.983625 21)" fill="#d2dbed" stroke-width="0"/></mask></g><g id="em5xYcFlutq8_to" transform="translate(162.611691,232.041702)"><g id="em5xYcFlutq8_ts" transform="scale(0.186464,0.186462)"><g id="em5xYcFlutq8" transform="translate(-162.611666,-232.041702)" opacity="0"><path d="M215.2,128.4c-2.2-.8-4.5-1.6-6.7-2.3-1.2-.4-2.4-.8-3.6-1.2-.7-.2-1.1-.4-1.4-.6.1-.3.4-.8.8-1.5c4.6-7.1,9-14.4,13-21.8c3.7-6.8,2.1-12.7-4.3-16.5-3.8-2.3-7.6-4.5-11.4-6.8-4.8-2.8-9.5-5.6-14.3-8.5-4.2-2.6-8.8-3.8-13.9-3.8-2.1,0-4.2,0-6.3,0c8.8-3.2,14.9-11.3,15.1-21.1.2-12.6-9.9-23.1-22.5-23.3-.1,0-.3,0-.4,0-5.8,0-11.3,2.2-15.6,6.3-4.5,4.3-7,10.1-7,16.4-.1,6,2.2,11.7,6.4,16.1c2.4,2.5,5.3,4.4,8.4,5.6-1.7,0-3.4,0-5.1,0-6.5.1-12.6,1.7-18.1,4.9l-7,4c-5.5,3.1-11,6.3-16.4,9.4-4.5,2.7-7.2,6.4-7.4,10.6-.2,4.1,1.9,8,6,11.1c8.5,6.4,17.7,13.1,27.5,18.6c2.2,1.2,3.2,2.9,3.2,5.6.1,3.4-.2,7-.8,11.1-4,24.6-8.4,52.3-8.6,80c0,0,4,31.8,19.3-1.7-.5.2,2.9-12.9,4.8-21.3c0-.1,0-.2.1-.3.2-1,.4-1.9.6-2.8.9-4.3,2-8.7,3.2-12.9c1.6-5.9,3.3-12,4.2-18.3.5-3.1,1.2-6.2,1.9-9.4.5-2.3,1.1-4.7,1.5-7.1.7-3.7,2.4-4.6,4.8-4.6v0c.2,0,.4,0,.5,0v0c2.4.1,4.9.7,7.5,1.2c1,.2,2.1.5,3.2.7c4.8,1,9.4,2.4,14.3,3.9c4,1.3,8.1,2.6,12.4,3.5v2.3c.2,10.3.5,20.9,2.6,31.3c0,0,7.9,27.6,17.3-10.6.4-.8.7-1.6,1-2.5-.2.3-.3.7-.5,1c1.8-8.4,3-16.8,4-24.8c1.3-9.8-2.7-16.4-12.3-19.9ZM143.7,43.9v0c.1-4.4,1.8-8.5,4.9-11.5c3-2.9,6.9-4.4,11-4.4c8.7.2,15.8,7.4,15.6,16.1-.1,9-7.2,15.7-16.4,15.6-4-.1-7.8-1.8-10.7-4.8-2.9-2.9-4.5-6.9-4.4-11Zm-13,63.4c-1.9-1.8-3.8-3.6-5.8-5.4-1.7-1.5-3.4-3.1-5.1-4.9.2-.1.3-.2.4-.2c3.4-1.8,6.9-3.6,10.5-5.6l1.8,17.8c-.6-.5-1.2-1.1-1.8-1.7Zm74.4,37.8c-4.1-.9-8.3-2.3-12.3-3.5-4.9-1.5-9.9-3.1-15-4.1-1-.2-2-.4-3-.7-2.8-.7-5.7-1.3-8.8-1.4-6.8-.3-11.3,3.5-12.6,10.4-.4,2.3-.9,4.6-1.5,6.8-.7,3.2-1.5,6.5-2,9.9-.9,5.9-2.4,11.5-4,17.5-1.2,4.3-2.4,8.8-3.3,13.4-1.7,8.3-4.4,17.3-8.2,27.4c0,0-1.9,5.5-3.4,4.7.5-.9.8-2,.8-3.2c0-27.6,4.5-55.6,8.5-80.3.7-4.5,1-8.5.9-12.4-.1-4.6-2-8.2-5.4-10.7.4-.1.9-.3,1.2-.5c2.2-1.2,3.2-3.4,2.9-6.5l-3.3-32.2-4.8,2.9c-5,3.1-9.8,5.5-14.8,8.1-1.5.8-3,1.6-4.6,2.4l-3.9,2.1l2.9,3.4c2.9,3.4,5.9,6.2,8.8,8.8c1.9,1.7,3.8,3.5,5.6,5.3.3.3.7.7,1,1-6.7-4.3-13.2-9-19.3-13.6-2.2-1.6-3.3-3.4-3.2-5.1s1.5-3.5,3.9-4.9c5.4-3.2,10.9-6.3,16.4-9.4l7-4c4.5-2.6,9.4-3.9,14.7-3.9c5.1,0,10.2,0,15.2,0c3.9,0,7.9,0,11.8,0s7.2.9,10.2,2.7c4.8,2.9,9.6,5.7,14.3,8.5c3.8,2.2,7.6,4.5,11.4,6.8c3.2,1.9,3.6,3.7,1.7,7.1-3.8,7-8,14-12.4,20.8c1.9-5.5,4.1-11,6.5-17c1.7-4.1.3-7.7-3.5-9.7-1.7-.9-3.4-1.8-5-2.7-2.2-1.2-4.4-2.3-6.5-3.4-2.5-1.3-4.7-1.4-6.5-.4s-2.8,3-3.1,5.8c-.5,5.6-.9,11.2-1.3,17l-.6,7.3c-.3,2,.2,4.3,1.2,6.1c2.6,4.9,7.7,5.4,10.4,5.6c2.3.2,4.5-.7,6-2.5c0,.7,0,1.5.3,2.2c1,2.8,3.7,4.1,6,4.9c1.2.4,2.4.8,3.7,1.2c2.2.7,4.4,1.4,6.5,2.2c6.5,2.4,8.5,5.8,7.7,12.7-1.5,11.4-3.3,23.5-6.5,35.1-.3.9-.1,1.7,0,2.2-.3.6-.7.8-1,.7-2.3-10.3-2.6-21.1-2.8-31.6l-.1-2.8c.1-3.7-1.6-5.8-4.8-6.5Zm-6.3-46.4c-3,7.3-5.6,13.9-7.7,20.8-.1.2-.1.3-.2.4-3-.3-4.1-.8-4.7-1.9-.4-.8-.4-1.6-.4-1.9l.6-7.6c.4-5.6.8-10.9,1.3-16.3v0c1.9,1,3.9,2,5.8,3.1c1.7.9,3.4,1.8,5.1,2.7.2.1.3.2.4.3-.1,0-.1.2-.2.4Z" fill="#52b3e5"/></g></g></g></g></g></svg>
