<svg id="eT3F20ICdpB1" xmlns="http://www.w3.org/2000/svg" xmlns:xlink="http://www.w3.org/1999/xlink" viewBox="0 0 295.32 279.22" shape-rendering="geometricPrecision" text-rendering="geometricPrecision">
<style><![CDATA[
#eT3F20ICdpB3_ts {animation: eT3F20ICdpB3_ts__ts 3000ms linear infinite normal forwards}@keyframes eT3F20ICdpB3_ts__ts { 0% {transform: translate(153.972008px,150.370895px) scale(1,1)} 83.333333% {transform: translate(153.972008px,150.370895px) scale(1,1)} 100% {transform: translate(153.972008px,150.370895px) scale(0.0944,0.0944)}} #eT3F20ICdpB3 {animation: eT3F20ICdpB3_c_o 3000ms linear infinite normal forwards}@keyframes eT3F20ICdpB3_c_o { 0% {opacity: 1} 83.333333% {opacity: 1} 100% {opacity: 0}} #eT3F20ICdpB4_to {animation: eT3F20ICdpB4_to__to 3000ms linear infinite normal forwards}@keyframes eT3F20ICdpB4_to__to { 0% {transform: translate(153.972008px,150.370895px)} 10% {transform: translate(153.972008px,150.370895px)} 100% {transform: translate(153.972008px,150.370895px)}} #eT3F20ICdpB4_ts {animation: eT3F20ICdpB4_ts__ts 3000ms linear infinite normal forwards}@keyframes eT3F20ICdpB4_ts__ts { 0% {transform: scale(0.185475,0.185475)} 10% {transform: scale(1,1)} 100% {transform: scale(1,1)}} #eT3F20ICdpB4 {animation: eT3F20ICdpB4_c_o 3000ms linear infinite normal forwards}@keyframes eT3F20ICdpB4_c_o { 0% {opacity: 0} 10% {opacity: 1} 100% {opacity: 1}} #eT3F20ICdpB5_ts {animation: eT3F20ICdpB5_ts__ts 3000ms linear infinite normal forwards}@keyframes eT3F20ICdpB5_ts__ts { 0% {transform: translate(154.925423px,149.291168px) scale(0.173857,0.173857)} 3.333333% {transform: translate(154.925423px,149.291168px) scale(0.173857,0.173857)} 10% {transform: translate(154.925423px,149.291168px) scale(1,1)} 100% {transform: translate(154.925423px,149.291168px) scale(1,1)}} #eT3F20ICdpB5 {animation: eT3F20ICdpB5_c_o 3000ms linear infinite normal forwards}@keyframes eT3F20ICdpB5_c_o { 0% {opacity: 1} 3.333333% {opacity: 1} 10% {opacity: 1} 100% {opacity: 1}}
]]></style>
<g><g id="eT3F20ICdpB3_ts" transform="translate(153.972008,150.370895) scale(1,1)"><g id="eT3F20ICdpB3" transform="translate(-153.972008,-150.370895)"><g id="eT3F20ICdpB4_to" transform="translate(153.972008,150.370895)"><g id="eT3F20ICdpB4_ts" transform="scale(0.185475,0.185475)"><path id="eT3F20ICdpB4" d="M154.62,208.04c-16.65,0-31.94-4.86-46.23-13.1-17.81-10.27-32.51-24.03-44.88-40.37-1.67-2.2-1.83-6.15-.29-8.19c14.4-19.04,31.66-34.73,53.35-45.12c12.52-5.99,25.73-9.18,39.67-8.89c15.13.31,29.1,4.77,42.18,12.21c14.43,8.21,26.6,19.14,37.57,31.47c2.94,3.31,5.74,6.75,8.54,10.18c1.62,1.98,1.69,5.94.13,7.9-11.38,14.35-24.04,27.36-39.4,37.53-10.82,7.17-22.44,12.54-35.28,14.86-5.06.91-10.22,1.27-15.33,1.87l-.05-.37.02.02Zm-.6-16.62c22.43,0,40.64-18.17,40.65-40.57.02-22.49-18.2-40.78-40.62-40.8-22.45-.01-40.74,18.25-40.75,40.68c0,22.46,18.23,40.68,40.71,40.68l.01.01Zm15.65,7.78c.6-.12,1.2-.23,1.79-.37c10.17-2.36,19.51-6.62,28.27-12.23c14.81-9.5,26.96-21.86,38.01-35.4.66-.81.45-1.34-.13-2-4.3-4.84-8.42-9.85-12.9-14.52-9.82-10.26-20.75-19.15-33.44-25.71-11.79-6.1-24.27-9.49-37.59-9.35-11.71.13-22.84,2.97-33.41,7.95-20.32,9.57-36.48,24.17-50.2,41.71-.77.98-.32,1.54.24,2.26c9.78,12.6,21.11,23.55,34.34,32.51c9.22,6.24,19.09,11.09,29.86,14.04.5.14,1.02.21,1.54.31.04-.12.08-.24.11-.36-7.91-3.09-14.71-7.75-20.26-14.16-5.53-6.38-9.26-13.68-11.13-21.91-1.88-8.28-1.69-16.53.58-24.71c5.97-21.56,25.56-36.69,47.85-37c22.46-.32,42.43,14.15,49.03,35.6c3.3,10.72,3.14,21.45-.73,31.97-5.66,15.39-16.57,25.57-31.82,31.37h-.01Z" transform="translate(-153.972008,-150.370895)" opacity="0" fill="#559cd5"/></g></g><g id="eT3F20ICdpB5_ts" transform="translate(154.925423,149.291168) scale(0.173857,0.173857)"><path id="eT3F20ICdpB5" d="M173.47,149.27c-.21,9.78-7.47,17.61-17.23,18.4-9.55.77-17.99-5.97-19.62-15.66-1.55-9.22,4.59-18.36,13.89-20.65c2.83-.7,5.69-.63,8.55-.07c1.03.2,1.46.7,1.44,1.79-.06,2.68.01,5.36-.03,8.04-.02,1.13.39,1.53,1.54,1.5c2.87-.07,5.75.05,8.62-.05c1.24-.04,1.8.42,1.98,1.56.28,1.72.57,3.44.86,5.16v-.02Z" transform="translate(-154.925423,-149.291168)" fill="#559cd5"/></g></g></g></g></svg>
