<svg id="exNh4P9Hija1" xmlns="http://www.w3.org/2000/svg" xmlns:xlink="http://www.w3.org/1999/xlink" viewBox="0 0 295.32 281.75" shape-rendering="geometricPrecision" text-rendering="geometricPrecision">
<style><![CDATA[
#exNh4P9Hija4_to {animation: exNh4P9Hija4_to__to 5000ms linear infinite normal forwards}@keyframes exNh4P9Hija4_to__to { 0% {transform: translate(141.443688px,27.813493px);animation-timing-function: cubic-bezier(0.42,0,0.58,1)} 10% {transform: translate(141.443695px,156.194984px)} 94% {transform: translate(141.443695px,156.194984px)} 100% {transform: translate(141.443701px,256.86769px)}} #exNh4P9Hija4_ts {animation: exNh4P9Hija4_ts__ts 5000ms linear infinite normal forwards}@keyframes exNh4P9Hija4_ts__ts { 0% {transform: scale(0.373762,0.373762);animation-timing-function: cubic-bezier(0.42,0,0.58,1)} 10% {transform: scale(1,1)} 94% {transform: scale(1,1)} 100% {transform: scale(0.221055,0.221055)}} #exNh4P9Hija4 {animation: exNh4P9Hija4_c_o 5000ms linear infinite normal forwards}@keyframes exNh4P9Hija4_c_o { 0% {opacity: 0;animation-timing-function: cubic-bezier(0.42,0,0.58,1)} 10% {opacity: 1} 94% {opacity: 1} 100% {opacity: 0}} #exNh4P9Hija5_to {animation: exNh4P9Hija5_to__to 5000ms linear infinite normal forwards}@keyframes exNh4P9Hija5_to__to { 0% {transform: translate(151.410042px,118.580105px)} 20% {transform: translate(151.410042px,118.580105px);animation-timing-function: cubic-bezier(0.39,0.575,0.565,1)} 30% {transform: translate(192.410042px,118.580105px)} 90% {transform: translate(192.410042px,118.580105px)} 94% {transform: translate(200.565002px,71.079994px)} 100% {transform: translate(200.565002px,71.079994px)}} #exNh4P9Hija5_ts {animation: exNh4P9Hija5_ts__ts 5000ms linear infinite normal forwards}@keyframes exNh4P9Hija5_ts__ts { 0% {transform: scale(0.04688,0.04688)} 20% {transform: scale(0.04688,0.04688);animation-timing-function: cubic-bezier(0.39,0.575,0.565,1)} 30% {transform: scale(1,1)} 90% {transform: scale(1,1)} 94% {transform: scale(0.121017,0.121017)} 100% {transform: scale(0.121017,0.121017)}} #exNh4P9Hija5 {animation: exNh4P9Hija5_c_o 5000ms linear infinite normal forwards}@keyframes exNh4P9Hija5_c_o { 0% {opacity: 0} 20% {opacity: 0;animation-timing-function: cubic-bezier(0.39,0.575,0.565,1)} 30% {opacity: 1} 90% {opacity: 1} 94% {opacity: 0} 100% {opacity: 0}} #exNh4P9Hija6_to {animation: exNh4P9Hija6_to__to 5000ms linear infinite normal forwards}@keyframes exNh4P9Hija6_to__to { 0% {transform: translate(199.565002px,71.079994px)} 20% {transform: translate(199.565002px,71.079994px);animation-timing-function: cubic-bezier(0.39,0.575,0.565,1)} 30% {transform: translate(158.565002px,71.079994px)} 90% {transform: translate(158.565002px,71.079994px)} 94% {transform: translate(151.554574px,115.652607px)} 100% {transform: translate(151.554574px,115.652607px)}} #exNh4P9Hija6_ts {animation: exNh4P9Hija6_ts__ts 5000ms linear infinite normal forwards}@keyframes exNh4P9Hija6_ts__ts { 0% {transform: scale(0.121017,0.121017)} 20% {transform: scale(0.121017,0.121017);animation-timing-function: cubic-bezier(0.39,0.575,0.565,1)} 30% {transform: scale(1,1)} 90% {transform: scale(1,1)} 94% {transform: scale(0.121017,0.121017)} 100% {transform: scale(0.121017,0.121017)}} #exNh4P9Hija6 {animation: exNh4P9Hija6_c_o 5000ms linear infinite normal forwards}@keyframes exNh4P9Hija6_c_o { 0% {opacity: 0} 20% {opacity: 0;animation-timing-function: cubic-bezier(0.39,0.575,0.565,1)} 30% {opacity: 1} 90% {opacity: 1} 94% {opacity: 0} 100% {opacity: 0}} #exNh4P9Hija7_to {animation: exNh4P9Hija7_to__to 5000ms linear infinite normal forwards}@keyframes exNh4P9Hija7_to__to { 0% {transform: translate(175.459129px,95.178648px)} 10% {transform: translate(175.459129px,95.178648px);animation-timing-function: cubic-bezier(0.42,0,0.58,1)} 20% {transform: translate(175.459129px,95.178648px)} 90% {transform: translate(175.459129px,95.178648px)} 94% {transform: translate(175.459129px,95.178648px)} 100% {transform: translate(175.459129px,95.178648px)}} #exNh4P9Hija7_ts {animation: exNh4P9Hija7_ts__ts 5000ms linear infinite normal forwards}@keyframes exNh4P9Hija7_ts__ts { 0% {transform: scale(0.09807,0.09807)} 10% {transform: scale(0.09807,0.09807);animation-timing-function: cubic-bezier(0.42,0,0.58,1)} 20% {transform: scale(1,1)} 90% {transform: scale(1,1)} 94% {transform: scale(0.09807,0.09807)} 100% {transform: scale(0.09807,0.09807)}} #exNh4P9Hija7 {animation: exNh4P9Hija7_c_o 5000ms linear infinite normal forwards}@keyframes exNh4P9Hija7_c_o { 0% {opacity: 0} 10% {opacity: 0;animation-timing-function: cubic-bezier(0.42,0,0.58,1)} 20% {opacity: 1} 90% {opacity: 1} 94% {opacity: 0} 100% {opacity: 0}}
]]></style>
<g><g><g id="exNh4P9Hija4_to" transform="translate(141.443688,27.813493)"><g id="exNh4P9Hija4_ts" transform="scale(0.373762,0.373762)"><path id="exNh4P9Hija4" d="M123.15,165.38c0-1.16,0-1.98,0-2.8c0-25.23,0-50.47,0-75.7c0-3.37,1.22-5.09,3.61-5.1c2.41-.01,3.66,1.72,3.66,5.05c0,31.57,0,63.14,0,94.72c0,.41,0,.82,0,1.67-.76-.69-1.24-1.1-1.69-1.55-6.42-6.42-12.81-12.87-19.27-19.25-5.76-5.69-14.75-4.3-18.14,2.73-2.04,4.24-1.14,9.17,2.44,12.76c9.12,9.15,18.26,18.27,27.4,27.4c5.21,5.21,10.42,10.43,15.64,15.64c3.17,3.17,6.19,3.16,9.36,0c14.18-14.18,28.36-28.35,42.53-42.53c3.83-3.83,4.94-8.65,3.03-13.01-3.12-7.14-12.29-8.83-17.98-3.23-6.43,6.33-12.76,12.75-19.14,19.12-.54.54-1.1,1.05-1.91,1.82-.09-.86-.17-1.32-.17-1.78c0-9.2-.04-18.41.04-27.61c0-1.02.38-2.2.98-3.01.9-1.23,2.35-1.48,3.81-.98c1.55.53,2.38,1.7,2.41,3.32.06,3.17.03,6.34.05,9.51c0,.83.07,1.65.13,2.97.9-.86,1.46-1.37,2-1.9c2.16-2.15,4.31-4.31,6.47-6.46c7.49-7.45,18.98-7.57,26.25-.28c7.12,7.14,7.03,18.79-.3,26.17-11.94,12.01-23.94,23.97-35.92,35.94-2.54,2.54-5.08,5.09-7.64,7.62-5.36,5.31-13.33,5.31-18.66-.02-14.48-14.47-28.97-28.95-43.44-43.43-5.68-5.68-7.28-13.58-4.2-20.69c2.96-6.84,10-11.25,17.53-10.89c4.69.22,8.77,1.99,12.15,5.23c2.64,2.53,5.19,5.15,7.78,7.73.24.23.55.39,1.2.84l-.01-.02Z" transform="translate(-141.443695,-156.194984)" opacity="0" fill="#141c3f"/></g></g><g id="exNh4P9Hija5_to" transform="translate(151.410042,118.580105)"><g id="exNh4P9Hija5_ts" transform="scale(0.04688,0.04688)"><path id="exNh4P9Hija5" d="M172.44,118.6c0-11.08,8.85-19.97,19.91-19.99c11.11-.01,20.06,8.99,20.03,20.14-.03,10.7-9.06,19.75-19.73,19.8-11.2.05-20.19-8.84-20.2-19.96l-.01.01Zm8.87-.04c0,6.09,4.89,11.01,11.01,11.08c6.03.06,11.1-4.91,11.15-10.95.05-6.14-5.01-11.23-11.14-11.2-6.08.03-11.02,5-11.02,11.07Z" transform="translate(-192.410042,-118.580105)" opacity="0" fill="#52b3e5"/></g></g><g id="exNh4P9Hija6_to" transform="translate(199.565002,71.079994)"><g id="exNh4P9Hija6_ts" transform="scale(0.121017,0.121017)"><path id="exNh4P9Hija6" d="M158.41,91c-11.07-.1-19.91-9.09-19.82-20.15.09-10.98,9.16-19.79,20.28-19.69c11.04.09,19.76,9.08,19.67,20.27-.09,10.88-9.13,19.67-20.13,19.57Zm.32-30.96c-6.09-.1-11.11,4.75-11.22,10.84-.1,6.09,4.75,11.13,10.82,11.25c6.13.12,11.17-4.65,11.35-10.73.18-6.14-4.75-11.26-10.96-11.36h.01Z" transform="translate(-158.565002,-71.079994)" opacity="0" fill="#52b3e5"/></g></g><g id="exNh4P9Hija7_to" transform="translate(175.459129,95.178648)"><g id="exNh4P9Hija7_ts" transform="scale(0.09807,0.09807)"><path id="exNh4P9Hija7" d="M148.56,126.91c-1.55-1.23-3.18-2-3.97-3.29-1.05-1.69-.53-3.62.93-5.09c3.45-3.48,6.91-6.95,10.38-10.41c14.02-14.02,28.04-28.03,42.06-42.05.47-.47.91-.98,1.42-1.41c2-1.68,4.52-1.6,6.23.15c1.68,1.72,1.73,4.35-.06,6.21-3.3,3.42-6.69,6.75-10.05,10.11-14.23,14.23-28.45,28.47-42.71,42.66-1.1,1.09-2.51,1.88-4.21,3.12h-.02Z" transform="translate(-175.459129,-95.178648)" opacity="0" fill="#52b3e5"/></g></g></g></g></svg>
