<svg xmlns="http://www.w3.org/2000/svg" viewBox="0 0 597.72 615.53"><defs><style>.cls-1{fill:#9bbec8;}.cls-2{fill:#427d9d;}</style></defs><g id="Layer_2" data-name="Layer 2"><g id="Isolation_Mode" data-name="Isolation Mode"><path class="cls-1" d="M315.82,545.64v68.89c85.37.2,203.77-58.44,256.62-182.34,52.68-123.52,18.79-261-62.48-342l-61.87,79.24L316.11,0V465.8h68.73V208.67l2.73-1.14L448,285l58.56-74.76C571.09,336.54,493.48,527.53,315.82,545.64Z"/><path class="cls-2" d="M281.86,615.53V545.21c-72.21-8.06-130.69-41.34-172.44-103.28-29-43-42.09-91-40.27-143.32C73.06,185.9,150.47,111,212.08,89.05V465.66h69.35V.86C158.24,1.7,7.21,111.56.24,296.46-6.44,473.48,129.41,607.88,281.86,615.53Z"/></g></g></svg>