<svg id="erUu5EmitQF1" xmlns="http://www.w3.org/2000/svg" xmlns:xlink="http://www.w3.org/1999/xlink" viewBox="0 0 295.3 286.8" shape-rendering="geometricPrecision" text-rendering="geometricPrecision">
<style><![CDATA[
#erUu5EmitQF2 {animation: erUu5EmitQF2_c_o 6000ms linear infinite normal forwards}@keyframes erUu5EmitQF2_c_o { 0% {opacity: 1} 91.666667% {opacity: 1} 100% {opacity: 0}} #erUu5EmitQF3_to {animation: erUu5EmitQF3_to__to 6000ms linear infinite normal forwards}@keyframes erUu5EmitQF3_to__to { 0% {transform: translate(170.047089px,67.020438px)} 6.666667% {transform: translate(170.047089px,67.020438px);animation-timing-function: cubic-bezier(0.55,0.055,0.675,0.19)} 13.333333% {transform: translate(170.047089px,207.015877px)} 100% {transform: translate(170.047089px,207.015877px)}} #erUu5EmitQF3 {animation: erUu5EmitQF3_c_o 6000ms linear infinite normal forwards}@keyframes erUu5EmitQF3_c_o { 0% {opacity: 0} 6.666667% {opacity: 0;animation-timing-function: cubic-bezier(0.55,0.055,0.675,0.19)} 13.333333% {opacity: 1} 100% {opacity: 1}} #erUu5EmitQF6_to {animation: erUu5EmitQF6_to__to 6000ms linear infinite normal forwards}@keyframes erUu5EmitQF6_to__to { 0% {transform: translate(174.047154px,64.554868px)} 11.666667% {transform: translate(174.047154px,64.554868px);animation-timing-function: cubic-bezier(0.55,0.055,0.675,0.19)} 18.333333% {transform: translate(174.047089px,178.652675px)} 100% {transform: translate(174.047089px,178.652675px)}} #erUu5EmitQF6 {animation: erUu5EmitQF6_c_o 6000ms linear infinite normal forwards}@keyframes erUu5EmitQF6_c_o { 0% {opacity: 0} 11.666667% {opacity: 0;animation-timing-function: cubic-bezier(0.55,0.055,0.675,0.19)} 18.333333% {opacity: 1} 100% {opacity: 1}} #erUu5EmitQF9_to {animation: erUu5EmitQF9_to__to 6000ms linear infinite normal forwards}@keyframes erUu5EmitQF9_to__to { 0% {transform: translate(177.652946px,63.558825px)} 16.666667% {transform: translate(177.652946px,63.558825px);animation-timing-function: cubic-bezier(0.55,0.055,0.675,0.19)} 23.333333% {transform: translate(177.652881px,150.289473px)} 100% {transform: translate(177.652881px,150.289473px)}} #erUu5EmitQF9 {animation: erUu5EmitQF9_c_o 6000ms linear infinite normal forwards}@keyframes erUu5EmitQF9_c_o { 0% {opacity: 0} 16.666667% {opacity: 0;animation-timing-function: cubic-bezier(0.55,0.055,0.675,0.19)} 23.333333% {opacity: 1} 100% {opacity: 1}} #erUu5EmitQF12_to {animation: erUu5EmitQF12_to__to 6000ms linear infinite normal forwards}@keyframes erUu5EmitQF12_to__to { 0% {transform: translate(174.047151px,66.404383px)} 21.666667% {transform: translate(174.047151px,66.404383px);animation-timing-function: cubic-bezier(0.55,0.055,0.675,0.19)} 26.666667% {transform: translate(173.949985px,118.852675px)} 100% {transform: translate(173.949985px,118.852675px)}} #erUu5EmitQF12 {animation: erUu5EmitQF12_c_o 6000ms linear infinite normal forwards}@keyframes erUu5EmitQF12_c_o { 0% {opacity: 0} 21.666667% {opacity: 0;animation-timing-function: cubic-bezier(0.55,0.055,0.675,0.19)} 26.666667% {opacity: 1} 100% {opacity: 1}} #erUu5EmitQF15_to {animation: erUu5EmitQF15_to__to 6000ms linear infinite normal forwards}@keyframes erUu5EmitQF15_to__to { 0% {transform: translate(137.995348px,54.594437px)} 25% {transform: translate(137.995348px,54.594437px);animation-timing-function: cubic-bezier(0.55,0.055,0.675,0.19)} 30% {transform: translate(138.092435px,90.489473px)} 100% {transform: translate(138.092435px,90.489473px)}} #erUu5EmitQF15 {animation: erUu5EmitQF15_c_o 6000ms linear infinite normal forwards}@keyframes erUu5EmitQF15_c_o { 0% {opacity: 0} 25% {opacity: 0;animation-timing-function: cubic-bezier(0.55,0.055,0.675,0.19)} 30% {opacity: 1} 100% {opacity: 1}} #erUu5EmitQF18_to {animation: erUu5EmitQF18_to__to 6000ms linear infinite normal forwards}@keyframes erUu5EmitQF18_to__to { 0% {transform: translate(234.605884px,176.102657px)} 28.333333% {transform: translate(234.605884px,176.102657px)} 35% {transform: translate(98.518566px,176.102657px)} 100% {transform: translate(98.518566px,176.102657px)}} #erUu5EmitQF18_tr {animation: erUu5EmitQF18_tr__tr 6000ms linear infinite normal forwards}@keyframes erUu5EmitQF18_tr__tr { 0% {transform: rotate(0deg)} 28.333333% {transform: rotate(0deg)} 35% {transform: rotate(360deg)} 100% {transform: rotate(360deg)}} #erUu5EmitQF18 {animation: erUu5EmitQF18_c_o 6000ms linear infinite normal forwards}@keyframes erUu5EmitQF18_c_o { 0% {opacity: 0} 28.333333% {opacity: 0} 30% {opacity: 1} 100% {opacity: 1}}
]]></style>
<g id="erUu5EmitQF2" transform="translate(.000001 0.000001)"><g id="erUu5EmitQF3_to" transform="translate(170.047089,67.020438)"><g id="erUu5EmitQF3" transform="translate(-170.047089,-207.015877)" opacity="0"><path d="M226.8,195.9c0-2.2-.9-3.9-2.6-5.3-1.9-1.5-4.1-2.4-6.3-3.1-7.6-2.4-15.4-3.3-23.2-4-4.7-.4-9.4-.7-14.1-.8-12.3-.5-24.6-.2-36.9,1-5.8.6-11.6,1.3-17.3,2.6-3.5.8-7,1.8-10.1,3.8-2.1,1.4-3.3,3.4-3.2,6c0,7.6,0,15.1,0,22.7c0,.5,0,.9.1,1.4.4,2.5,2,4,4,5.2c4,2.3,8.5,3.2,13,4c2.3.5,4.6.8,6.8,1.1c0,0,69.2,5.2,86.8-7.4c1.7-1.2,3.2-2.7,3.2-4.8c0,.3-.2-18.6-.2-22.4Zm-8.6,23.3c-2.9.9-5.7,1.9-8.7,2.5-7.5,1.5-15.1,2.2-22.7,2.7-9.1.5-18.3.7-27.4.3-7.1-.3-14.3-1-21.4-1.7-4.9-.5-9.7-1.4-14.4-3-2.9-1-2.9-1-2.9-4v-12.8c5,1.8,10,2.7,15.1,3.3c4.1.6,8.2.9,12.3,1.3c9,.8,18,.9,27.1.8c6.2-.1,12.4-.5,18.7-1c6.6-.4,13.1-1.4,19.5-2.8c1.9-.4,3.7-1,5.6-1.5v5.5c0,3,0,6,0,9c.2.7-.1,1.2-.8,1.4Z" fill="#141c3f"/><path d="M219.2,217.7c0,.8-.3,1.3-1,1.5-2.9.9-5.7,1.9-8.7,2.5-7.5,1.5-15.1,2.2-22.7,2.7-9.1.5-18.3.7-27.4.3-7.1-.3-14.3-1-21.4-1.7-4.9-.5-9.7-1.4-14.4-3-2.9-1-2.9-1-2.9-4v-12.8c5,1.8,10,2.7,15.1,3.3c4.1.6,8.2.9,12.3,1.3c9,.8,18,.9,27.1.8c6.2-.1,12.4-.5,18.7-1c6.6-.4,13.1-1.4,19.5-2.8c1.9-.4,3.7-1,5.6-1.5v5.5c.2,2.9.1,5.9.2,8.9Z" fill="#fff"/></g></g><g id="erUu5EmitQF6_to" transform="translate(174.047154,64.554868)"><g id="erUu5EmitQF6" transform="translate(-170.047089,-207.015877)" opacity="0"><path d="M226.8,195.9c0-2.2-.9-3.9-2.6-5.3-1.9-1.5-4.1-2.4-6.3-3.1-7.6-2.4-15.4-3.3-23.2-4-4.7-.4-9.4-.7-14.1-.8-12.3-.5-24.6-.2-36.9,1-5.8.6-11.6,1.3-17.3,2.6-3.5.8-7,1.8-10.1,3.8-2.1,1.4-3.3,3.4-3.2,6c0,7.6,0,15.1,0,22.7c0,.5,0,.9.1,1.4.4,2.5,2,4,4,5.2c4,2.3,8.5,3.2,13,4c2.3.5,4.6.8,6.8,1.1c0,0,69.2,5.2,86.8-7.4c1.7-1.2,3.2-2.7,3.2-4.8c0,.3-.2-18.6-.2-22.4Zm-8.6,23.3c-2.9.9-5.7,1.9-8.7,2.5-7.5,1.5-15.1,2.2-22.7,2.7-9.1.5-18.3.7-27.4.3-7.1-.3-14.3-1-21.4-1.7-4.9-.5-9.7-1.4-14.4-3-2.9-1-2.9-1-2.9-4v-12.8c5,1.8,10,2.7,15.1,3.3c4.1.6,8.2.9,12.3,1.3c9,.8,18,.9,27.1.8c6.2-.1,12.4-.5,18.7-1c6.6-.4,13.1-1.4,19.5-2.8c1.9-.4,3.7-1,5.6-1.5v5.5c0,3,0,6,0,9c.2.7-.1,1.2-.8,1.4Z" fill="#141c3f"/><path d="M219.2,217.7c0,.8-.3,1.3-1,1.5-2.9.9-5.7,1.9-8.7,2.5-7.5,1.5-15.1,2.2-22.7,2.7-9.1.5-18.3.7-27.4.3-7.1-.3-14.3-1-21.4-1.7-4.9-.5-9.7-1.4-14.4-3-2.9-1-2.9-1-2.9-4v-12.8c5,1.8,10,2.7,15.1,3.3c4.1.6,8.2.9,12.3,1.3c9,.8,18,.9,27.1.8c6.2-.1,12.4-.5,18.7-1c6.6-.4,13.1-1.4,19.5-2.8c1.9-.4,3.7-1,5.6-1.5v5.5c.2,2.9.1,5.9.2,8.9Z" fill="#fff"/></g></g><g id="erUu5EmitQF9_to" transform="translate(177.652946,63.558825)"><g id="erUu5EmitQF9" transform="translate(-170.047089,-207.015877)" opacity="0"><path d="M226.8,195.9c0-2.2-.9-3.9-2.6-5.3-1.9-1.5-4.1-2.4-6.3-3.1-7.6-2.4-15.4-3.3-23.2-4-4.7-.4-9.4-.7-14.1-.8-12.3-.5-24.6-.2-36.9,1-5.8.6-11.6,1.3-17.3,2.6-3.5.8-7,1.8-10.1,3.8-2.1,1.4-3.3,3.4-3.2,6c0,7.6,0,15.1,0,22.7c0,.5,0,.9.1,1.4.4,2.5,2,4,4,5.2c4,2.3,8.5,3.2,13,4c2.3.5,4.6.8,6.8,1.1c0,0,69.2,5.2,86.8-7.4c1.7-1.2,3.2-2.7,3.2-4.8c0,.3-.2-18.6-.2-22.4Zm-8.6,23.3c-2.9.9-5.7,1.9-8.7,2.5-7.5,1.5-15.1,2.2-22.7,2.7-9.1.5-18.3.7-27.4.3-7.1-.3-14.3-1-21.4-1.7-4.9-.5-9.7-1.4-14.4-3-2.9-1-2.9-1-2.9-4v-12.8c5,1.8,10,2.7,15.1,3.3c4.1.6,8.2.9,12.3,1.3c9,.8,18,.9,27.1.8c6.2-.1,12.4-.5,18.7-1c6.6-.4,13.1-1.4,19.5-2.8c1.9-.4,3.7-1,5.6-1.5v5.5c0,3,0,6,0,9c.2.7-.1,1.2-.8,1.4Z" fill="#141c3f"/><path d="M219.2,217.7c0,.8-.3,1.3-1,1.5-2.9.9-5.7,1.9-8.7,2.5-7.5,1.5-15.1,2.2-22.7,2.7-9.1.5-18.3.7-27.4.3-7.1-.3-14.3-1-21.4-1.7-4.9-.5-9.7-1.4-14.4-3-2.9-1-2.9-1-2.9-4v-12.8c5,1.8,10,2.7,15.1,3.3c4.1.6,8.2.9,12.3,1.3c9,.8,18,.9,27.1.8c6.2-.1,12.4-.5,18.7-1c6.6-.4,13.1-1.4,19.5-2.8c1.9-.4,3.7-1,5.6-1.5v5.5c.2,2.9.1,5.9.2,8.9Z" fill="#fff"/></g></g><g id="erUu5EmitQF12_to" transform="translate(174.047151,66.404383)"><g id="erUu5EmitQF12" transform="translate(-170.047089,-207.015877)" opacity="0"><path d="M226.8,195.9c0-2.2-.9-3.9-2.6-5.3-1.9-1.5-4.1-2.4-6.3-3.1-7.6-2.4-15.4-3.3-23.2-4-4.7-.4-9.4-.7-14.1-.8-12.3-.5-24.6-.2-36.9,1-5.8.6-11.6,1.3-17.3,2.6-3.5.8-7,1.8-10.1,3.8-2.1,1.4-3.3,3.4-3.2,6c0,7.6,0,15.1,0,22.7c0,.5,0,.9.1,1.4.4,2.5,2,4,4,5.2c4,2.3,8.5,3.2,13,4c2.3.5,4.6.8,6.8,1.1c0,0,69.2,5.2,86.8-7.4c1.7-1.2,3.2-2.7,3.2-4.8c0,.3-.2-18.6-.2-22.4Zm-8.6,23.3c-2.9.9-5.7,1.9-8.7,2.5-7.5,1.5-15.1,2.2-22.7,2.7-9.1.5-18.3.7-27.4.3-7.1-.3-14.3-1-21.4-1.7-4.9-.5-9.7-1.4-14.4-3-2.9-1-2.9-1-2.9-4v-12.8c5,1.8,10,2.7,15.1,3.3c4.1.6,8.2.9,12.3,1.3c9,.8,18,.9,27.1.8c6.2-.1,12.4-.5,18.7-1c6.6-.4,13.1-1.4,19.5-2.8c1.9-.4,3.7-1,5.6-1.5v5.5c0,3,0,6,0,9c.2.7-.1,1.2-.8,1.4Z" fill="#141c3f"/><path d="M219.2,217.7c0,.8-.3,1.3-1,1.5-2.9.9-5.7,1.9-8.7,2.5-7.5,1.5-15.1,2.2-22.7,2.7-9.1.5-18.3.7-27.4.3-7.1-.3-14.3-1-21.4-1.7-4.9-.5-9.7-1.4-14.4-3-2.9-1-2.9-1-2.9-4v-12.8c5,1.8,10,2.7,15.1,3.3c4.1.6,8.2.9,12.3,1.3c9,.8,18,.9,27.1.8c6.2-.1,12.4-.5,18.7-1c6.6-.4,13.1-1.4,19.5-2.8c1.9-.4,3.7-1,5.6-1.5v5.5c.2,2.9.1,5.9.2,8.9Z" fill="#fff"/></g></g><g id="erUu5EmitQF15_to" transform="translate(137.995348,54.594437)"><g id="erUu5EmitQF15" transform="translate(-170.047089,-207.015877)" opacity="0"><path d="M226.8,195.9c0-2.2-.9-3.9-2.6-5.3-1.9-1.5-4.1-2.4-6.3-3.1-7.6-2.4-15.4-3.3-23.2-4-4.7-.4-9.4-.7-14.1-.8-12.3-.5-24.6-.2-36.9,1-5.8.6-11.6,1.3-17.3,2.6-3.5.8-7,1.8-10.1,3.8-2.1,1.4-3.3,3.4-3.2,6c0,7.6,0,15.1,0,22.7c0,.5,0,.9.1,1.4.4,2.5,2,4,4,5.2c4,2.3,8.5,3.2,13,4c2.3.5,4.6.8,6.8,1.1c0,0,69.2,5.2,86.8-7.4c1.7-1.2,3.2-2.7,3.2-4.8c0,.3-.2-18.6-.2-22.4Zm-8.6,23.3c-2.9.9-5.7,1.9-8.7,2.5-7.5,1.5-15.1,2.2-22.7,2.7-9.1.5-18.3.7-27.4.3-7.1-.3-14.3-1-21.4-1.7-4.9-.5-9.7-1.4-14.4-3-2.9-1-2.9-1-2.9-4v-12.8c5,1.8,10,2.7,15.1,3.3c4.1.6,8.2.9,12.3,1.3c9,.8,18,.9,27.1.8c6.2-.1,12.4-.5,18.7-1c6.6-.4,13.1-1.4,19.5-2.8c1.9-.4,3.7-1,5.6-1.5v5.5c0,3,0,6,0,9c.2.7-.1,1.2-.8,1.4Z" fill="#141c3f"/><path d="M219.2,217.7c0,.8-.3,1.3-1,1.5-2.9.9-5.7,1.9-8.7,2.5-7.5,1.5-15.1,2.2-22.7,2.7-9.1.5-18.3.7-27.4.3-7.1-.3-14.3-1-21.4-1.7-4.9-.5-9.7-1.4-14.4-3-2.9-1-2.9-1-2.9-4v-12.8c5,1.8,10,2.7,15.1,3.3c4.1.6,8.2.9,12.3,1.3c9,.8,18,.9,27.1.8c6.2-.1,12.4-.5,18.7-1c6.6-.4,13.1-1.4,19.5-2.8c1.9-.4,3.7-1,5.6-1.5v5.5c.2,2.9.1,5.9.2,8.9Z" fill="#fff"/></g></g><g id="erUu5EmitQF18_to" transform="translate(234.605884,176.102657)"><g id="erUu5EmitQF18_tr" transform="rotate(0)"><g id="erUu5EmitQF18" transform="translate(-98.518566,-176.102657)" opacity="0"><g><g><path d="M98.5,121.1c-30.3,0-55,24.7-55,55s24.7,55,55,55s55-24.7,55-55-24.7-55-55-55Zm0,102.8c-26.3,0-47.8-21.4-47.8-47.8c0-26.3,21.4-47.8,47.8-47.8c26.3,0,47.8,21.4,47.8,47.8c0,26.3-21.4,47.8-47.8,47.8Z" fill="#141c3f"/><path d="M98.5,128.3c-26.3,0-47.8,21.4-47.8,47.8c0,26.3,21.4,47.8,47.8,47.8c26.3,0,47.8-21.4,47.8-47.8s-21.4-47.8-47.8-47.8Zm0,84.5c-20.3,0-36.8-16.5-36.8-36.8s16.5-36.8,36.8-36.8s36.8,16.5,36.8,36.8c0,20.4-16.5,36.8-36.8,36.8Z" fill="#fff"/></g><g><ellipse rx="39.8" ry="39.8" transform="matrix(.7071-.7071 0.7071 0.7071 98.51848 176.102938)" fill="#52b3e5"/></g></g><g><path d="M78.1,183.2h-2.6c-.3,0-.4-.2-.3-.6l4.3-16.5c.1-.4.4-.6.8-.6h3.7c.5,0,.7.2.8.6l4.3,16.5c.1.4,0,.6-.3.6h-2.6c-.2,0-.3,0-.4-.1s-.1-.2-.2-.5l-.8-3h-5.4l-.8,3c0,.2-.1.4-.2.5.1,0-.1.1-.3.1v0Zm4-14.4l-2,7.9h4.1l-2-7.9c0,0-.1,0-.1,0Z" fill="#fff"/><path d="M101.2,183.2h-9c-.4,0-.6-.2-.6-.6v-16.5c0-.4.2-.6.6-.6h9c.4,0,.6.2.6.6v1.9c0,.4-.2.6-.6.6h-5.7c-.2,0-.3.1-.3.3v3.6c0,.2.1.3.3.3h4.7c.4,0,.6.2.6.6v1.9c0,.4-.2.6-.6.6h-4.7c-.2,0-.3.1-.3.3v3.8c0,.2.1.3.3.3h5.7c.4,0,.6.2.6.6v1.9c-.1.2-.3.4-.6.4v0Z" fill="#fff"/><path d="M104.8,182.6v-16.5c0-.4.2-.6.6-.6h6.8c1.4,0,2.5.4,3.3,1.2s1.2,1.9,1.2,3.3v8.7c0,1.4-.4,2.5-1.2,3.3s-1.9,1.2-3.3,1.2h-6.8c-.5,0-.6-.2-.6-.6Zm3.7-2.5h3c.6,0,1-.1,1.3-.4s.4-.7.4-1.3v-8.4c0-.6-.1-1-.4-1.3-.2-.2-.7-.4-1.3-.4h-3c-.2,0-.3.1-.3.3v11c0,.4.1.5.3.5v0Z" fill="#fff"/></g></g></g></g></g></svg>
