<svg xmlns="http://www.w3.org/2000/svg" xmlns:xlink="http://www.w3.org/1999/xlink" width="1920" height="1080" viewBox="0 0 1920 1080"><defs><style>.a{fill:none;}.b{clip-path:url(#c);}.c,.g{fill:#141c3f;}.d{fill:#52b3e5;}.e,.h,.i{fill:#fff;}.f{clip-path:url(#a);}.g{font-size:22.519px;}.g,.h,.i{font-family:SegoeUI, Segoe UI;}.h{font-size:29px;}.i{font-size:30px;}</style><clipPath id="a"><rect class="a" width="492" height="547.01" transform="translate(118.904 1575.526)"/></clipPath><clipPath id="c"><rect width="1920" height="1080"/></clipPath></defs><g id="b" class="b"><rect class="e" width="1920" height="1080"/><g transform="translate(98.096 -1308.526)"><path class="c" d="M1082.083,1738.526H502.9l2,91v155H980.5a1.153,1.153,0,0,0,1.065-.71l101.587-243.692a1.154,1.154,0,0,0-1.065-1.6"/><path class="d" d="M1564.977,1738.526H1084.584a1.155,1.155,0,0,0-1.066.711l-101.587,243.69a1.155,1.155,0,0,0,1.066,1.6h582.515a25.392,25.392,0,0,0,25.392-25.391V1764.452a25.926,25.926,0,0,0-25.927-25.926"/><path class="e" d="M867.4,1938.526h-181a23.5,23.5,0,0,1,0-47h181a23.5,23.5,0,0,1,0,47"/><g class="f"><image width="492" height="547.01" transform="translate(118.904 1575.526)" xlink:href="r-image.png"/></g><text class="g" transform="translate(711.426 1923.308)"><tspan x="0" y="0">GET IN TOUCH</tspan></text><text class="h" transform="translate(1098.674 1813.968)"><tspan x="0" y="0">We understand how to effectively </tspan></text><text class="h" transform="translate(1082.871 1849.968)"><tspan x="0" y="0">guide you through the financial loans </tspan></text><text class="h" transform="translate(1065.122 1885.968)"><tspan x="0" y="0">or refinance process and avoid potential </tspan></text><text class="h" transform="translate(1051.267 1921.968)"><tspan x="0" y="0">problems along the way.</tspan></text><text class="i" transform="translate(669.876 1811.968)"><tspan x="0" y="0">Need more help? </tspan></text><text class="i" transform="translate(669.876 1847.968)"><tspan x="0" y="0">Feel free to contact us</tspan></text></g></g></svg>