<svg xmlns="http://www.w3.org/2000/svg" xmlns:xlink="http://www.w3.org/1999/xlink" viewBox="0 0 1400 1400"><defs><style>.cls-1{fill:none;}.cls-2{opacity:0.3;}.cls-3{clip-path:url(#clip-path);}.cls-4{fill:#fff;}</style><clipPath id="clip-path"><rect class="cls-1" width="1400" height="1400"/></clipPath></defs><g id="Objects"><g class="cls-2"><g class="cls-3"><path class="cls-4" d="M548,370.26a5.45,5.45,0,0,0-7.7,0L529.1,381.42l-11.16-11.16a5.44,5.44,0,0,0-7.69,7.69l11.16,11.16-11.16,11.16a5.44,5.44,0,0,0,0,7.69,5.42,5.42,0,0,0,7.69,0L529.1,396.8,540.26,408a5.44,5.44,0,1,0,7.7-7.69L536.8,389.11,548,378A5.44,5.44,0,0,0,548,370.26Z"/><path class="cls-4" d="M376.36,92.1a5.44,5.44,0,0,0,7.69,0l11.16-11.16L406.37,92.1a5.44,5.44,0,1,0,7.69-7.69L402.9,73.25l11.16-11.16a5.44,5.44,0,1,0-7.69-7.7L395.21,65.55,384.05,54.39a5.44,5.44,0,0,0-7.69,7.7l11.16,11.16L376.36,84.41A5.43,5.43,0,0,0,376.36,92.1Z"/><path class="cls-4" d="M10,511.26a5.44,5.44,0,0,0,7.69-7.69L6.57,492.41l11.16-11.16a5.44,5.44,0,1,0-7.69-7.7L-1.12,484.71l-11.16-11.16a5.44,5.44,0,0,0-7.69,0,5.44,5.44,0,0,0,0,7.7l11.16,11.16L-20,503.57a5.43,5.43,0,0,0,0,7.69,5.41,5.41,0,0,0,3.84,1.59,5.42,5.42,0,0,0,3.85-1.59L-1.12,500.1Z"/><path class="cls-4" d="M340.6,472.59a5.43,5.43,0,0,0,5.26,4.1,5.21,5.21,0,0,0,1.35-.17,5.44,5.44,0,0,0,3.93-6.61,59.57,59.57,0,0,1,50.4-73.79,5.44,5.44,0,1,0-1.34-10.79,70.42,70.42,0,0,0-59.6,87.26Z"/><path class="cls-4" d="M25.65,660.2A5.43,5.43,0,0,0,33,657.86a59.55,59.55,0,0,1,86.65-21.81,5.44,5.44,0,1,0,6.16-9A70.44,70.44,0,0,0,23.31,652.87,5.44,5.44,0,0,0,25.65,660.2Z"/><path class="cls-4" d="M578.4,518a5.43,5.43,0,0,0-7.69,0l-18.88,18.88L533,518a5.44,5.44,0,0,0-7.69,7.69l18.88,18.88-18.88,18.88a5.44,5.44,0,0,0,7.69,7.69l18.88-18.88,18.88,18.88a5.44,5.44,0,1,0,7.69-7.69l-18.88-18.88L578.4,525.7A5.44,5.44,0,0,0,578.4,518Z"/><path class="cls-4" d="M843.06,720a5.44,5.44,0,0,0-7.69,0L816.49,738.9,797.62,720a5.44,5.44,0,0,0-7.7,7.7l18.88,18.87-18.88,18.88a5.44,5.44,0,0,0,7.7,7.7l18.87-18.88,18.88,18.88a5.44,5.44,0,0,0,7.69-7.7l-18.87-18.88,18.87-18.87A5.44,5.44,0,0,0,843.06,720Z"/><path class="cls-4" d="M277.3,285.35l26.43,3.8-3.8,26.42a5.45,5.45,0,0,0,4.61,6.16,5.32,5.32,0,0,0,.78.06,5.44,5.44,0,0,0,5.38-4.67l3.8-26.43,26.42,3.8a5.27,5.27,0,0,0,.78.05,5.44,5.44,0,0,0,.77-10.82L316,279.92l3.8-26.42A5.44,5.44,0,0,0,309.07,252l-3.8,26.43-26.42-3.8a5.44,5.44,0,0,0-1.55,10.77Z"/><path class="cls-4" d="M433.46,861.4l-26.28-4.7,4.7-26.28a5.44,5.44,0,0,0-10.71-1.91l-4.7,26.28-26.28-4.7a5.44,5.44,0,0,0-1.92,10.71l26.29,4.7-4.7,26.28a5.44,5.44,0,0,0,4.39,6.31,5.36,5.36,0,0,0,1,.08,5.44,5.44,0,0,0,5.34-4.48l4.7-26.28,26.28,4.7a5.39,5.39,0,0,0,1,.09,5.44,5.44,0,0,0,.95-10.8Z"/><path class="cls-4" d="M279.21,606.71a36.11,36.11,0,1,0,36.12,36.11A36.15,36.15,0,0,0,279.21,606.71Zm0,61.34a25.23,25.23,0,1,1,25.24-25.23A25.26,25.26,0,0,1,279.21,668.05Z"/><path class="cls-4" d="M112.52,390.72a36.12,36.12,0,1,0,36.11-36.11A36.15,36.15,0,0,0,112.52,390.72Zm61.35,0a25.24,25.24,0,1,1-25.24-25.23A25.27,25.27,0,0,1,173.87,390.72Z"/><path class="cls-4" d="M694.07,887.29a36.12,36.12,0,1,0,36.12,36.12A36.15,36.15,0,0,0,694.07,887.29Zm0,61.35a25.24,25.24,0,1,1,25.24-25.23A25.26,25.26,0,0,1,694.07,948.64Z"/><path class="cls-4" d="M35.7,809.49A27.23,27.23,0,1,0,8.47,782.26,27.26,27.26,0,0,0,35.7,809.49Zm0-43.58a16.35,16.35,0,1,1-16.35,16.35A16.36,16.36,0,0,1,35.7,765.91Z"/><path class="cls-4" d="M145.19,119.68c1,0,1.95-.05,2.93-.14a5.44,5.44,0,1,0-1-10.83c-8.06.73-16.51-3.09-22.61-10.22S116,82.42,117.94,74.57a5.44,5.44,0,0,0-10.56-2.65c-2.82,11.26.5,23.83,8.89,33.64C124,114.54,134.57,119.68,145.19,119.68Z"/><path class="cls-4" d="M210.81,104.38a49.33,49.33,0,0,1,44.8,69.33,5.44,5.44,0,0,0,2.77,7.18,5.57,5.57,0,0,0,2.2.46,5.44,5.44,0,0,0,5-3.23,60.2,60.2,0,0,0-54.68-84.61h0a5.44,5.44,0,0,0,0,10.87Z"/><path class="cls-4" d="M480.56,218.15c3.84,17,2.31,29.57-4.54,37.24a5.44,5.44,0,0,0,8.12,7.25c9.32-10.45,11.69-26.22,7-46.88-.61-2.7-1.29-5.42-1.94-8-2.88-11.59-5.6-22.53-3.38-33.07A25.34,25.34,0,0,1,498.74,158c2.84-1.4,7.14-2.63,11.52-.54a5.44,5.44,0,0,0,4.7-9.81c-6.49-3.11-14-2.9-21,.59a36.22,36.22,0,0,0-18.71,24.2c-2.74,13,.41,25.66,3.46,37.93C479.32,212.91,480,215.57,480.56,218.15Z"/><path class="cls-4" d="M605.31,297.43a5.44,5.44,0,0,0,2.56,10.24,5.33,5.33,0,0,0,2.55-.64c21.63-11.52,31.51-40.17,21.57-62.57a5.44,5.44,0,0,0-10,4.41C629.62,266,621.8,288.64,605.31,297.43Z"/><path class="cls-4" d="M648.67,393.57a5.44,5.44,0,1,0-6.24-8.91c-29.3,20.5-39.29,64.19-21.83,95.4a5.44,5.44,0,1,0,9.5-5.32C615.24,448.19,623.74,411,648.67,393.57Z"/><path class="cls-4" d="M675.15,760.32a5.43,5.43,0,0,0,5.4,4.86,5.63,5.63,0,0,0,.58,0,5.43,5.43,0,0,0,4.83-6l-5.66-52.95C679,694,677.37,678.74,683.46,667a24.56,24.56,0,0,1,16-12.17c3.17-.68,7.78-.85,11.7,2.22a5.44,5.44,0,1,0,6.72-8.55c-5.64-4.44-13-6-20.72-4.3A35.33,35.33,0,0,0,673.81,662c-7.61,14.64-5.79,31.69-4.32,45.38Z"/><path class="cls-4" d="M506.09,667.44a5.44,5.44,0,0,0,1.22-7.59c-4.48-6.2-11.61-9.72-20.06-9.92a33.7,33.7,0,0,0-26.72,12.19c-8.74,11-11.6,27.07-8.28,46.59a135.58,135.58,0,0,0,22.58,54.89,5.44,5.44,0,1,0,8.9-6.26A124.81,124.81,0,0,1,463,706.88c-1.94-11.42-2.46-27.28,6.07-38a23,23,0,0,1,18-8.1c2.88.07,8.2.86,11.49,5.41A5.44,5.44,0,0,0,506.09,667.44Z"/><path class="cls-4" d="M246.34,818.28a5.44,5.44,0,0,0-4.27-6.4c-23.09-4.59-48.71,4.49-63.76,22.61-8.37,10.08-13.31,22.08-18.08,33.68-2.13,5.16-4.32,10.5-6.76,15.48-4.24,8.66-16.12,28.89-34.93,29.81a5.44,5.44,0,0,0,.26,10.88h.27c17.32-.85,33.42-13.94,44.17-35.89,2.59-5.3,4.86-10.81,7-16.13,4.67-11.35,9.08-22.07,16.39-30.87,12.57-15.13,34-22.72,53.27-18.89A5.43,5.43,0,0,0,246.34,818.28Z"/><path class="cls-4" d="M904.5,151.51a5.18,5.18,0,0,0,1.34-.17,5.42,5.42,0,0,0,3.93-6.61,59.57,59.57,0,0,1,50.4-73.79,5.44,5.44,0,1,0-1.33-10.79,70.43,70.43,0,0,0-59.61,87.26A5.45,5.45,0,0,0,904.5,151.51Z"/><path class="cls-4" d="M1083.89,246a5.46,5.46,0,0,0,7.7,0l18.87-18.88L1129.34,246a5.44,5.44,0,0,0,7.69-7.69l-18.87-18.88L1137,200.52a5.44,5.44,0,0,0-7.69-7.69l-18.88,18.88-18.87-18.88a5.44,5.44,0,0,0-7.7,7.69l18.88,18.88-18.88,18.88A5.44,5.44,0,0,0,1083.89,246Z"/><path class="cls-4" d="M1030.31,676.64a5.44,5.44,0,0,0,7.69,0l11.16-11.16,11.16,11.16A5.44,5.44,0,1,0,1068,669l-11.16-11.16L1068,646.63a5.44,5.44,0,1,0-7.7-7.7l-11.16,11.16L1038,638.93a5.44,5.44,0,0,0-7.69,7.7l11.16,11.16L1030.31,669A5.44,5.44,0,0,0,1030.31,676.64Z"/><path class="cls-4" d="M1100.23,946.41a5.44,5.44,0,1,0,7.69-7.69l-51.06-51.07,51.06-51.06a5.44,5.44,0,0,0-7.69-7.69L1049.16,880,998.1,828.9a5.44,5.44,0,0,0-7.69,7.69l51.06,51.06-51.06,51.07a5.44,5.44,0,0,0,7.69,7.69l51.06-51.06Z"/><path class="cls-4" d="M1148.19,442.3,1137,431.14a5.44,5.44,0,0,0-7.69,7.69L1140.5,450l-11.16,11.16a5.44,5.44,0,0,0,7.69,7.7l11.16-11.16,11.16,11.16a5.44,5.44,0,0,0,7.7-7.7L1155.89,450l11.16-11.16a5.44,5.44,0,0,0-7.7-7.69Z"/><path class="cls-4" d="M990.18,546.93a5.44,5.44,0,0,0,1.92-10.71l-26.28-4.7,4.7-26.28a5.44,5.44,0,0,0-10.71-1.91l-4.7,26.28-26.28-4.7a5.44,5.44,0,1,0-1.92,10.71l26.28,4.7-4.7,26.28a5.44,5.44,0,0,0,4.4,6.31,5.18,5.18,0,0,0,1,.08,5.44,5.44,0,0,0,5.35-4.48l4.7-26.28Z"/><path class="cls-4" d="M931,394a36.12,36.12,0,1,0-36.11-36.12A36.15,36.15,0,0,0,931,394Zm0-61.35A25.24,25.24,0,1,1,905.8,357.9,25.26,25.26,0,0,1,931,332.67Z"/><path class="cls-4" d="M574.55,41.57a61.36,61.36,0,0,0,61.29-61.29A61.36,61.36,0,0,0,574.55-81a61.35,61.35,0,0,0-61.28,61.28A61.35,61.35,0,0,0,574.55,41.57Zm0-111.69A50.47,50.47,0,0,1,625-19.72a50.47,50.47,0,0,1-50.41,50.41,50.46,50.46,0,0,1-50.4-50.41A50.46,50.46,0,0,1,574.55-70.12Z"/><path class="cls-4" d="M785.48,526.09a71.4,71.4,0,0,0-10.1,57.09,5.44,5.44,0,0,0,5.27,4.1,5.18,5.18,0,0,0,1.34-.17,5.44,5.44,0,0,0,3.93-6.61,59.57,59.57,0,0,1,50.4-73.79,5.44,5.44,0,0,0-1.34-10.8A71.41,71.41,0,0,0,785.48,526.09Z"/><path class="cls-4" d="M1276.51,592.23a5.44,5.44,0,0,0-1.41-7.56,70.44,70.44,0,0,0-102.48,25.79,5.44,5.44,0,1,0,9.67,5,59.57,59.57,0,0,1,86.66-21.8A5.44,5.44,0,0,0,1276.51,592.23Z"/><path class="cls-4" d="M1464.64,600.41a36.12,36.12,0,1,0-36.11,36.11A36.15,36.15,0,0,0,1464.64,600.41Zm-61.35,0a25.24,25.24,0,1,1,25.24,25.23A25.27,25.27,0,0,1,1403.29,600.41Z"/><path class="cls-4" d="M1261.83,348.31A36.12,36.12,0,1,0,1298,312.2,36.16,36.16,0,0,0,1261.83,348.31Zm61.35,0A25.24,25.24,0,1,1,1298,323.08,25.26,25.26,0,0,1,1323.18,348.31Z"/><path class="cls-4" d="M1185,712.62a27.23,27.23,0,1,0,27.23,27.23A27.26,27.26,0,0,0,1185,712.62Zm0,43.58a16.35,16.35,0,1,1,16.35-16.35A16.38,16.38,0,0,1,1185,756.2Z"/><path class="cls-4" d="M792.4,273.92a27.23,27.23,0,1,0-27.23-27.23A27.26,27.26,0,0,0,792.4,273.92Zm0-43.58a16.35,16.35,0,1,1-16.35,16.35A16.38,16.38,0,0,1,792.4,230.34Z"/><path class="cls-4" d="M1133.19,100.48A27.23,27.23,0,1,0,1106,73.25,27.27,27.27,0,0,0,1133.19,100.48Zm0-43.58a16.35,16.35,0,1,1-16.35,16.35A16.37,16.37,0,0,1,1133.19,56.9Z"/><path class="cls-4" d="M604.23,148.22A27.23,27.23,0,1,0,631.46,121,27.27,27.27,0,0,0,604.23,148.22Zm43.58,0a16.35,16.35,0,1,1-16.35-16.35A16.36,16.36,0,0,1,647.81,148.22Z"/><path class="cls-4" d="M1294.5,77.26c1,0,2,0,2.93-.13a5.44,5.44,0,1,0-1-10.83c-8,.73-16.5-3.09-22.6-10.23s-8.57-16.07-6.6-23.91a5.44,5.44,0,0,0-10.55-2.65c-2.83,11.26.49,23.83,8.88,33.64C1273.26,72.12,1283.89,77.26,1294.5,77.26Z"/><path class="cls-4" d="M822.64,99.18c1,0,2,0,2.93-.13a5.44,5.44,0,0,0-1-10.84c-8.05.73-16.51-3.09-22.61-10.22s-8.56-16.07-6.59-23.92a5.44,5.44,0,0,0-10.56-2.64c-2.82,11.25.5,23.83,8.88,33.63C801.39,94,812,99.18,822.64,99.18Z"/><path class="cls-4" d="M1360.13,62a49.33,49.33,0,0,1,44.8,69.33,5.44,5.44,0,0,0,9.94,4.41,60.21,60.21,0,0,0-54.68-84.62h0a5.44,5.44,0,0,0,0,10.88Z"/><path class="cls-4" d="M1391.38,769.47c-23.09-4.59-48.71,4.49-63.75,22.6-8.37,10.08-13.31,22.08-18.09,33.69-2.12,5.16-4.32,10.5-6.76,15.48-4.24,8.65-16.12,28.88-34.93,29.81a5.44,5.44,0,0,0,.26,10.87h.28c17.32-.86,33.41-13.94,44.16-35.9,2.6-5.3,4.86-10.8,7-16.12,4.67-11.35,9.09-22.07,16.4-30.88,12.56-15.13,34-22.72,53.26-18.88a5.44,5.44,0,1,0,2.12-10.67Z"/><path class="cls-4" d="M204.77,1002.46a70.44,70.44,0,0,0-59.61,87.27,5.45,5.45,0,0,0,5.27,4.1,5.67,5.67,0,0,0,1.35-.17,5.44,5.44,0,0,0,3.93-6.61,59.54,59.54,0,0,1,50.39-73.79,5.44,5.44,0,0,0-1.33-10.8Z"/><path class="cls-4" d="M375.27,1188.29a5.44,5.44,0,1,0,7.7-7.7l-18.88-18.87L383,1142.84a5.44,5.44,0,0,0-7.7-7.7L356.4,1154l-18.88-18.88a5.44,5.44,0,1,0-7.69,7.7l18.87,18.88-18.87,18.87a5.44,5.44,0,0,0,7.69,7.7l18.88-18.88Z"/><path class="cls-4" d="M943.2,1270.16a5.44,5.44,0,0,0-7.69,0l-11.16,11.16-11.16-11.16a5.44,5.44,0,0,0-7.69,7.7L916.66,1289l-11.16,11.16a5.44,5.44,0,0,0,7.69,7.69l11.16-11.16,11.16,11.16a5.44,5.44,0,1,0,7.69-7.69L932,1289l11.16-11.16A5.44,5.44,0,0,0,943.2,1270.16Z"/><path class="cls-4" d="M413,1373.46a5.43,5.43,0,0,0-7.69,0l-11.16,11.16L383,1373.46a5.44,5.44,0,1,0-7.7,7.69l11.16,11.16-11.16,11.16a5.44,5.44,0,1,0,7.7,7.69L394.13,1400l11.16,11.16a5.42,5.42,0,0,0,7.69,0,5.44,5.44,0,0,0,0-7.69l-11.16-11.16L413,1381.15A5.44,5.44,0,0,0,413,1373.46Z"/><path class="cls-4" d="M909.34,1394.11a36.11,36.11,0,1,0,36.12,36.11A36.15,36.15,0,0,0,909.34,1394.11Zm0,61.34a25.23,25.23,0,1,1,25.24-25.23A25.26,25.26,0,0,1,909.34,1455.45Z"/><path class="cls-4" d="M71,1358.43a61.29,61.29,0,1,0,61.28,61.29A61.35,61.35,0,0,0,71,1358.43Zm0,111.69a50.41,50.41,0,1,1,50.4-50.4A50.47,50.47,0,0,1,71,1470.12Z"/><path class="cls-4" d="M795.45,1285.23a70.44,70.44,0,0,0-59.61,87.27,5.45,5.45,0,0,0,5.27,4.1,5.66,5.66,0,0,0,1.34-.17,5.44,5.44,0,0,0,3.93-6.62,59.55,59.55,0,0,1,50.4-73.78,5.44,5.44,0,0,0-1.33-10.8Z"/><path class="cls-4" d="M293,1228.35a70.43,70.43,0,0,0-59.61,87.26,5.44,5.44,0,0,0,5.27,4.1,5.66,5.66,0,0,0,1.35-.16,5.45,5.45,0,0,0,3.93-6.62,59.57,59.57,0,0,1,50.4-73.79,5.44,5.44,0,0,0-1.34-10.79Z"/><path class="cls-4" d="M736.17,1194.39a5.12,5.12,0,0,0,.78.06,5.44,5.44,0,0,0,.77-10.83l-26.43-3.79,3.8-26.43a5.44,5.44,0,1,0-10.77-1.54l-3.8,26.42-26.42-3.79a5.44,5.44,0,1,0-1.55,10.76l26.42,3.8-3.79,26.43a5.43,5.43,0,0,0,4.61,6.15,5.12,5.12,0,0,0,.78.06A5.44,5.44,0,0,0,706,1217l3.79-26.42Z"/><path class="cls-4" d="M543.88,1254.52A36.11,36.11,0,1,0,580,1290.63,36.15,36.15,0,0,0,543.88,1254.52Zm0,61.34a25.23,25.23,0,1,1,25.23-25.23A25.26,25.26,0,0,1,543.88,1315.86Z"/><path class="cls-4" d="M11.1,1189a27.23,27.23,0,1,0,27.23-27.23A27.26,27.26,0,0,0,11.1,1189Zm43.58,0a16.35,16.35,0,1,1-16.35-16.35A16.38,16.38,0,0,1,54.68,1189Z"/><path class="cls-4" d="M379.12,1042.79a27.23,27.23,0,1,0-27.23-27.23A27.26,27.26,0,0,0,379.12,1042.79Zm0-43.58a16.35,16.35,0,1,1-16.35,16.35A16.37,16.37,0,0,1,379.12,999.21Z"/><path class="cls-4" d="M540.43,1019.58c1,0,2,0,2.93-.13a5.44,5.44,0,1,0-1-10.84c-8,.73-16.5-3.09-22.6-10.22s-8.57-16.07-6.6-23.91a5.44,5.44,0,1,0-10.55-2.65c-2.82,11.25.49,23.83,8.88,33.63C519.19,1014.44,529.82,1019.58,540.43,1019.58Z"/><path class="cls-4" d="M71.5,1041.37a5.44,5.44,0,1,0-1-10.84c-8.06.73-16.51-3.09-22.61-10.22s-8.56-16.07-6.59-23.92a5.44,5.44,0,0,0-10.55-2.65c-2.83,11.26.49,23.83,8.88,33.64,7.68,9,18.31,14.12,28.92,14.12C69.55,1041.5,70.52,1041.45,71.5,1041.37Z"/><path class="cls-4" d="M606.12,993.41h0a5.44,5.44,0,0,0,0,10.88,49.32,49.32,0,0,1,44.8,69.32,5.44,5.44,0,0,0,2.77,7.18,5.34,5.34,0,0,0,2.2.47,5.44,5.44,0,0,0,5-3.24,60.2,60.2,0,0,0-54.68-84.61Z"/><path class="cls-4" d="M879.39,1162.54c9.32-10.45,11.68-26.22,7-46.88-.6-2.69-1.28-5.41-1.93-8-2.88-11.59-5.6-22.54-3.38-33.07A25.33,25.33,0,0,1,894,1057.86c2.84-1.4,7.14-2.63,11.51-.53a5.44,5.44,0,1,0,4.7-9.82c-6.49-3.1-14-2.89-21,.59a36.25,36.25,0,0,0-18.71,24.2c-2.74,13,.41,25.67,3.46,37.94.64,2.57,1.3,5.24,1.88,7.81,3.83,17,2.31,29.57-4.54,37.25a5.44,5.44,0,1,0,8.12,7.24Z"/><path class="cls-4" d="M1317.21,1053.84a5.44,5.44,0,0,0-6.31,4.4l-11.32,63.27a5.44,5.44,0,0,0,4.4,6.31,5.2,5.2,0,0,0,1,.09,5.44,5.44,0,0,0,5.35-4.49l11.32-63.27A5.44,5.44,0,0,0,1317.21,1053.84Z"/><path class="cls-4" d="M1151.8,1041.62c-23.09-4.6-48.71,4.49-63.76,22.6-8.37,10.08-13.31,22.08-18.08,33.68-2.13,5.16-4.33,10.5-6.76,15.48-4.24,8.66-16.13,28.89-34.93,29.82a5.44,5.44,0,0,0,.26,10.87h.27c17.32-.85,33.42-13.94,44.17-35.89,2.59-5.3,4.86-10.81,7-16.13,4.67-11.35,9.08-22.07,16.39-30.87,12.57-15.13,34-22.72,53.26-18.88a5.44,5.44,0,0,0,2.13-10.67Z"/><path class="cls-4" d="M1114.49,1232.2a70.43,70.43,0,0,0-59.6,87.26,5.45,5.45,0,0,0,5.27,4.1,5.18,5.18,0,0,0,1.34-.17,5.44,5.44,0,0,0,3.93-6.61,59.57,59.57,0,0,1,50.4-73.79,5.44,5.44,0,1,0-1.34-10.79Z"/><path class="cls-4" d="M1292.69,1364.88a5.43,5.43,0,0,0-7.69,0l-18.88,18.87-18.88-18.87a5.44,5.44,0,1,0-7.69,7.69l18.88,18.88-18.88,18.87a5.44,5.44,0,0,0,7.69,7.7l18.88-18.88L1285,1418a5.44,5.44,0,1,0,7.69-7.7l-18.87-18.87,18.87-18.88A5.43,5.43,0,0,0,1292.69,1364.88Z"/><path class="cls-4" d="M1288.85,1218.07a27.23,27.23,0,1,0,27.23,27.23A27.25,27.25,0,0,0,1288.85,1218.07Zm0,43.58a16.35,16.35,0,1,1,16.35-16.35A16.37,16.37,0,0,1,1288.85,1261.65Z"/></g></g></g></svg>