<svg id="e4XqFukUELA1" xmlns="http://www.w3.org/2000/svg" xmlns:xlink="http://www.w3.org/1999/xlink" viewBox="0 0 295.3 279.2" shape-rendering="geometricPrecision" text-rendering="geometricPrecision">
<style><![CDATA[
#e4XqFukUELA2_ts {animation: e4XqFukUELA2_ts__ts 3000ms linear infinite normal forwards}@keyframes e4XqFukUELA2_ts__ts { 0% {transform: translate(156.426948px,135.164988px) scale(1,1)} 93.333333% {transform: translate(156.426948px,135.164988px) scale(1,1)} 100% {transform: translate(156.426948px,135.164988px) scale(0.1853,0.1853)}} #e4XqFukUELA2 {animation: e4XqFukUELA2_c_o 3000ms linear infinite normal forwards}@keyframes e4XqFukUELA2_c_o { 0% {opacity: 1} 93.333333% {opacity: 1} 100% {opacity: 0}} #e4XqFukUELA3_to {animation: e4XqFukUELA3_to__to 3000ms linear infinite normal forwards}@keyframes e4XqFukUELA3_to__to { 0% {transform: translate(139.756545px,150.828404px);animation-timing-function: cubic-bezier(0.42,0,1,1)} 20% {transform: translate(139.756545px,150.828404px)} 100% {transform: translate(139.756545px,150.828404px)}} #e4XqFukUELA3_ts {animation: e4XqFukUELA3_ts__ts 3000ms linear infinite normal forwards}@keyframes e4XqFukUELA3_ts__ts { 0% {transform: scale(0.138609,0.138609);animation-timing-function: cubic-bezier(0.42,0,1,1)} 20% {transform: scale(1,1)} 100% {transform: scale(1,1)}} #e4XqFukUELA3 {animation: e4XqFukUELA3_c_o 3000ms linear infinite normal forwards}@keyframes e4XqFukUELA3_c_o { 0% {opacity: 0;animation-timing-function: cubic-bezier(0.42,0,1,1)} 20% {opacity: 1} 23.333333% {opacity: 0} 100% {opacity: 0}} #e4XqFukUELA9_ts {animation: e4XqFukUELA9_ts__ts 3000ms linear infinite normal forwards}@keyframes e4XqFukUELA9_ts__ts { 0% {transform: translate(156.858747px,143.539038px) scale(1,1)} 20% {transform: translate(156.858747px,143.539038px) scale(1,1)} 23.333333% {transform: translate(156.858747px,143.539038px) scale(1,1)} 100% {transform: translate(156.858747px,143.539038px) scale(1,1)}} #e4XqFukUELA9 {animation: e4XqFukUELA9_c_o 3000ms linear infinite normal forwards}@keyframes e4XqFukUELA9_c_o { 0% {opacity: 0} 20% {opacity: 0} 23.333333% {opacity: 1} 100% {opacity: 1}} #e4XqFukUELA16_to {animation: e4XqFukUELA16_to__to 3000ms linear infinite normal forwards}@keyframes e4XqFukUELA16_to__to { 0% {transform: translate(234.554627px,101.483413px)} 21.666667% {transform: translate(234.554627px,101.483413px)} 26% {transform: translate(268.758141px,87.586456px)} 100% {transform: translate(268.758141px,87.586456px)}} #e4XqFukUELA16_ts {animation: e4XqFukUELA16_ts__ts 3000ms linear infinite normal forwards}@keyframes e4XqFukUELA16_ts__ts { 0% {transform: scale(-0.101497,-0.098098)} 21.666667% {transform: scale(-0.101497,-0.098098)} 26% {transform: scale(0.889884,0.860055)} 100% {transform: scale(0.889884,0.860055)}} #e4XqFukUELA16 {animation: e4XqFukUELA16_c_o 3000ms linear infinite normal forwards}@keyframes e4XqFukUELA16_c_o { 0% {opacity: 0} 21.666667% {opacity: 0} 26% {opacity: 1} 100% {opacity: 1}} #e4XqFukUELA17_to {animation: e4XqFukUELA17_to__to 3000ms linear infinite normal forwards}@keyframes e4XqFukUELA17_to__to { 0% {transform: translate(212.679381px,86.604657px)} 21.666667% {transform: translate(212.679381px,86.604657px)} 26% {transform: translate(223.762497px,62.200001px)} 100% {transform: translate(223.762497px,62.200001px)}} #e4XqFukUELA17_ts {animation: e4XqFukUELA17_ts__ts 3000ms linear infinite normal forwards}@keyframes e4XqFukUELA17_ts__ts { 0% {transform: scale(0.110789,0.054041)} 21.666667% {transform: scale(0.110789,0.054041)} 26% {transform: scale(1,1)} 100% {transform: scale(1,1)}} #e4XqFukUELA17 {animation: e4XqFukUELA17_c_o 3000ms linear infinite normal forwards}@keyframes e4XqFukUELA17_c_o { 0% {opacity: 0} 21.666667% {opacity: 0} 26% {opacity: 1} 100% {opacity: 1}} #e4XqFukUELA18_to {animation: e4XqFukUELA18_to__to 3000ms linear infinite normal forwards}@keyframes e4XqFukUELA18_to__to { 0% {transform: translate(224.924412px,91.904578px)} 21.666667% {transform: translate(224.924412px,91.904578px)} 26% {transform: translate(249.551628px,67.448826px)} 100% {transform: translate(249.551628px,67.448826px)}} #e4XqFukUELA18_ts {animation: e4XqFukUELA18_ts__ts 3000ms linear infinite normal forwards}@keyframes e4XqFukUELA18_ts__ts { 0% {transform: scale(0.072014,0.091728)} 21.666667% {transform: scale(0.072014,0.091728)} 26% {transform: scale(1,1)} 100% {transform: scale(1,1)}} #e4XqFukUELA18 {animation: e4XqFukUELA18_c_o 3000ms linear infinite normal forwards}@keyframes e4XqFukUELA18_c_o { 0% {opacity: 0} 21.666667% {opacity: 0} 26% {opacity: 1} 100% {opacity: 1}}
]]></style>
<g id="e4XqFukUELA2_ts" transform="translate(156.426948,135.164988) scale(1,1)"><g id="e4XqFukUELA2" transform="translate(-156.426948,-135.164988)"><g id="e4XqFukUELA3_to" transform="translate(139.756545,150.828404)"><g id="e4XqFukUELA3_ts" transform="scale(0.138609,0.138609)"><g id="e4XqFukUELA3" transform="translate(-70.547779,-150.912529)" opacity="0"><g><g transform="translate(.000001 0.000001)"><path d="M113.3,199.9c-1.2-.5-3.5-.8-5.2,2.8-.5,1.1-1,2.2-1.5,3.3-1.4,3.1-2.8,6.3-4.2,9.4-.6,1.3-.9,2.9-.9,4.3c0,3.1,0,6.2,0,9.2c0,2.7,0,5.4,0,8.1c0,1.5.2,3.4,1.9,4.8l.3.2h2.8l.3-.2c1.9-1.3,2.1-3.3,2.1-4.8-.1-5.5-.1-11.1,0-16.6c0-.9.2-1.8.6-2.7c1.2-2.9,2.5-5.8,3.8-8.6.6-1.2,1.1-2.4,1.6-3.7.7-1.5.8-2.8.4-3.9-.4-.6-1.1-1.2-2-1.6Z" fill="#141c3f"/><path d="M42,218.1c-3.1-4.1-6.3-8.1-9.5-12.1-4.8-5.8-7.6-12-8.6-18.8-.2-1.1-.8-2.4-1.8-2.9s-2.5-.5-3.6-.1c-1,.4-2.2,1.4-1.8,4.1c1,6.7,3,12.1,6.2,16.6c2.5,3.5,5.2,7,7.8,10.4c1.6,2,3.2,4.1,4.8,6.2.4.6.7,1.4.7,2.1.1,2.9.1,5.9.1,8.9c0,1.7,0,3.5,0,5.2c0,2.5,1.3,4.1,3.5,4.1c0,0,.1,0,.1,0c1,0,1.8-.3,2.4-.9.8-.7,1.2-1.9,1.2-3.3c0-1.8,0-3.5,0-5.3c0-.9,0-1.7,0-2.6c0-.7,0-1.3,0-2c0-1.8.1-3.8-.1-5.6-.1-1.5-.7-3-1.4-4Z" fill="#141c3f"/><path d="M124.6,149.5c-1.1-3.3-2.7-6.5-4.2-9.6-.9-1.8-1.7-3.6-2.5-5.5-.5-1.1-.7-2.3-.6-3.2.5-6.5,1-13,1.6-19.3.3-3.6.6-7.3.9-10.9.5-6.2-3.8-11.9-9.9-13.1-3.9-.8-7.5.4-10.7,1.9-.2.1-.5.2-.6.2c0,0,0,0,0,0l-.1-.1c0,0-.1-.1-.2-.2-6.1-6.4-14.2-6.8-21-1-2.8,2.3-5.6,4.7-8.4,7l-.8.7c-1.7,1.4-3.3,2.8-5,4.2-.4.3-1.8,1.5-3.6,3v0c-.2.1-.3.3-.5.4-.1-1.4.2-2.1,1-3.3l.5-.7c.8-1.2,1.7-2.4,2.5-3.6c1.4-2.2,1.2-4.3-.6-5.6-.8-.6-1.8-.8-2.7-.6-1,.2-2,.9-2.8,2.1-1,1.5-1.8,2.7-2.5,3.6-2.8,4-2.8,4.2-2.8,9.2c0,1,0,2.2,0,3.6c0,.1,0,.2,0,.4.1.8-.1,1.3-1.1,2.2-3.1,2.5-6.2,5.1-9.2,7.7l-3,2.5c-.4.3-.8.6-1.1,1v-3.8c0-6.5,0-13,0-19.5c0-2.4.8-4.6,2.2-6.7l1.1-1.6c4.6-6.8,9.3-13.7,14.1-20.6c2.4-3.4,6.7-4.3,10.1-2c3.3,2.3,4.1,6.6,1.8,10.2-.4.6-.8,1.2-1.2,1.8-.5.7-.9,1.4-1.4,2.1-1.2,2-.9,4.1.9,5.2c1.7,1.1,3.8.7,5-1.1c1.3-1.9,2.4-3.4,3.3-4.9c1.8-3,2.4-6.4,1.7-9.9-1.3-6.2-5.2-10.2-11.2-11.5-6.2-1.3-11.4.8-15,6-2.8,4-5.6,8.1-8.3,12.1-2.1,3.1-4.2,6.2-6.4,9.3-2.7,4-4,8.2-4,13s0,9.7,0,14.5c0,4.2,0,8.3,0,12.5c0,.8-.2,1.2-.8,1.7-2.1,1.7-4.1,3.4-6.1,5.1l-.8.7c-3.2,2.7-5.6,6.1-7,10-.4,1.2-.7,2.5-1.1,3.7-.1.5-.3,1.1-.4,1.6l-.1.2v5.8.2c0,.3.1.5.1.8.1.4.2.8.2,1.2.2,3,.5,6,.7,9s.5,6,.7,9c.2,2.3,1.8,3.7,3.9,3.6c2-.2,3.3-1.7,3.3-3.9c0-.3,0-.6,0-1-.1-1.8-.3-3.6-.4-5.4-.3-4.2-.6-8.6-1.1-12.9-.8-7.2,1.5-12.7,7.3-17.5c9.1-7.5,18.3-15.2,27.1-22.6c2.5-2.1,4.9-4.1,7.4-6.2v0c.3-.3.7-.6,1-.8c1.4-1.2,2.5-2.1,2.9-2.4c1.4-1.2,2.9-2.4,4.3-3.6c3.7-3.1,7.6-6.4,11.4-9.5c2.1-1.7,4.8-2.3,7.3-1.4c1.5.5,2.7,1.5,3.6,2.8.5.7.8,1.6,1,2.5.6,2.9-.3,5.3-2.9,7.5-1.5,1.2-2.9,2.4-4.3,3.6-1.4,1.1-2.7,2.3-4.1,3.4-4.3,3.6-8.5,7.2-12.8,10.7c0,0-.1,0-.1.1c0,0-.1,0-.1.1-.7.6-1.4,1.2-2.1,1.8-2.5,2.2-9.2,6.1-9.6,6.5-4.4,3.8-9.4,8.1-14.4,12.5-.6.5-1.5,1.5-1.3,2.5.1,1.1.5,2.5,1.4,3.3c1.3,1.2,3.1,1.1,4.7-.3c1.2-1.1,2.5-2.1,3.7-3.2c3.2-2.8,6.5-5.7,9.8-8.4c1-.8,2.3-1.4,3.8-1.8c1.3-.3,2.7.2,4.3,1.5c2.9,2.4,5.7,4.9,8.6,7.3c4.1,3.5,8.2,7,12.2,10.4c2,1.7,3,4.1,2.7,6.5-.2,2.3-1.6,4.3-3.7,5.5-.8.4-1,.4-1.6-.1-3.9-3.4-8.1-7-13.7-11.7-5.2-4.4-11.8-4.3-16.9,0-4.1,3.5-8.3,7.2-12.3,10.7l-1.3,1.2c-2,1.7-2.3,3.8-.9,5.5.6.8,1.4,1.2,2.4,1.3c1.1.1,2.3-.4,3.4-1.3c2.2-1.9,4.4-3.9,6.7-5.8c2.2-1.9,4.3-3.8,6.5-5.7c2.7-2.3,5.4-2.3,8.1-.1l.1.1c6.8,5.7,13.7,11.6,20.5,17.5.9.8,1.6,1.7,2.1,2.6c1.6,3,.8,6.7-2,8.9-2.7,2.2-6.4,2.1-9.1-.2-2.4-2-4.9-4.1-7.3-6.2-1.8-1.6-3.6-3.1-5.5-4.7-2.1-1.8-3.8-1.7-5.8.2-1.1,1.1-2.3,2.2-3.4,3.4-1.5,1.6-1.6,3.7-.2,5.1c1.4,1.6,3.6,1.6,5.3,0c.5-.5,1-.9,1.5-1.4c0,0,0,0,0,0c1,.9,2,1.7,3,2.6c2.7,2.3,5.2,4.4,7.8,6.6c2.8,2.3,6.1,3.4,9.3,3.4c4,0,8-1.7,10.9-5c5.2-6,4.6-15-1.4-20.4-.4-.3-.7-.7-1.1-1c3.8-3,6-7,6.1-11.4.1-4.5-1.9-8.7-5.8-12l-2-1.7c-1.9-1.6-3.8-3.3-5.8-4.9-.5-.4-.6-.6-.4-1.3.9-4.2,1.7-8.4,2.5-12.6.6-2.9,1.2-5.8,1.7-8.8v0c0,0,.6-2.7,1.7-6.4.1-.2.3-.4.4-.6.1-.1.1-.1.2-.2.7-.8,1.5-1.5,2.3-2.3c1.3-1.3,2.7-2.5,3.7-4.1c1.8-2.6,2.4-5.6,1.9-9.6.3-.2.5-.5.8-.6c0,0,.1,0,.1,0c1.2-.4,2.4-.8,3.5-1.1c1.7-.4,3.4,0,4.6,1.1s1.9,2.7,1.7,4.5l-.5,6.3c-.6,6.8-1.1,13.9-1.8,20.8-.5,5,.2,8.7,2.2,12.2.9,1.5,1.6,3.1,2.4,4.7.3.7.6,1.3.9,2c4.3,9,5.6,18.6,3.7,28.4-1,5-3.1,9.7-5.1,14.3l-.7,1.6c-.6,1.2-.6,2.4-.3,3.4.3.9,1,1.5,1.9,1.9c2,.8,3.9-.1,4.9-2.3.8-1.7,1.5-3.4,2.3-5.1l.4-.8c5.7-13.5,6.3-26.5,1.9-39.2Zm-43.8-13c-2.6-2.2-5.2-4.3-7.8-6.4.2-.2.5-.4.7-.6.8-.7,1.6-1.3,2.4-2c.1-.1.3-.3.4-.4.7-.5,1.3-1.1,2-1.7c1.7-1.4,3.5-2.9,5.3-4.4v0l-3,15.5Z" fill="#141c3f"/></g></g></g></g></g><g id="e4XqFukUELA9_ts" transform="translate(156.858747,143.539038) scale(1,1)"><g id="e4XqFukUELA9" transform="translate(-212.349983,-146.950005)" opacity="0"><g><g><path d="M236.8,211.2c-1.2-.5-3.5-.8-5.2,2.8-.5,1.1-1,2.2-1.5,3.3-1.4,3.1-1.4,2.4-2.8,5.5-.6,1.3-.9,2.9-.9,4.3c0,3.1,0,6.2,0,9.2c0,2.7,0,5.4,0,8.1c0,1.5.2,3.4,1.9,4.8l.3.2h2.8l.3-.2c1.9-1.3,2.1-3.3,2.1-4.8-.1-5.5-.1-11.1,0-16.6c0-.9.2-1.8.6-2.7c1.2-2.9,1.1-1.8,2.4-4.6.6-1.2,1.1-2.4,1.6-3.7.7-1.5.8-2.8.4-3.9-.4-.7-1.1-1.3-2-1.7Z" fill="#141c3f"/><path d="M166.9,225.4c-3.1-4.1-6.3-8.1-9.5-12.1-4.8-5.8-8.1-17.9-9.1-24.7-.2-1.1-.8-2.4-1.8-2.9s-2.5-.5-3.6-.1c-1,.4-2.2,1.4-1.8,4.1c1,6.7,3.5,18.1,6.6,22.6c2.5,3.5,5.2,7,7.8,10.4c1.6,2,3.2,4.1,4.8,6.2.4.6.7,1.4.7,2.1.1,2.9.1,5.9.1,8.9c0,1.7,0,3.5,0,5.2c0,2.5,1.3,4.1,3.5,4.1c0,0,.1,0,.1,0c1,0,1.8-.3,2.4-.9.8-.7,1.2-1.9,1.2-3.3c0-1.8,0-3.5,0-5.3c0-.9,0-1.7,0-2.6c0-.7,0-1.3,0-2c0-1.8.1-3.8-.1-5.6c0-1.6-.5-3.1-1.3-4.1Z" fill="#141c3f"/><path d="M249.5,156.8c-1.1-3.3-2.7-6.5-4.2-9.6-.9-1.8-1.7-3.6-2.5-5.5-.5-1.1-.7-2.3-.6-3.2.5-6.5,1-13,1.6-19.3.3-3.6.6-7.3.9-10.9.5-6.2-4-11-9.9-13.1-4.9-1.7-12.6,1.7-16.4,7.3-1.9,2.8-4,7.1-6.2,13.6-.3,1-.6,2-1,3-.8-.6-1.5-1.2-2.3-1.8-.4-.3-2.7-2.3-4.7-3.9-.9-1-3.1-2.8-6.2-4.3-7.5-3.8-13.9,2.1-14.1,2.3-.1-1.4.2-2.1,1-3.3l.5-.7c.8-1.2,2.7-4.8,3.5-6c1.4-2.2,1.2-4.3-.6-5.6-.8-.6-1.8-.8-2.7-.6-1,.2-2,.9-2.8,2.1-1,1.5-1.8,2.7-2.5,3.6-2.8,4-3.9,6.6-3.9,11.6c0,1,0,2.2,0,3.6c0,.1,0,.2,0,.4.1.8-.1,1.3-1.1,2.2-3.1,2.5-6.2,5.1-9.2,7.7l-3,2.5c-.4.3-.8.6-1.1,1v-3.8c0-6.5,0-13,0-19.5c0-2.4.8-4.6,2.2-6.7l1.1-1.6c4.6-6.8,11.9-19.2,16.6-26c2.4-3.4,6.7-4.3,10.1-2c3.3,2.3,4.1,6.6,1.8,10.2-.4.6-2.3,4.2-2.7,4.8-.5.7-.9,1.4-1.4,2.1-1.2,2-.9,4.1.9,5.2c1.7,1.1,3.8.7,5-1.1c1.3-1.9,3.9-6.4,4.8-7.9c1.8-3,2.4-6.4,1.7-9.9-1.3-6.2-5.2-10.2-11.2-11.5-6.2-1.3-11.4.8-15,6-2.8,4-5.6,8.1-8.3,12.1-2.1,3.1-6.8,11.6-9,14.7-2.7,4-4,8.2-4,13s0,9.7,0,14.5c0,4.2,0,8.3,0,12.5c0,.7-.3,1.3-.8,1.8-2.1,1.7-4.1,3.4-6.1,5.1l-.8.7c-3.2,2.7-5.6,6.1-7,10-.4,1.2-.7,2.5-1.1,3.7-.1.5-.3,1.1-.4,1.6l-.1.2v5.8.2c0,.3.1.5.1.8.1.4.2.8.2,1.2.2,3,0,0,.2,3s.5,6,.7,9c.2,2.3,1.8,3.7,3.9,3.6c2-.2,3.3-1.7,3.3-3.9c0-.3,0-.6,0-1-.1-1.8-.3-3.6-.4-5.4-.3-4.2-.1-2.7-.6-7-.8-7.2,1.5-12.7,7.3-17.5c9.1-7.5,18.3-15.2,27.1-22.6c2.5-2.1,4.9-4.1,7.4-6.2c0,0,4.8-4,6.8-2.2.2.2.5.4.7.6c1.2.9,3.3,2.7,5.1,4.2c1.5,1.2,2.7,2.2,2.8,2.3.5.4,1,.8,1.4,1.1.7.6,1.5,1.2,2.2,1.7s1.4,1.1,2.1,1.6c.3.2.6.4.8.7.3.2.5.4.8.7c1.6,1.3,3.1,2.5,4.7,3.8c1.3,1.1,2.6,2.1,3.9,3.2c2.1,1.7,3.2,4.3,2.8,6.8-.3,2.5-1.9,4.5-4.3,5.5-1.9.8-3.7.8-5.5.1-.8-.3-1.6-.8-2.4-1.4-1.4-1.1-2.8-2.2-4.1-3.3-1.5-1.2-3-2.4-4.5-3.6-.9-.7-1.7-1.4-2.6-2.1-.1-.1-.3-.2-.3-.2s-6.7-5.9-15.2,1.7c-4.3,3.8-9.4,8.1-14.4,12.5-.6.5-1.5,1.5-1.3,2.5.1,1.1.5,2.5,1.4,3.3c1.3,1.2,3.1,1.1,4.7-.3c1.2-1.1,2.5-2.1,3.7-3.2c3.2-2.8,6.5-5.7,9.8-8.4c1-.8,2.3-1.4,3.8-1.8c1.3-.3,2.7.2,4.3,1.5c2.9,2.4,5.7,4.9,8.6,7.3c4.1,3.5,8.2,7,12.2,10.4c2,1.7,3,4.1,2.7,6.5-.2,2.3-1.6,4.3-3.7,5.5-.8.4-1,.4-1.6-.1-3.9-3.4-8.1-7-13.7-11.7-5.2-4.4-11.8-4.3-16.9,0-4.1,3.5-8.3,7.2-12.3,10.7l-1.3,1.2c-2,1.7-2.3,3.8-.9,5.5.6.8,1.4,1.2,2.4,1.3c1.1.1,2.3-.4,3.4-1.3c2.2-1.9,4.4-3.9,6.7-5.8c2.2-1.9,4.3-3.8,6.5-5.7c2.7-2.3,5.4-2.3,8.1-.1l.1.1c6.8,5.7,13.7,11.6,20.5,17.5.9.8,1.6,1.7,2.1,2.6c1.6,3,.8,6.7-2,8.9-2.7,2.2-6.4,2.1-9.1-.2-2.4-2-4.9-4.1-7.3-6.2-1.8-1.6-3.6-3.1-5.5-4.7-2.1-1.8-3.8-1.7-5.8.2-1.1,1.1-2.3,2.2-3.4,3.4-1.5,1.6-1.6,3.7-.2,5.1c1.4,1.6,3.6,1.6,5.3,0c.5-.5,1-.9,1.5-1.4c0,0,0,0,0,0c1,.9,2,1.7,3,2.6c2.7,2.3,5.2,4.4,7.8,6.6c2.8,2.3,6.1,3.4,9.3,3.4c4,0,8-1.7,10.9-5c5.2-6,4.6-15-1.4-20.4-.4-.3-.7-.7-1.1-1c3.8-3,6-7,6.1-11.4.1-4.5-1.9-8.7-5.8-12l-1.9-1.6c.6-.2,1.3-.4,2-.6c0,0,0,.1.1.1c2.1-1,4.1-2.8,5.8-4.5c0-.1.1-.1.2-.2c5.1-7.3,3.8-15.2-3.1-20.8-2-1.6-4.1-3.3-6.1-4.9.2-.9.6-2,.9-3.1.1-.2.3-.4.4-.6l-.4.3c1.3-4.3,3.4-9.8,6-13.6c1.5-2.2,3.6-3.9,6.1-4.8.2-.1.5-.2.7-.2c1.7-.4,3.5.4,4.7,1.5s1.9,2.7,1.7,4.5l-.5,6.3c-.6,6.8-1.1,13.9-1.8,20.8-.5,5,.2,8.7,2.2,12.2.9,1.5,1.6,3.1,2.4,4.7.3.7.6,1.3.9,2c4.3,9,5.6,18.6,3.7,28.4-1,5-5.5,15.5-7.6,20l-.7,1.6c-.6,1.2-.6,2.4-.3,3.4.3.9,1,1.5,1.9,1.9c2,.8,3.9-.1,4.9-2.3.8-1.7,4-9.1,4.7-10.8l.4-.8c6.1-13.6,6.8-26.5,2.3-39.3Z" transform="translate(.352333 0)" fill="#141c3f"/></g></g></g></g><g transform="translate(-54.412195-20.15904)"><g id="e4XqFukUELA16_to" transform="translate(234.554627,101.483413)"><g id="e4XqFukUELA16_ts" transform="scale(-0.101497,-0.098098)"><path id="e4XqFukUELA16" d="M283.8,79.2c-1.5-.9-3.4-.8-5,.1-2.1,1.2-7.1,2.6-11.9,3.9-5.6,1.5-10.9,2.9-13.3,4.5-2.5,1.6-3.2,4.3-1.7,6.6.9,1.5,2.4,2.3,4,2.3c1,0,2-.3,2.9-.9c2-1.2,7-2.5,11.8-3.8c5.6-1.5,10.9-2.9,13.3-4.4.9-.6,1.5-1.5,2-2.2.1-.2.2-.4.3-.5l.2-.3v-.3c-.1-2.1-1-4-2.6-5Z" transform="translate(-268.758141,-87.586456)" opacity="0" fill="#52b3e5"/></g></g><g id="e4XqFukUELA17_to" transform="translate(212.679381,86.604657)"><g id="e4XqFukUELA17_ts" transform="scale(0.110789,0.054041)"><path id="e4XqFukUELA17" d="M228.6,49.7c-.1-3.1-2-5.2-4.8-5.2-2.7,0-4.8,2.1-4.8,5-.1,5.3-.1,20,0,25.4c0,2.9,2.1,5,4.8,5c2.8,0,4.7-2.1,4.8-5.2c0-1.8,0-3.6,0-5.3c0-.8,0-1.6,0-2.4v-3.1c0-4.7,0-12.2,0-14.2Z" transform="translate(-223.762497,-62.200001)" opacity="0" fill="#52b3e5"/></g></g><g id="e4XqFukUELA18_to" transform="translate(224.924412,91.904578)"><g id="e4XqFukUELA18_ts" transform="scale(0.072014,0.091728)"><path id="e4XqFukUELA18" d="M260.1,60c.3-.6,1.1-1.9,1.6-2.6.6-.8-.2-3.4-.2-3.4-.2-.2-.4-.4-.5-.6-.7-.8-1.5-1.7-2.6-2.2-2.2-1-4.4-.1-5.8,2.3-1.2,2.1-3.9,6.2-6.7,10.5-3.2,4.9-6.5,9.9-7.8,12.3-1.6,3-1.1,5.6,1.4,7.1.8.5,1.6.7,2.4.7.4,0,.7,0,1.1-.1c1.4-.4,2.6-1.4,3.5-3.1c1.1-2,3.8-6,6.6-10.2c3.2-4.8,5.8-8.4,7-10.7Z" transform="translate(-249.551628,-67.448826)" opacity="0" fill="#52b3e5"/></g></g></g></g></g></svg>
