<svg id="em26oYdxtDr1" xmlns="http://www.w3.org/2000/svg" xmlns:xlink="http://www.w3.org/1999/xlink" viewBox="0 0 104 104" shape-rendering="geometricPrecision" text-rendering="geometricPrecision">
<style><![CDATA[
#em26oYdxtDr6_to {animation: em26oYdxtDr6_to__to 1747.826086956522ms linear infinite normal forwards}@keyframes em26oYdxtDr6_to__to { 0% {transform: translate(52px,41.635002px);animation-timing-function: cubic-bezier(0.42,0,1,1)} 49.751244% {transform: translate(52px,61.100573px);animation-timing-function: cubic-bezier(0.42,0,1,1)} 99.502488% {transform: translate(52px,41.635002px)} 100% {transform: translate(52px,41.635002px)}}
]]></style>
<circle r="52" transform="translate(52 52)" opacity="0.61" fill="#eaf0f4"/><circle r="39.5" transform="translate(52 52)" fill="#fff"/><g><path d="M52,75.5c-7.73,0-14.06-6.33-14.06-14.06v-17.89c0-7.73,6.33-14.06,14.06-14.06s14.06,6.32,14.06,14.06v17.89c0,7.73-6.33,14.06-14.06,14.06Zm0-43.44c-6.33,0-11.5,5.18-11.5,11.5v17.89c0,6.33,5.17,11.5,11.5,11.5s11.5-5.17,11.5-11.5v-17.89c0-6.32-5.17-11.5-11.5-11.5Z" fill="#c9d5dc"/><g id="em26oYdxtDr6_to" transform="translate(52,41.635002)"><path d="M52,45.47c-.7,0-1.28-.58-1.28-1.28v-5.11c0-.7.58-1.28,1.28-1.28s1.28.57,1.28,1.28v5.11c0,.7-.58,1.28-1.28,1.28Z" transform="translate(-52,-41.635002)" fill="#c9d5dc"/></g></g></svg>
